<?xml version="1.0" encoding="utf-8"?>
<!-- Generator: Adobe Illustrator 26.1.0, SVG Export Plug-In . SVG Version: 6.00 Build 0)  -->
<svg version="1.1" id="Layer_1" xmlns="http://www.w3.org/2000/svg" xmlns:xlink="http://www.w3.org/1999/xlink" x="0px" y="0px"
	 viewBox="0 0 700 500" style="enable-background:new 0 0 700 500;" xml:space="preserve">
<style type="text/css">
	.st0{fill:#FFFFFF;}
	.st1{fill:#BCBEC0;}
	.st2{fill:#9A9C9E;}
	.st3{fill:#A7A9AC;}
	.st4{fill:none;stroke:#000000;stroke-width:1.8856;stroke-miterlimit:10;}
	.st5{fill:none;stroke:#000000;stroke-width:2;stroke-miterlimit:10;}
	.st6{fill:none;stroke:#000000;stroke-width:1.472;stroke-miterlimit:10;}
	.st7{fill:none;stroke:#000000;stroke-miterlimit:10;}
	.st8{fill:none;stroke:#000000;stroke-width:0.7906;stroke-miterlimit:10;}
	.st9{fill:none;stroke:#000000;stroke-width:0.3;stroke-miterlimit:10;}
	.st10{fill:none;stroke:#000000;stroke-width:0.7;stroke-miterlimit:10;}
	.st11{fill:#897A6A;stroke:#010101;stroke-width:5.520863e-02;stroke-miterlimit:10;}
	.st12{fill:#968574;stroke:#010101;stroke-width:5.372057e-02;stroke-miterlimit:10;}
	.st13{fill:#5F6062;stroke:#010101;stroke-width:5.372057e-03;stroke-miterlimit:10;}
	.st14{fill:#9A8877;stroke:#010101;stroke-width:5.372057e-02;stroke-miterlimit:10;}
	.st15{fill:#FEDFBF;stroke:#000000;stroke-width:3.553437e-02;stroke-miterlimit:10;}
	.st16{fill:#887969;stroke:#000000;stroke-width:3.943701e-02;stroke-miterlimit:10;}
	.st17{fill:#968574;stroke:#000000;stroke-width:3.837405e-02;stroke-miterlimit:10;}
	.st18{fill:#FEDFBF;stroke:#000000;stroke-width:3.553734e-02;stroke-miterlimit:10;}
	.st19{fill:#887969;stroke:#000000;stroke-width:3.944031e-02;stroke-miterlimit:10;}
	.st20{fill:#968574;stroke:#000000;stroke-width:3.837726e-02;stroke-miterlimit:10;}
	.st21{fill:none;stroke:#000000;stroke-width:0.6;stroke-miterlimit:10;}
	.st22{fill:#C4DC79;stroke:#231F20;stroke-width:0.3707;stroke-miterlimit:10;}
	.st23{fill:#C4DC79;stroke:#231F20;stroke-width:0.2547;stroke-miterlimit:10;}
	.st24{fill:none;stroke:#000000;stroke-width:0.4;stroke-miterlimit:10;}
	.st25{fill:#E6E7E8;stroke:#231F20;stroke-width:0.4165;stroke-miterlimit:10;}
</style>
<rect x="270" y="120" class="st0" width="30" height="15"/>
<rect x="270" y="135" class="st1" width="30" height="25"/>
<rect x="80" y="180" class="st2" width="30" height="20"/>
<rect x="450" y="225" class="st3" width="35" height="15"/>
<rect x="450" y="210" class="st3" width="35" height="15"/>
<rect x="80" y="200" class="st1" width="30" height="20"/>
<rect x="110" y="200" class="st0" width="160" height="20"/>
<rect x="110" y="115" class="st0" width="10" height="85"/>
<rect x="90" y="150" class="st0" width="20" height="30"/>
<rect x="90" y="115" class="st0" width="20" height="35"/>
<rect x="120" y="160.2" class="st0" width="40" height="40"/>
<rect x="160" y="160" class="st0" width="35" height="40"/>
<rect x="195" y="160" class="st0" width="35" height="40"/>
<rect x="230" y="160" class="st0" width="40" height="40"/>
<rect x="270" y="160" class="st0" width="30" height="80"/>
<rect x="300" y="170" class="st0" width="50" height="45"/>
<rect x="350" y="170" class="st0" width="45" height="45"/>
<rect x="395.6" y="170.1" class="st0" width="45" height="45"/>
<rect x="440" y="210" class="st0" width="10" height="5"/>
<rect x="440" y="170" class="st0" width="10" height="40"/>
<rect x="450" y="190" class="st0" width="20" height="20"/>
<rect x="450" y="170" class="st0" width="20" height="20"/>
<rect x="300.1" y="216.9" class="st0" width="150" height="25"/>
<line class="st4" x1="80" y1="180" x2="80" y2="220"/>
<line class="st5" x1="80" y1="180" x2="90" y2="180"/>
<line class="st6" x1="90" y1="115" x2="90" y2="180"/>
<line class="st5" x1="120" y1="115" x2="90" y2="115"/>
<line class="st5" x1="120" y1="160" x2="120" y2="115"/>
<line class="st5" x1="120" y1="160" x2="270" y2="160"/>
<line class="st5" x1="80" y1="220" x2="270" y2="220"/>
<line class="st7" x1="120" y1="160" x2="120" y2="200"/>
<line class="st5" x1="270" y1="160" x2="270" y2="120"/>
<line class="st5" x1="300" y1="120" x2="270" y2="120"/>
<line class="st5" x1="300" y1="120" x2="300" y2="215"/>
<line class="st5" x1="270" y1="220" x2="270" y2="240"/>
<line class="st5" x1="270" y1="240" x2="460" y2="240"/>
<line class="st5" x1="460" y1="240" x2="485" y2="240"/>
<line class="st5" x1="485" y1="210" x2="485" y2="240"/>
<line class="st5" x1="485" y1="210" x2="470" y2="210"/>
<line class="st5" x1="470" y1="170" x2="470" y2="210"/>
<line class="st5" x1="300" y1="170" x2="470" y2="170"/>
<line class="st7" x1="270" y1="160" x2="270" y2="200"/>
<line class="st7" x1="160" y1="160" x2="160" y2="200"/>
<line class="st7" x1="230" y1="160" x2="230" y2="200"/>
<line class="st7" x1="195" y1="160" x2="195" y2="200"/>
<line class="st7" x1="440" y1="170" x2="440" y2="215"/>
<line class="st7" x1="350" y1="170" x2="350" y2="215"/>
<line class="st7" x1="395" y1="170" x2="395" y2="215"/>
<line class="st7" x1="300" y1="215" x2="330" y2="215"/>
<line class="st7" x1="350" y1="215" x2="335" y2="215"/>
<line class="st7" x1="395" y1="215" x2="390" y2="215"/>
<line class="st7" x1="385" y1="215" x2="350" y2="215"/>
<line class="st7" x1="395" y1="215" x2="430" y2="215"/>
<line class="st7" x1="440" y1="215" x2="435" y2="215"/>
<line class="st7" x1="450" y1="175" x2="450" y2="190"/>
<line class="st7" x1="470" y1="190" x2="450" y2="190"/>
<line class="st7" x1="470" y1="210" x2="450" y2="210"/>
<line class="st7" x1="450" y1="190" x2="450" y2="205"/>
<line class="st7" x1="110" y1="115" x2="110" y2="140"/>
<line class="st7" x1="90" y1="180" x2="110" y2="180"/>
<line class="st8" x1="110" y1="150" x2="110" y2="175"/>
<line class="st7" x1="90" y1="150" x2="110" y2="150"/>
<line class="st7" x1="110" y1="145" x2="110" y2="150"/>
<line class="st7" x1="120" y1="200" x2="145" y2="200"/>
<line class="st7" x1="160" y1="200" x2="155" y2="200"/>
<line class="st7" x1="160" y1="200" x2="190" y2="200"/>
<line class="st7" x1="195" y1="200" x2="220" y2="200"/>
<line class="st7" x1="230" y1="200" x2="225" y2="200"/>
<line class="st7" x1="270" y1="200" x2="260" y2="200"/>
<line class="st7" x1="230" y1="200" x2="255" y2="200"/>
<line class="st9" x1="190" y1="200" x2="195" y2="200"/>
<line class="st9" x1="220" y1="200" x2="225" y2="200"/>
<line class="st9" x1="255" y1="200" x2="260" y2="200"/>
<line class="st9" x1="145" y1="200" x2="155" y2="200"/>
<line class="st9" x1="110" y1="175" x2="110" y2="180"/>
<line class="st9" x1="110" y1="140" x2="110" y2="145"/>
<line class="st9" x1="450" y1="205" x2="450" y2="210"/>
<line class="st9" x1="450" y1="175" x2="450" y2="170"/>
<line class="st9" x1="435" y1="215" x2="430" y2="215"/>
<line class="st9" x1="390" y1="215" x2="385" y2="215"/>
<line class="st9" x1="335" y1="215" x2="330" y2="215"/>
<line class="st10" x1="80" y1="200" x2="110" y2="200"/>
<g>
	<path class="st11" d="M155.3,180.5h1.4V178h-1.4c-0.2,0-0.4,0.2-0.4,0.5v1.4C154.9,180.2,155.1,180.5,155.3,180.5z"/>
	<path class="st12" d="M156.8,180.5l0.2-0.1c0.1,0,0.1-0.1,0.1-0.2v-1.7c0-0.1,0-0.2-0.1-0.3l-0.1-0.1
		C156.8,178,156.8,180.5,156.8,180.5z"/>
	<path class="st13" d="M155.5,180.3h0.8c0.2,0,0.4-0.2,0.4-0.5v-1c0-0.3-0.2-0.5-0.4-0.5h-0.8c-0.2,0-0.4,0.2-0.4,0.5v1
		C155.1,180,155.3,180.3,155.5,180.3z"/>
	<rect x="150" y="174.7" class="st14" width="4.1" height="9.2"/>
</g>
<g>
	<path class="st15" d="M142.2,165.4l-1.8,1c-0.3,0.2-0.6-0.1-0.6-0.5V162c0-0.4,0.3-0.6,0.6-0.5l1.6,0.8c0.3,0.1,0.5,0.5,0.5,0.8
		v1.7C142.4,165.2,142.3,165.4,142.2,165.4z"/>
	<path class="st16" d="M139.3,165h-1.1v-1.7h1.1c0.2,0,0.3,0.2,0.3,0.4v1C139.6,164.8,139.4,165,139.3,165z"/>
	<path class="st17" d="M138.2,165l-0.1-0.1l-0.1-0.1v-1.2c0-0.1,0-0.1,0.1-0.2l0.1-0.1V165z"/>
</g>
<g>
	<path class="st18" d="M140.1,169.9l1.8,1c0.3,0.2,0.6-0.1,0.6-0.5v-3.9c0-0.4-0.3-0.6-0.6-0.5l-1.6,0.8c-0.3,0.1-0.5,0.5-0.5,0.8
		v1.7C139.8,169.6,139.9,169.8,140.1,169.9z"/>
	<path class="st19" d="M139.3,169.4h-1.1v-1.7h1.1c0.2,0,0.3,0.2,0.3,0.4v1C139.6,169.3,139.5,169.4,139.3,169.4z"/>
	<path class="st20" d="M138.2,169.4l-0.1-0.1l-0.1-0.1V168c0-0.1,0-0.1,0.1-0.2l0.1-0.1V169.4z"/>
</g>
<g>
	<path class="st15" d="M142.2,174.2l-1.8,1c-0.3,0.2-0.6-0.1-0.6-0.5v-3.9c0-0.4,0.3-0.6,0.6-0.5l1.6,0.8c0.3,0.1,0.5,0.5,0.5,0.8
		v1.7C142.4,174,142.4,174.1,142.2,174.2z"/>
	<path class="st16" d="M139.3,173.8h-1.1v-1.7h1.1c0.2,0,0.3,0.2,0.3,0.4v1C139.6,173.6,139.5,173.8,139.3,173.8z"/>
	<path class="st17" d="M138.2,173.7l-0.1-0.1l-0.1-0.1v-1.2c0-0.1,0-0.1,0.1-0.2l0.1-0.1V173.7z"/>
</g>
<g>
	<path class="st15" d="M135.9,165.5l-1.8,1c-0.3,0.2-0.6-0.1-0.6-0.5v-3.9c0-0.4,0.3-0.6,0.6-0.5l1.6,0.8c0.3,0.1,0.5,0.5,0.5,0.8
		v1.7C136.1,165.3,136,165.4,135.9,165.5z"/>
	<path class="st16" d="M132.9,165.1h-1.1v-1.7h1.1c0.2,0,0.3,0.2,0.3,0.4v1C133.2,164.9,133.1,165.1,132.9,165.1z"/>
	<path class="st17" d="M131.9,165l-0.1-0.1l-0.1-0.1v-1.2c0-0.1,0-0.1,0.1-0.2l0.1-0.1V165z"/>
</g>
<g>
	<path class="st18" d="M133.7,170l1.8,1c0.3,0.2,0.6-0.1,0.6-0.5v-3.9c0-0.4-0.3-0.6-0.6-0.5L134,167c-0.3,0.1-0.5,0.5-0.5,0.8v1.7
		C133.5,169.7,133.6,169.9,133.7,170z"/>
	<path class="st19" d="M133,169.5h-1v-1.7h1.1c0.2,0,0.3,0.2,0.3,0.4v1C133.3,169.3,133.2,169.5,133,169.5z"/>
	<path class="st20" d="M131.9,169.5l-0.1-0.1l-0.1-0.1v-1.2c0-0.1,0-0.1,0.1-0.2l0.1-0.1V169.5z"/>
</g>
<g>
	<path class="st15" d="M135.9,174.3l-1.8,1c-0.3,0.2-0.6-0.1-0.6-0.5V171c0-0.4,0.3-0.6,0.6-0.5l1.6,0.8c0.3,0.1,0.5,0.5,0.5,0.8
		v1.7C136.1,174.1,136,174.2,135.9,174.3z"/>
	<path class="st16" d="M133,173.9h-1.1v-1.7h1.1c0.2,0,0.3,0.2,0.3,0.4v1C133.3,173.7,133.1,173.9,133,173.9z"/>
	<path class="st17" d="M131.9,173.8l-0.1-0.1l-0.1-0.1v-1.2c0-0.1,0-0.1,0.1-0.2l0.1-0.1V173.8z"/>
</g>
<g>
	<path class="st15" d="M129.2,165.5l-1.8,1c-0.3,0.2-0.6-0.1-0.6-0.5v-3.9c0-0.4,0.3-0.6,0.6-0.5l1.6,0.8c0.3,0.1,0.5,0.5,0.5,0.8
		v1.7C129.4,165.2,129.3,165.4,129.2,165.5z"/>
	<path class="st16" d="M126.3,165h-1.1v-1.7h1.1c0.2,0,0.3,0.2,0.3,0.4v1C126.6,164.8,126.5,165,126.3,165z"/>
	<path class="st17" d="M125.2,165l-0.1-0.1l-0.1-0.1v-1.2c0-0.1,0-0.1,0.1-0.2l0.1-0.1V165z"/>
</g>
<g>
	<path class="st18" d="M127.1,169.9l1.8,1c0.3,0.2,0.6-0.1,0.6-0.5v-3.9c0-0.4-0.3-0.6-0.6-0.5l-1.6,0.8c-0.3,0.1-0.5,0.5-0.5,0.8
		v1.7C126.8,169.7,126.9,169.8,127.1,169.9z"/>
	<path class="st19" d="M126.3,169.5h-1.1v-1.7h1.1c0.2,0,0.3,0.2,0.3,0.4v1C126.7,169.3,126.5,169.5,126.3,169.5z"/>
	<path class="st20" d="M125.3,169.4l-0.1-0.1l-0.1-0.1V168c0-0.1,0-0.1,0.1-0.2l0.1-0.1V169.4z"/>
</g>
<g>
	<path class="st15" d="M129.2,174.3l-1.8,1c-0.3,0.2-0.6-0.1-0.6-0.5V171c0-0.4,0.3-0.6,0.6-0.5l1.6,0.8c0.3,0.1,0.5,0.5,0.5,0.8
		v1.7C129.5,174,129.4,174.2,129.2,174.3z"/>
	<path class="st16" d="M126.3,173.8h-1.1v-1.7h1.1c0.2,0,0.3,0.2,0.3,0.4v1C126.6,173.6,126.5,173.8,126.3,173.8z"/>
	<path class="st17" d="M125.2,173.8l-0.1-0.1l-0.1-0.1v-1.2c0-0.1,0-0.1,0.1-0.2l0.1-0.1V173.8z"/>
</g>
<g>
	<path class="st15" d="M142.2,193.8l-1.8,1c-0.3,0.2-0.6-0.1-0.6-0.5v-3.9c0-0.4,0.3-0.6,0.6-0.5l1.6,0.8c0.3,0.1,0.5,0.5,0.5,0.8
		v1.7C142.4,193.5,142.3,193.7,142.2,193.8z"/>
	<path class="st16" d="M139.3,193.4h-1.1v-1.7h1.1c0.2,0,0.3,0.2,0.3,0.4v1C139.6,193.2,139.4,193.4,139.3,193.4z"/>
	<path class="st17" d="M138.2,193.3l-0.1-0.1l-0.1-0.1v-1.2c0-0.1,0-0.1,0.1-0.2l0.1-0.1V193.3z"/>
</g>
<g>
	<path class="st18" d="M140.1,198.3l1.8,1c0.3,0.2,0.6-0.1,0.6-0.5V195c0-0.4-0.3-0.6-0.6-0.5l-1.6,0.8c-0.3,0.1-0.5,0.5-0.5,0.8
		v1.7C139.8,198,139.9,198.2,140.1,198.3z"/>
	<path class="st19" d="M139.3,197.8h-1.1v-1.7h1.1c0.2,0,0.3,0.2,0.3,0.4v1C139.6,197.6,139.5,197.8,139.3,197.8z"/>
	<path class="st20" d="M138.2,197.8l-0.1-0.1l-0.1-0.1v-1.2c0-0.1,0-0.1,0.1-0.2l0.1-0.1V197.8z"/>
</g>
<g>
	<path class="st15" d="M135.9,193.9l-1.8,1c-0.3,0.2-0.6-0.1-0.6-0.5v-3.9c0-0.4,0.3-0.6,0.6-0.5l1.6,0.8c0.3,0.1,0.5,0.5,0.5,0.8
		v1.7C136.1,193.6,136,193.8,135.9,193.9z"/>
	<path class="st16" d="M133,193.4h-1.1v-1.7h1.1c0.2,0,0.3,0.2,0.3,0.4v1C133.3,193.3,133.2,193.4,133,193.4z"/>
	<path class="st17" d="M131.9,193.4l-0.1-0.1l-0.1-0.1V192c0-0.1,0-0.1,0.1-0.2l0.1-0.1V193.4z"/>
</g>
<g>
	<path class="st18" d="M133.8,198.3l1.8,1c0.3,0.2,0.6-0.1,0.6-0.5V195c0-0.4-0.3-0.6-0.6-0.5l-1.6,0.8c-0.3,0.1-0.5,0.5-0.5,0.8
		v1.7C133.6,198.1,133.6,198.2,133.8,198.3z"/>
	<path class="st19" d="M133.1,197.9H132v-1.7h1.1c0.2,0,0.3,0.2,0.3,0.4v1C133.4,197.7,133.2,197.9,133.1,197.9z"/>
	<path class="st20" d="M132,197.8l-0.1-0.1l-0.1-0.1v-1.2c0-0.1,0-0.1,0.1-0.2l0.1-0.1V197.8z"/>
</g>
<g>
	<path class="st15" d="M127.4,194l-1.8,1c-0.3,0.2-0.6-0.1-0.6-0.5v-3.9c0-0.4,0.3-0.6,0.6-0.5l1.6,0.8c0.3,0.1,0.5,0.5,0.5,0.8v1.7
		C127.6,193.7,127.5,193.9,127.4,194z"/>
	<path class="st16" d="M124.5,193.5h-1.1v-1.7h1.1c0.2,0,0.3,0.2,0.3,0.4v1C124.8,193.3,124.6,193.5,124.5,193.5z"/>
	<path class="st17" d="M123.4,193.5l-0.1-0.1l-0.1-0.1v-1.2c0-0.1,0-0.1,0.1-0.2l0.1-0.1V193.5z"/>
</g>
<g>
	<path class="st18" d="M125.3,198.4l1.8,1c0.3,0.2,0.6-0.1,0.6-0.5V195c0-0.4-0.3-0.6-0.6-0.5l-1.6,0.8c-0.3,0.1-0.5,0.5-0.5,0.8
		v1.7C125,198.2,125.1,198.3,125.3,198.4z"/>
	<path class="st19" d="M124.5,198h-1.1v-1.7h1.1c0.2,0,0.3,0.2,0.3,0.4v1C124.8,197.8,124.7,198,124.5,198z"/>
	<path class="st20" d="M123.4,197.9l-0.1-0.1l-0.1-0.1v-1.2c0-0.1,0-0.1,0.1-0.2l0.1-0.1V197.9z"/>
</g>
<g>
	<path class="st18" d="M125.4,189.6l1.8,1c0.3,0.2,0.6-0.1,0.6-0.5v-3.9c0-0.4-0.3-0.6-0.6-0.5l-1.6,0.8c-0.3,0.1-0.5,0.5-0.5,0.8
		v1.7C125.2,189.3,125.3,189.5,125.4,189.6z"/>
	<path class="st19" d="M124.7,189.1h-1.1v-1.7h1.1c0.2,0,0.3,0.2,0.3,0.4v1C125,189,124.9,189.1,124.7,189.1z"/>
	<path class="st20" d="M123.6,189.1l-0.1-0.1l-0.1-0.1v-1.2c0-0.1,0-0.1,0.1-0.2l0.1-0.1V189.1z"/>
</g>
<g>
	<path class="st11" d="M190.6,180.6h1.4v-2.5h-1.4c-0.2,0-0.4,0.2-0.4,0.5v1.4C190.2,180.4,190.4,180.6,190.6,180.6z"/>
	<path class="st12" d="M192,180.6l0.2-0.1c0.1,0,0.1-0.1,0.1-0.2v-1.7c0-0.1,0-0.2-0.1-0.3l-0.1-0.1C192,178.2,192,180.6,192,180.6z
		"/>
	<path class="st13" d="M190.7,180.4h0.8c0.2,0,0.4-0.2,0.4-0.5v-1c0-0.3-0.2-0.5-0.4-0.5h-0.8c-0.2,0-0.4,0.2-0.4,0.5v1
		C190.4,180.2,190.5,180.4,190.7,180.4z"/>
	<rect x="185.3" y="174.9" class="st14" width="4.1" height="9.2"/>
</g>
<g>
	<path class="st15" d="M180.1,165.1l-1.8,1c-0.3,0.2-0.6-0.1-0.6-0.5v-3.9c0-0.4,0.3-0.6,0.6-0.5l1.6,0.8c0.3,0.1,0.5,0.5,0.5,0.8
		v1.7C180.4,164.8,180.3,165,180.1,165.1z"/>
	<path class="st16" d="M177.2,164.6h-1.1v-1.7h1.1c0.2,0,0.3,0.2,0.3,0.4v1C177.5,164.4,177.4,164.6,177.2,164.6z"/>
	<path class="st17" d="M176.1,164.6l-0.1-0.1l-0.1-0.1v-1.2c0-0.1,0-0.1,0.1-0.2l0.1-0.1V164.6z"/>
</g>
<g>
	<path class="st18" d="M178,169.5l1.8,1c0.3,0.2,0.6-0.1,0.6-0.5v-3.9c0-0.4-0.3-0.6-0.6-0.5l-1.6,0.8c-0.3,0.1-0.5,0.5-0.5,0.8v1.7
		C177.8,169.2,177.9,169.4,178,169.5z"/>
	<path class="st19" d="M177.3,169h-1.1v-1.7h1.1c0.2,0,0.3,0.2,0.3,0.4v1C177.6,168.9,177.4,169,177.3,169z"/>
	<path class="st20" d="M176.2,169l-0.1-0.1l-0.1-0.1v-1.2c0-0.1,0-0.1,0.1-0.2l0.1-0.1V169z"/>
</g>
<g>
	<path class="st15" d="M173.8,165.1l-1.8,1c-0.3,0.2-0.6-0.1-0.6-0.5v-3.9c0-0.4,0.3-0.6,0.6-0.5l1.6,0.8c0.3,0.1,0.5,0.5,0.5,0.8
		v1.7C174,164.9,173.9,165.1,173.8,165.1z"/>
	<path class="st16" d="M170.9,164.7h-1.1V163h1.1c0.2,0,0.3,0.2,0.3,0.4v1C171.2,164.5,171.1,164.7,170.9,164.7z"/>
	<path class="st17" d="M169.8,164.7l-0.1-0.1l-0.1-0.1v-1.2c0-0.1,0-0.1,0.1-0.2l0.1-0.1V164.7z"/>
</g>
<g>
	<path class="st18" d="M171.7,169.6l1.8,1c0.3,0.2,0.6-0.1,0.6-0.5v-3.9c0-0.4-0.3-0.6-0.6-0.5l-1.6,0.8c-0.3,0.1-0.5,0.5-0.5,0.8
		v1.7C171.4,169.3,171.5,169.5,171.7,169.6z"/>
	<path class="st19" d="M170.9,169.1h-1.1v-1.7h1.1c0.2,0,0.3,0.2,0.3,0.4v1C171.3,169,171.1,169.1,170.9,169.1z"/>
	<path class="st20" d="M169.9,169.1l-0.1-0.1l-0.1-0.1v-1.2c0-0.1,0-0.1,0.1-0.2l0.1-0.1V169.1z"/>
</g>
<g>
	<path class="st15" d="M167.1,165.1l-1.8,1c-0.3,0.2-0.6-0.1-0.6-0.5v-3.9c0-0.4,0.3-0.6,0.6-0.5l1.6,0.8c0.3,0.1,0.5,0.5,0.5,0.8
		v1.7C167.4,164.8,167.3,165,167.1,165.1z"/>
	<path class="st16" d="M164.2,164.6h-1.1v-1.7h1.1c0.2,0,0.3,0.2,0.3,0.4v1C164.5,164.5,164.4,164.6,164.2,164.6z"/>
	<path class="st17" d="M163.1,164.6l-0.1-0.1l-0.1-0.1v-1.2c0-0.1,0-0.1,0.1-0.2l0.1-0.1V164.6z"/>
</g>
<g>
	<path class="st18" d="M165,169.6l1.8,1c0.3,0.2,0.6-0.1,0.6-0.5v-3.9c0-0.4-0.3-0.6-0.6-0.5l-1.6,0.8c-0.3,0.1-0.5,0.5-0.5,0.8v1.7
		C164.8,169.3,164.9,169.5,165,169.6z"/>
	<path class="st19" d="M164.3,169.1h-1.1v-1.7h1.1c0.2,0,0.3,0.2,0.3,0.4v1C164.6,168.9,164.5,169.1,164.3,169.1z"/>
	<path class="st20" d="M163.2,169.1l-0.1-0.1l-0.1-0.1v-1.2c0-0.1,0-0.1,0.1-0.2l0.1-0.1V169.1z"/>
</g>
<g>
	<path class="st15" d="M167.2,173.9l-1.8,1c-0.3,0.2-0.6-0.1-0.6-0.5v-3.9c0-0.4,0.3-0.6,0.6-0.5l1.6,0.8c0.3,0.1,0.5,0.5,0.5,0.8
		v1.7C167.4,173.6,167.3,173.8,167.2,173.9z"/>
	<path class="st16" d="M164.3,173.4h-1.1v-1.7h1.1c0.2,0,0.3,0.2,0.3,0.4v1C164.6,173.3,164.4,173.4,164.3,173.4z"/>
	<path class="st17" d="M163.2,173.4l-0.1-0.1l-0.1-0.1V172c0-0.1,0-0.1,0.1-0.2l0.1-0.1V173.4z"/>
</g>
<g>
	<path class="st15" d="M180.1,193.4l-1.8,1c-0.3,0.2-0.6-0.1-0.6-0.5V190c0-0.4,0.3-0.6,0.6-0.5l1.6,0.8c0.3,0.1,0.5,0.5,0.5,0.8
		v1.7C180.4,193.2,180.3,193.4,180.1,193.4z"/>
	<path class="st16" d="M177.2,193h-1.1v-1.7h1.1c0.2,0,0.3,0.2,0.3,0.4v1C177.5,192.8,177.4,193,177.2,193z"/>
	<path class="st17" d="M176.1,193l-0.1-0.1l-0.1-0.1v-1.2c0-0.1,0-0.1,0.1-0.2l0.1-0.1V193z"/>
</g>
<g>
	<path class="st18" d="M178,197.9l1.8,1c0.3,0.2,0.6-0.1,0.6-0.5v-3.9c0-0.4-0.3-0.6-0.6-0.5l-1.6,0.8c-0.3,0.1-0.5,0.5-0.5,0.8v1.7
		C177.8,197.6,177.9,197.8,178,197.9z"/>
	<path class="st19" d="M177.3,197.4h-1.1v-1.7h1.1c0.2,0,0.3,0.2,0.3,0.4v1C177.6,197.3,177.4,197.4,177.3,197.4z"/>
	<path class="st20" d="M176.2,197.4l-0.1-0.1l-0.1-0.1V196c0-0.1,0-0.1,0.1-0.2l0.1-0.1V197.4z"/>
</g>
<g>
	<path class="st15" d="M173.8,193.5l-1.8,1c-0.3,0.2-0.6-0.1-0.6-0.5v-3.9c0-0.4,0.3-0.6,0.6-0.5l1.6,0.8c0.3,0.1,0.5,0.5,0.5,0.8
		v1.7C174.1,193.2,174,193.4,173.8,193.5z"/>
	<path class="st16" d="M170.9,193h-1.1v-1.7h1.1c0.2,0,0.3,0.2,0.3,0.4v1C171.2,192.9,171.1,193,170.9,193z"/>
	<path class="st17" d="M169.8,193l-0.1-0.1l-0.1-0.1v-1.2c0-0.1,0-0.1,0.1-0.2l0.1-0.1V193z"/>
</g>
<g>
	<path class="st18" d="M171.7,198l1.8,1c0.3,0.2,0.6-0.1,0.6-0.5v-3.9c0-0.4-0.3-0.6-0.6-0.5l-1.6,0.8c-0.3,0.1-0.5,0.5-0.5,0.8v1.7
		C171.5,197.7,171.6,197.9,171.7,198z"/>
	<path class="st19" d="M171,197.5h-1.1v-1.7h1.1c0.2,0,0.3,0.2,0.3,0.4v1C171.3,197.3,171.2,197.5,171,197.5z"/>
	<path class="st20" d="M169.9,197.5l-0.1-0.1l-0.1-0.1v-1.2c0-0.1,0-0.1,0.1-0.2l0.1-0.1V197.5z"/>
</g>
<g>
	<path class="st15" d="M165.1,193.7l-1.8,1c-0.3,0.2-0.6-0.1-0.6-0.5v-3.9c0-0.4,0.3-0.6,0.6-0.5l1.6,0.8c0.3,0.1,0.5,0.5,0.5,0.8
		v1.7C165.4,193.5,165.3,193.7,165.1,193.7z"/>
	<path class="st16" d="M162.2,193.3h-1.1v-1.7h1.1c0.2,0,0.3,0.2,0.3,0.4v1C162.5,193.1,162.4,193.3,162.2,193.3z"/>
	<path class="st17" d="M161.1,193.3l-0.1-0.1l-0.1-0.1v-1.2c0-0.1,0-0.1,0.1-0.2l0.1-0.1V193.3z"/>
</g>
<g>
	<path class="st18" d="M163.2,198.1l1.8,1c0.3,0.2,0.6-0.1,0.6-0.5v-3.9c0-0.4-0.3-0.6-0.6-0.5l-1.6,0.8c-0.3,0.1-0.5,0.5-0.5,0.8
		v1.7C163,197.8,163.1,198,163.2,198.1z"/>
	<path class="st19" d="M162.5,197.6h-1.1v-1.7h1.1c0.2,0,0.3,0.2,0.3,0.4v1C162.8,197.4,162.6,197.6,162.5,197.6z"/>
	<path class="st20" d="M161.4,197.6l-0.1-0.1l-0.1-0.1v-1.2c0-0.1,0-0.1,0.1-0.2l0.1-0.1V197.6z"/>
</g>
<g>
	<path class="st18" d="M178.1,188.6l1.8,1c0.3,0.2,0.6-0.1,0.6-0.5v-3.9c0-0.4-0.3-0.6-0.6-0.5l-1.6,0.8c-0.3,0.1-0.5,0.5-0.5,0.8
		v1.7C177.8,188.3,177.9,188.5,178.1,188.6z"/>
	<path class="st19" d="M177.3,188.1h-1.1v-1.7h1.1c0.2,0,0.3,0.2,0.3,0.4v1C177.6,187.9,177.5,188.1,177.3,188.1z"/>
	<path class="st20" d="M176.2,188.1l-0.1-0.1l-0.1-0.1v-1.2c0-0.1,0-0.1,0.1-0.2l0.1-0.1V188.1z"/>
</g>
<g>
	<path class="st11" d="M225.2,182.1h1.4v-2.5h-1.4c-0.2,0-0.4,0.2-0.4,0.5v1.4C224.8,181.8,224.9,182.1,225.2,182.1z"/>
	<path class="st12" d="M226.6,182l0.2-0.1c0.1,0,0.1-0.1,0.1-0.2V180c0-0.1,0-0.2-0.1-0.3l-0.1-0.1C226.6,179.6,226.6,182,226.6,182
		z"/>
	<path class="st13" d="M225.3,181.8h0.8c0.2,0,0.4-0.2,0.4-0.5v-1c0-0.3-0.2-0.5-0.4-0.5h-0.8c-0.2,0-0.4,0.2-0.4,0.5v1
		C224.9,181.6,225.1,181.8,225.3,181.8z"/>
	<rect x="219.8" y="176.3" class="st14" width="4.1" height="9.2"/>
</g>
<g>
	<path class="st15" d="M214.7,165.2l-1.8,1c-0.3,0.2-0.6-0.1-0.6-0.5v-3.9c0-0.4,0.3-0.6,0.6-0.5l1.6,0.8c0.3,0.1,0.5,0.5,0.5,0.8
		v1.7C214.9,164.9,214.8,165.1,214.7,165.2z"/>
	<path class="st16" d="M211.8,164.7h-1.1V163h1.1c0.2,0,0.3,0.2,0.3,0.4v1C212.1,164.6,211.9,164.7,211.8,164.7z"/>
	<path class="st17" d="M210.7,164.7l-0.1-0.1l-0.1-0.1v-1.2c0-0.1,0-0.1,0.1-0.2l0.1-0.1V164.7z"/>
</g>
<g>
	<path class="st18" d="M212.6,169.7l1.8,1c0.3,0.2,0.6-0.1,0.6-0.5v-3.9c0-0.4-0.3-0.6-0.6-0.5l-1.6,0.8c-0.3,0.1-0.5,0.5-0.5,0.8
		v1.7C212.3,169.4,212.4,169.6,212.6,169.7z"/>
	<path class="st19" d="M211.8,169.2h-1.1v-1.7h1.1c0.2,0,0.3,0.2,0.3,0.4v1C212.1,169,212,169.2,211.8,169.2z"/>
	<path class="st20" d="M210.7,169.2l-0.1-0.1l-0.1-0.1v-1.2c0-0.1,0-0.1,0.1-0.2l0.1-0.1V169.2z"/>
</g>
<g>
	<path class="st15" d="M214.7,174l-1.8,1c-0.3,0.2-0.6-0.1-0.6-0.5v-3.9c0-0.4,0.3-0.6,0.6-0.5l1.6,0.8c0.3,0.1,0.5,0.5,0.5,0.8v1.7
		C215,173.7,214.9,173.9,214.7,174z"/>
	<path class="st16" d="M211.8,173.5h-1.1v-1.7h1.1c0.2,0,0.3,0.2,0.3,0.4v1C212.1,173.4,212,173.5,211.8,173.5z"/>
	<path class="st17" d="M210.7,173.5l-0.1-0.1l-0.1-0.1v-1.2c0-0.1,0-0.1,0.1-0.2l0.1-0.1V173.5z"/>
</g>
<g>
	<path class="st15" d="M208.4,165.3l-1.8,1c-0.3,0.2-0.6-0.1-0.6-0.5V162c0-0.4,0.3-0.6,0.6-0.5l1.6,0.8c0.3,0.1,0.5,0.5,0.5,0.8
		v1.7C208.6,165,208.5,165.2,208.4,165.3z"/>
	<path class="st16" d="M205.5,164.8h-1.1v-1.7h1.1c0.2,0,0.3,0.2,0.3,0.4v1C205.8,164.7,205.6,164.8,205.5,164.8z"/>
	<path class="st17" d="M204.4,164.8l-0.1-0.1l-0.1-0.1v-1.2c0-0.1,0-0.1,0.1-0.2l0.1-0.1V164.8z"/>
</g>
<g>
	<path class="st18" d="M206.3,169.7l1.8,1c0.3,0.2,0.6-0.1,0.6-0.5v-3.9c0-0.4-0.3-0.6-0.6-0.5l-1.6,0.8c-0.3,0.1-0.5,0.5-0.5,0.8
		v1.7C206,169.5,206.1,169.7,206.3,169.7z"/>
	<path class="st19" d="M205.5,169.3h-1.1v-1.7h1.1c0.2,0,0.3,0.2,0.3,0.4v1C205.8,169.1,205.7,169.3,205.5,169.3z"/>
	<path class="st20" d="M204.4,169.3l-0.1-0.1l-0.1-0.1v-1.2c0-0.1,0-0.1,0.1-0.2l0.1-0.1V169.3z"/>
</g>
<g>
	<path class="st15" d="M208.4,174.1l-1.8,1c-0.3,0.2-0.6-0.1-0.6-0.5v-3.9c0-0.4,0.3-0.6,0.6-0.5l1.6,0.8c0.3,0.1,0.5,0.5,0.5,0.8
		v1.7C208.6,173.8,208.5,174,208.4,174.1z"/>
	<path class="st16" d="M205.5,173.6h-1.1v-1.7h1.1c0.2,0,0.3,0.2,0.3,0.4v1C205.8,173.5,205.6,173.6,205.5,173.6z"/>
	<path class="st17" d="M204.4,173.6l-0.1-0.1l-0.1-0.1v-1.2c0-0.1,0-0.1,0.1-0.2l0.1-0.1V173.6z"/>
</g>
<g>
	<path class="st15" d="M201.7,165.2l-1.8,1c-0.3,0.2-0.6-0.1-0.6-0.5v-3.9c0-0.4,0.3-0.6,0.6-0.5l1.6,0.8c0.3,0.1,0.5,0.5,0.5,0.8
		v1.7C202,165,201.9,165.2,201.7,165.2z"/>
	<path class="st16" d="M198.8,164.8h-1.1v-1.7h1.1c0.2,0,0.3,0.2,0.3,0.4v1C199.1,164.6,199,164.8,198.8,164.8z"/>
	<path class="st17" d="M197.7,164.8l-0.1-0.1l-0.1-0.1v-1.2c0-0.1,0-0.1,0.1-0.2l0.1-0.1V164.8z"/>
</g>
<g>
	<path class="st18" d="M199.6,169.7l1.8,1c0.3,0.2,0.6-0.1,0.6-0.5v-3.9c0-0.4-0.3-0.6-0.6-0.5l-1.6,0.8c-0.3,0.1-0.5,0.5-0.5,0.8
		v1.7C199.4,169.4,199.5,169.6,199.6,169.7z"/>
	<path class="st19" d="M198.9,169.2h-1.1v-1.7h1.1c0.2,0,0.3,0.2,0.3,0.4v1C199.2,169.1,199,169.2,198.9,169.2z"/>
	<path class="st20" d="M197.8,169.2l-0.1-0.1l-0.1-0.1v-1.2c0-0.1,0-0.1,0.1-0.2l0.1-0.1V169.2z"/>
</g>
<g>
	<path class="st15" d="M201.7,174l-1.8,1c-0.3,0.2-0.6-0.1-0.6-0.5v-3.9c0-0.4,0.3-0.6,0.6-0.5l1.6,0.8c0.3,0.1,0.5,0.5,0.5,0.8v1.7
		C202,173.8,201.9,174,201.7,174z"/>
	<path class="st16" d="M198.8,173.6h-1.1v-1.7h1.1c0.2,0,0.3,0.2,0.3,0.4v1C199.1,173.4,199,173.6,198.8,173.6z"/>
	<path class="st17" d="M197.7,173.6l-0.1-0.1l-0.1-0.1v-1.2c0-0.1,0-0.1,0.1-0.2l0.1-0.1V173.6z"/>
</g>
<g>
	<path class="st15" d="M214.7,193.6l-1.8,1c-0.3,0.2-0.6-0.1-0.6-0.5v-3.9c0-0.4,0.3-0.6,0.6-0.5l1.6,0.8c0.3,0.1,0.5,0.5,0.5,0.8
		v1.7C214.9,193.3,214.8,193.5,214.7,193.6z"/>
	<path class="st16" d="M211.8,193.1h-1.1v-1.7h1.1c0.2,0,0.3,0.2,0.3,0.4v1C212.1,193,211.9,193.1,211.8,193.1z"/>
	<path class="st17" d="M210.7,193.1l-0.1-0.1l-0.1-0.1v-1.2c0-0.1,0-0.1,0.1-0.2l0.1-0.1V193.1z"/>
</g>
<g>
	<path class="st18" d="M212.6,198l1.8,1c0.3,0.2,0.6-0.1,0.6-0.5v-3.9c0-0.4-0.3-0.6-0.6-0.5l-1.6,0.8c-0.3,0.1-0.5,0.5-0.5,0.8v1.7
		C212.3,197.8,212.4,197.9,212.6,198z"/>
	<path class="st19" d="M211.8,197.6h-1.1v-1.7h1.1c0.2,0,0.3,0.2,0.3,0.4v1C212.1,197.4,212,197.6,211.8,197.6z"/>
	<path class="st20" d="M210.7,197.5l-0.1-0.1l-0.1-0.1v-1.2c0-0.1,0-0.1,0.1-0.2l0.1-0.1V197.5z"/>
</g>
<g>
	<path class="st15" d="M208.4,193.6l-1.8,1c-0.3,0.2-0.6-0.1-0.6-0.5v-3.9c0-0.4,0.3-0.6,0.6-0.5l1.6,0.8c0.3,0.1,0.5,0.5,0.5,0.8
		v1.7C208.7,193.4,208.6,193.6,208.4,193.6z"/>
	<path class="st16" d="M205.5,193.2h-1.1v-1.7h1.1c0.2,0,0.3,0.2,0.3,0.4v1C205.8,193,205.7,193.2,205.5,193.2z"/>
	<path class="st17" d="M204.4,193.2l-0.1-0.1l-0.1-0.1v-1.2c0-0.1,0-0.1,0.1-0.2l0.1-0.1V193.2z"/>
</g>
<g>
	<path class="st18" d="M206.3,198.1l1.8,1c0.3,0.2,0.6-0.1,0.6-0.5v-3.9c0-0.4-0.3-0.6-0.6-0.5l-1.6,0.8c-0.3,0.1-0.5,0.5-0.5,0.8
		v1.7C206.1,197.8,206.2,198,206.3,198.1z"/>
	<path class="st19" d="M205.6,197.6h-1.1v-1.7h1.1c0.2,0,0.3,0.2,0.3,0.4v1C205.9,197.5,205.7,197.6,205.6,197.6z"/>
	<path class="st20" d="M204.5,197.6l-0.1-0.1l-0.1-0.1v-1.2c0-0.1,0-0.1,0.1-0.2l0.1-0.1V197.6z"/>
</g>
<g>
	<path class="st15" d="M199.9,193.7l-1.8,1c-0.3,0.2-0.6-0.1-0.6-0.5v-3.9c0-0.4,0.3-0.6,0.6-0.5l1.6,0.8c0.3,0.1,0.5,0.5,0.5,0.8
		v1.7C200.1,193.5,200,193.7,199.9,193.7z"/>
	<path class="st16" d="M197,193.3h-1.1v-1.7h1.1c0.2,0,0.3,0.2,0.3,0.4v1C197.3,193.1,197.1,193.3,197,193.3z"/>
	<path class="st17" d="M195.9,193.3l-0.1-0.1l-0.1-0.1v-1.2c0-0.1,0-0.1,0.1-0.2l0.1-0.1V193.3z"/>
</g>
<g>
	<path class="st18" d="M197.8,198.2l1.8,1c0.3,0.2,0.6-0.1,0.6-0.5v-3.9c0-0.4-0.3-0.6-0.6-0.5l-1.6,0.8c-0.3,0.1-0.5,0.5-0.5,0.8
		v1.7C197.5,197.9,197.6,198.1,197.8,198.2z"/>
	<path class="st19" d="M197,197.7h-1V196h1.1c0.2,0,0.3,0.2,0.3,0.4v1C197.3,197.6,197.2,197.7,197,197.7z"/>
	<path class="st20" d="M195.9,197.7l-0.1-0.1l-0.1-0.1v-1.2c0-0.1,0-0.1,0.1-0.2l0.1-0.1V197.7z"/>
</g>
<g>
	<path class="st18" d="M197.9,189.4l1.8,1c0.3,0.2,0.6-0.1,0.6-0.5V186c0-0.4-0.3-0.6-0.6-0.5l-1.6,0.8c-0.3,0.1-0.5,0.5-0.5,0.8
		v1.7C197.7,189.1,197.8,189.3,197.9,189.4z"/>
	<path class="st19" d="M197.2,188.9h-1.1v-1.7h1.1c0.2,0,0.3,0.2,0.3,0.4v1C197.5,188.7,197.4,188.9,197.2,188.9z"/>
	<path class="st20" d="M196.1,188.9l-0.1-0.1l-0.1-0.1v-1.2c0-0.1,0-0.1,0.1-0.2l0.1-0.1V188.9z"/>
</g>
<g>
	<path class="st18" d="M206.3,189.1l1.8,1c0.3,0.2,0.6-0.1,0.6-0.5v-3.9c0-0.4-0.3-0.6-0.6-0.5l-1.6,0.8c-0.3,0.1-0.5,0.5-0.5,0.8
		v1.7C206.1,188.8,206.2,189,206.3,189.1z"/>
	<path class="st19" d="M205.6,188.6h-1.1v-1.7h1.1c0.2,0,0.3,0.2,0.3,0.4v1C205.9,188.4,205.8,188.6,205.6,188.6z"/>
	<path class="st20" d="M204.5,188.6l-0.1-0.1l-0.1-0.1v-1.2c0-0.1,0-0.1,0.1-0.2l0.1-0.1V188.6z"/>
</g>
<g>
	<path class="st11" d="M265.7,183.4h1.4v-2.5h-1.4c-0.2,0-0.4,0.2-0.4,0.5v1.4C265.3,183.1,265.5,183.4,265.7,183.4z"/>
	<path class="st12" d="M267.1,183.3l0.2-0.1c0.1,0,0.1-0.1,0.1-0.2v-1.7c0-0.1,0-0.2-0.1-0.3l-0.1-0.1
		C267.1,180.9,267.1,183.3,267.1,183.3z"/>
	<path class="st13" d="M265.8,183.1h0.8c0.2,0,0.4-0.2,0.4-0.5v-1c0-0.3-0.2-0.5-0.4-0.5h-0.8c-0.2,0-0.4,0.2-0.4,0.5v1
		C265.5,182.9,265.6,183.1,265.8,183.1z"/>
	<rect x="260.4" y="177.6" class="st14" width="4.1" height="9.2"/>
</g>
<g>
	<path class="st15" d="M249.5,166.1l-1.8,1c-0.3,0.2-0.6-0.1-0.6-0.5v-3.9c0-0.4,0.3-0.6,0.6-0.5l1.6,0.8c0.3,0.1,0.5,0.5,0.5,0.8
		v1.7C249.8,165.8,249.7,166,249.5,166.1z"/>
	<path class="st16" d="M246.6,165.6h-1.1v-1.7h1.1c0.2,0,0.3,0.2,0.3,0.4v1C246.9,165.4,246.8,165.6,246.6,165.6z"/>
	<path class="st17" d="M245.5,165.6l-0.1-0.1l-0.1-0.1v-1.2c0-0.1,0-0.1,0.1-0.2l0.1-0.1V165.6z"/>
</g>
<g>
	<path class="st18" d="M247.4,170.5l1.8,1c0.3,0.2,0.6-0.1,0.6-0.5v-3.9c0-0.4-0.3-0.6-0.6-0.5l-1.6,0.8c-0.3,0.1-0.5,0.5-0.5,0.8
		v1.7C247.2,170.2,247.3,170.4,247.4,170.5z"/>
	<path class="st19" d="M246.7,170.1h-1.1v-1.7h1.1c0.2,0,0.3,0.2,0.3,0.4v1C247,169.9,246.9,170.1,246.7,170.1z"/>
	<path class="st20" d="M245.6,170l-0.1-0.1l-0.1-0.1v-1.2c0-0.1,0-0.1,0.1-0.2l0.1-0.1V170z"/>
</g>
<g>
	<path class="st15" d="M249.6,174.9l-1.8,1c-0.3,0.2-0.6-0.1-0.6-0.5v-3.9c0-0.4,0.3-0.6,0.6-0.5l1.6,0.8c0.3,0.1,0.5,0.5,0.5,0.8
		v1.7C249.8,174.6,249.7,174.8,249.6,174.9z"/>
	<path class="st16" d="M246.7,174.4h-1.1v-1.7h1.1c0.2,0,0.3,0.2,0.3,0.4v1C247,174.2,246.8,174.4,246.7,174.4z"/>
	<path class="st17" d="M245.6,174.4l-0.1-0.1l-0.1-0.1V173c0-0.1,0-0.1,0.1-0.2l0.1-0.1V174.4z"/>
</g>
<g>
	<path class="st15" d="M243.2,166.2l-1.8,1c-0.3,0.2-0.6-0.1-0.6-0.5v-3.9c0-0.4,0.3-0.6,0.6-0.5l1.6,0.8c0.3,0.1,0.5,0.5,0.5,0.8
		v1.7C243.5,165.9,243.4,166.1,243.2,166.2z"/>
	<path class="st16" d="M240.3,165.7h-1.1V164h1.1c0.2,0,0.3,0.2,0.3,0.4v1C240.6,165.5,240.5,165.7,240.3,165.7z"/>
	<path class="st17" d="M239.2,165.7l-0.1-0.1l-0.1-0.1v-1.2c0-0.1,0-0.1,0.1-0.2l0.1-0.1V165.7z"/>
</g>
<g>
	<path class="st18" d="M241.1,170.6l1.8,1c0.3,0.2,0.6-0.1,0.6-0.5v-3.9c0-0.4-0.3-0.6-0.6-0.5l-1.6,0.8c-0.3,0.1-0.5,0.5-0.5,0.8
		v1.7C240.9,170.3,241,170.5,241.1,170.6z"/>
	<path class="st19" d="M240.4,170.1h-1.1v-1.7h1.1c0.2,0,0.3,0.2,0.3,0.4v1C240.7,170,240.5,170.1,240.4,170.1z"/>
	<path class="st20" d="M239.3,170.1l-0.1-0.1l-0.1-0.1v-1.2c0-0.1,0-0.1,0.1-0.2l0.1-0.1V170.1z"/>
</g>
<g>
	<path class="st15" d="M243.2,174.9l-1.8,1c-0.3,0.2-0.6-0.1-0.6-0.5v-3.9c0-0.4,0.3-0.6,0.6-0.5l1.6,0.8c0.3,0.1,0.5,0.5,0.5,0.8
		v1.7C243.5,174.7,243.4,174.9,243.2,174.9z"/>
	<path class="st16" d="M240.3,174.5h-1.1v-1.7h1.1c0.2,0,0.3,0.2,0.3,0.4v1C240.6,174.3,240.5,174.5,240.3,174.5z"/>
	<path class="st17" d="M239.2,174.5l-0.1-0.1l-0.1-0.1v-1.2c0-0.1,0-0.1,0.1-0.2l0.1-0.1V174.5z"/>
</g>
<g>
	<path class="st15" d="M236.6,166.1l-1.8,1c-0.3,0.2-0.6-0.1-0.6-0.5v-3.9c0-0.4,0.3-0.6,0.6-0.5l1.6,0.8c0.3,0.1,0.5,0.5,0.5,0.8
		v1.7C236.8,165.8,236.7,166,236.6,166.1z"/>
	<path class="st16" d="M233.6,165.6h-1.1V164h1.1c0.2,0,0.3,0.2,0.3,0.4v1C234,165.5,233.8,165.6,233.6,165.6z"/>
	<path class="st17" d="M232.6,165.6l-0.1-0.1l-0.1-0.1v-1.2c0-0.1,0-0.1,0.1-0.2l0.1-0.1V165.6z"/>
</g>
<g>
	<path class="st18" d="M234.5,170.6l1.8,1c0.3,0.2,0.6-0.1,0.6-0.5v-3.9c0-0.4-0.3-0.6-0.6-0.5l-1.6,0.8c-0.3,0.1-0.5,0.5-0.5,0.8
		v1.7C234.2,170.3,234.3,170.5,234.5,170.6z"/>
	<path class="st19" d="M233.7,170.1h-1.1v-1.7h1.1c0.2,0,0.3,0.2,0.3,0.4v1C234,169.9,233.9,170.1,233.7,170.1z"/>
	<path class="st20" d="M232.6,170.1l-0.1-0.1l-0.1-0.1v-1.2c0-0.1,0-0.1,0.1-0.2l0.1-0.1V170.1z"/>
</g>
<g>
	<path class="st15" d="M236.6,174.9l-1.8,1c-0.3,0.2-0.6-0.1-0.6-0.5v-3.9c0-0.4,0.3-0.6,0.6-0.5l1.6,0.8c0.3,0.1,0.5,0.5,0.5,0.8
		v1.7C236.8,174.6,236.7,174.8,236.6,174.9z"/>
	<path class="st16" d="M233.7,174.4h-1.1v-1.7h1.1c0.2,0,0.3,0.2,0.3,0.4v1C234,174.3,233.8,174.4,233.7,174.4z"/>
	<path class="st17" d="M232.6,174.4l-0.1-0.1l-0.1-0.1V173c0-0.1,0-0.1,0.1-0.2l0.1-0.1V174.4z"/>
</g>
<g>
	<path class="st15" d="M251.1,193.1l-1.8,1c-0.3,0.2-0.6-0.1-0.6-0.5v-3.9c0-0.4,0.3-0.6,0.6-0.5l1.6,0.8c0.3,0.1,0.5,0.5,0.5,0.8
		v1.7C251.3,192.8,251.2,193,251.1,193.1z"/>
	<path class="st16" d="M248.2,192.6h-1.1v-1.7h1.1c0.2,0,0.3,0.2,0.3,0.4v1C248.5,192.4,248.3,192.6,248.2,192.6z"/>
	<path class="st17" d="M247.1,192.6l-0.1-0.1l-0.1-0.1v-1.2c0-0.1,0-0.1,0.1-0.2l0.1-0.1V192.6z"/>
</g>
<g>
	<path class="st18" d="M249,197.5l1.8,1c0.3,0.2,0.6-0.1,0.6-0.5v-3.9c0-0.4-0.3-0.6-0.6-0.5l-1.6,0.8c-0.3,0.1-0.5,0.5-0.5,0.8v1.7
		C248.7,197.2,248.8,197.4,249,197.5z"/>
	<path class="st19" d="M248.2,197h-1.1v-1.7h1.1c0.2,0,0.3,0.2,0.3,0.4v1C248.5,196.9,248.4,197,248.2,197z"/>
	<path class="st20" d="M247.1,197l-0.1-0.1l-0.1-0.1v-1.2c0-0.1,0-0.1,0.1-0.2l0.1-0.1V197z"/>
</g>
<g>
	<path class="st15" d="M244.8,193.1l-1.8,1c-0.3,0.2-0.6-0.1-0.6-0.5v-3.9c0-0.4,0.3-0.6,0.6-0.5l1.6,0.8c0.3,0.1,0.5,0.5,0.5,0.8
		v1.7C245,192.9,244.9,193,244.8,193.1z"/>
	<path class="st16" d="M241.9,192.7h-1.1V191h1.1c0.2,0,0.3,0.2,0.3,0.4v1C242.2,192.5,242.1,192.7,241.9,192.7z"/>
	<path class="st17" d="M240.8,192.6l-0.1-0.1l-0.1-0.1v-1.2c0-0.1,0-0.1,0.1-0.2l0.1-0.1V192.6z"/>
</g>
<g>
	<path class="st18" d="M242.7,197.6l1.8,1c0.3,0.2,0.6-0.1,0.6-0.5v-3.9c0-0.4-0.3-0.6-0.6-0.5l-1.6,0.8c-0.3,0.1-0.5,0.5-0.5,0.8
		v1.7C242.4,197.3,242.5,197.5,242.7,197.6z"/>
	<path class="st19" d="M241.9,197.1h-1.1v-1.7h1.1c0.2,0,0.3,0.2,0.3,0.4v1C242.2,196.9,242.1,197.1,241.9,197.1z"/>
	<path class="st20" d="M240.9,197.1l-0.1-0.1l-0.1-0.1v-1.2c0-0.1,0-0.1,0.1-0.2l0.1-0.1V197.1z"/>
</g>
<g>
	<path class="st15" d="M236.3,193.2l-1.8,1c-0.3,0.2-0.6-0.1-0.6-0.5v-3.9c0-0.4,0.3-0.6,0.6-0.5l1.6,0.8c0.3,0.1,0.5,0.5,0.5,0.8
		v1.7C236.5,192.9,236.4,193.1,236.3,193.2z"/>
	<path class="st16" d="M233.4,192.8h-1.1v-1.7h1.1c0.2,0,0.3,0.2,0.3,0.4v1C233.7,192.6,233.5,192.8,233.4,192.8z"/>
	<path class="st17" d="M232.3,192.7l-0.1-0.1l-0.1-0.1v-1.2c0-0.1,0-0.1,0.1-0.2l0.1-0.1V192.7z"/>
</g>
<g>
	<path class="st18" d="M234.2,197.7l1.8,1c0.3,0.2,0.6-0.1,0.6-0.5v-3.9c0-0.4-0.3-0.6-0.6-0.5l-1.6,0.8c-0.3,0.1-0.5,0.5-0.5,0.8
		v1.7C233.9,197.4,234,197.6,234.2,197.7z"/>
	<path class="st19" d="M233.4,197.2h-1.1v-1.7h1.1c0.2,0,0.3,0.2,0.3,0.4v1C233.7,197,233.6,197.2,233.4,197.2z"/>
	<path class="st20" d="M232.3,197.2l-0.1-0.1l-0.1-0.1v-1.2c0-0.1,0-0.1,0.1-0.2l0.1-0.1V197.2z"/>
</g>
<g>
	<path class="st18" d="M234.7,179.5l1.8,1c0.3,0.2,0.6-0.1,0.6-0.5v-3.9c0-0.4-0.3-0.6-0.6-0.5l-1.6,0.8c-0.3,0.1-0.5,0.5-0.5,0.8
		v1.7C234.4,179.2,234.5,179.4,234.7,179.5z"/>
	<path class="st19" d="M233.9,179h-1.1v-1.7h1.1c0.2,0,0.3,0.2,0.3,0.4v1C234.2,178.9,234.1,179,233.9,179z"/>
	<path class="st20" d="M232.8,179l-0.1-0.1l-0.1-0.1v-1.2c0-0.1,0-0.1,0.1-0.2l0.1-0.1V179z"/>
</g>
<g>
	<path class="st11" d="M346.8,194.9h1.4v-2.5h-1.4c-0.2,0-0.4,0.2-0.4,0.5v1.4C346.4,194.6,346.6,194.9,346.8,194.9z"/>
	<path class="st12" d="M348.2,194.8l0.2-0.1c0.1,0,0.1-0.1,0.1-0.2v-1.7c0-0.1,0-0.2-0.1-0.3l-0.1-0.1
		C348.2,192.4,348.2,194.8,348.2,194.8z"/>
	<path class="st13" d="M346.9,194.6h0.8c0.2,0,0.4-0.2,0.4-0.5v-1c0-0.3-0.2-0.5-0.4-0.5h-0.8c-0.2,0-0.4,0.2-0.4,0.5v1
		C346.5,194.4,346.7,194.6,346.9,194.6z"/>
	<rect x="341.5" y="189.1" class="st14" width="4.1" height="9.2"/>
</g>
<g>
	<path class="st15" d="M320.3,176.6l-1.8,1c-0.3,0.2-0.6-0.1-0.6-0.5v-3.9c0-0.4,0.3-0.6,0.6-0.5l1.6,0.8c0.3,0.1,0.5,0.5,0.5,0.8
		v1.7C320.5,176.3,320.4,176.5,320.3,176.6z"/>
	<path class="st16" d="M317.4,176.1h-1.1v-1.7h1.1c0.2,0,0.3,0.2,0.3,0.4v1C317.7,176,317.5,176.1,317.4,176.1z"/>
	<path class="st17" d="M316.3,176.1l-0.1-0.1l-0.1-0.1v-1.2c0-0.1,0-0.1,0.1-0.2l0.1-0.1V176.1z"/>
</g>
<g>
	<path class="st18" d="M318.2,181.1l1.8,1c0.3,0.2,0.6-0.1,0.6-0.5v-3.9c0-0.4-0.3-0.6-0.6-0.5l-1.6,0.8c-0.3,0.1-0.5,0.5-0.5,0.8
		v1.7C317.9,180.8,318,181,318.2,181.1z"/>
	<path class="st19" d="M317.4,180.6h-1.1v-1.7h1.1c0.2,0,0.3,0.2,0.3,0.4v1C317.7,180.4,317.6,180.6,317.4,180.6z"/>
	<path class="st20" d="M316.3,180.6l-0.1-0.1l-0.1-0.1v-1.2c0-0.1,0-0.1,0.1-0.2l0.1-0.1V180.6z"/>
</g>
<g>
	<path class="st15" d="M320.3,185.4l-1.8,1c-0.3,0.2-0.6-0.1-0.6-0.5V182c0-0.4,0.3-0.6,0.6-0.5l1.6,0.8c0.3,0.1,0.5,0.5,0.5,0.8
		v1.7C320.5,185.1,320.4,185.3,320.3,185.4z"/>
	<path class="st16" d="M317.4,184.9h-1.1v-1.7h1.1c0.2,0,0.3,0.2,0.3,0.4v1C317.7,184.8,317.5,184.9,317.4,184.9z"/>
	<path class="st17" d="M316.3,184.9l-0.1-0.1l-0.1-0.1v-1.2c0-0.1,0-0.1,0.1-0.2l0.1-0.1V184.9z"/>
</g>
<g>
	<path class="st15" d="M313.9,176.7l-1.8,1c-0.3,0.2-0.6-0.1-0.6-0.5v-3.9c0-0.4,0.3-0.6,0.6-0.5l1.6,0.8c0.3,0.1,0.5,0.5,0.5,0.8
		v1.7C314.2,176.4,314.1,176.6,313.9,176.7z"/>
	<path class="st16" d="M311,176.2h-1v-1.7h1.1c0.2,0,0.3,0.2,0.3,0.4v1C311.3,176.1,311.2,176.2,311,176.2z"/>
	<path class="st17" d="M309.9,176.2l-0.1-0.1l-0.1-0.1v-1.2c0-0.1,0-0.1,0.1-0.2l0.1-0.1V176.2z"/>
</g>
<g>
	<path class="st18" d="M311.8,181.2l1.8,1c0.3,0.2,0.6-0.1,0.6-0.5v-3.9c0-0.4-0.3-0.6-0.6-0.5l-1.6,0.8c-0.3,0.1-0.5,0.5-0.5,0.8
		v1.7C311.6,180.9,311.7,181.1,311.8,181.2z"/>
	<path class="st19" d="M311.1,180.7H310V179h1.1c0.2,0,0.3,0.2,0.3,0.4v1C311.4,180.5,311.3,180.7,311.1,180.7z"/>
	<path class="st20" d="M310,180.7l-0.1-0.1l-0.1-0.1v-1.2c0-0.1,0-0.1,0.1-0.2l0.1-0.1V180.7z"/>
</g>
<g>
	<path class="st15" d="M314,185.5l-1.8,1c-0.3,0.2-0.6-0.1-0.6-0.5v-3.9c0-0.4,0.3-0.6,0.6-0.5l1.6,0.8c0.3,0.1,0.5,0.5,0.5,0.8v1.7
		C314.2,185.2,314.1,185.4,314,185.5z"/>
	<path class="st16" d="M311.1,185H310v-1.7h1.1c0.2,0,0.3,0.2,0.3,0.4v1C311.4,184.9,311.2,185,311.1,185z"/>
	<path class="st17" d="M310,185l-0.1-0.1l-0.1-0.1v-1.2c0-0.1,0-0.1,0.1-0.2l0.1-0.1V185z"/>
</g>
<g>
	<path class="st15" d="M307.3,176.7l-1.8,1c-0.3,0.2-0.6-0.1-0.6-0.5v-3.9c0-0.4,0.3-0.6,0.6-0.5l1.6,0.8c0.3,0.1,0.5,0.5,0.5,0.8
		v1.7C307.5,176.4,307.4,176.6,307.3,176.7z"/>
	<path class="st16" d="M304.4,176.2h-1.1v-1.7h1.1c0.2,0,0.3,0.2,0.3,0.4v1C304.7,176,304.5,176.2,304.4,176.2z"/>
	<path class="st17" d="M303.3,176.2l-0.1-0.1l-0.1-0.1v-1.2c0-0.1,0-0.1,0.1-0.2l0.1-0.1V176.2z"/>
</g>
<g>
	<path class="st18" d="M305.2,181.1l1.8,1c0.3,0.2,0.6-0.1,0.6-0.5v-3.9c0-0.4-0.3-0.6-0.6-0.5l-1.6,0.8c-0.3,0.1-0.5,0.5-0.5,0.8
		v1.7C304.9,180.8,305,181,305.2,181.1z"/>
	<path class="st19" d="M304.4,180.6h-1.1V179h1.1c0.2,0,0.3,0.2,0.3,0.4v1C304.7,180.5,304.6,180.6,304.4,180.6z"/>
	<path class="st20" d="M303.3,180.6l-0.1-0.1l-0.1-0.1v-1.2c0-0.1,0-0.1,0.1-0.2l0.1-0.1V180.6z"/>
</g>
<g>
	<path class="st15" d="M307.3,185.4l-1.8,1c-0.3,0.2-0.6-0.1-0.6-0.5V182c0-0.4,0.3-0.6,0.6-0.5l1.6,0.8c0.3,0.1,0.5,0.5,0.5,0.8
		v1.7C307.6,185.2,307.5,185.4,307.3,185.4z"/>
	<path class="st16" d="M304.4,185h-1.1v-1.7h1.1c0.2,0,0.3,0.2,0.3,0.4v1C304.7,184.8,304.6,185,304.4,185z"/>
	<path class="st17" d="M303.3,185l-0.1-0.1l-0.1-0.1v-1.2c0-0.1,0-0.1,0.1-0.2l0.1-0.1V185z"/>
</g>
<g>
	<path class="st15" d="M321.2,208.4l-1.8,1c-0.3,0.2-0.6-0.1-0.6-0.5V205c0-0.4,0.3-0.6,0.6-0.5l1.6,0.8c0.3,0.1,0.5,0.5,0.5,0.8
		v1.7C321.5,208.1,321.4,208.3,321.2,208.4z"/>
	<path class="st16" d="M318.3,207.9h-1.1v-1.7h1.1c0.2,0,0.3,0.2,0.3,0.4v1C318.6,207.8,318.5,207.9,318.3,207.9z"/>
	<path class="st17" d="M317.2,207.9l-0.1-0.1l-0.1-0.1v-1.2c0-0.1,0-0.1,0.1-0.2l0.1-0.1V207.9z"/>
</g>
<g>
	<path class="st18" d="M319.1,212.8l1.8,1c0.3,0.2,0.6-0.1,0.6-0.5v-3.9c0-0.4-0.3-0.6-0.6-0.5l-1.6,0.8c-0.3,0.1-0.5,0.5-0.5,0.8
		v1.7C318.9,212.6,319,212.8,319.1,212.8z"/>
	<path class="st19" d="M318.4,212.4h-1.1v-1.7h1.1c0.2,0,0.3,0.2,0.3,0.4v1C318.7,212.2,318.5,212.4,318.4,212.4z"/>
	<path class="st20" d="M317.3,212.4l-0.1-0.1l-0.1-0.1V211c0-0.1,0-0.1,0.1-0.2l0.1-0.1V212.4z"/>
</g>
<g>
	<path class="st15" d="M314.9,208.5l-1.8,1c-0.3,0.2-0.6-0.1-0.6-0.5v-3.9c0-0.4,0.3-0.6,0.6-0.5l1.6,0.8c0.3,0.1,0.5,0.5,0.5,0.8
		v1.7C315.2,208.2,315.1,208.4,314.9,208.5z"/>
	<path class="st16" d="M312,208h-1v-1.7h1.1c0.2,0,0.3,0.2,0.3,0.4v1C312.3,207.8,312.2,208,312,208z"/>
	<path class="st17" d="M310.9,208l-0.1-0.1l-0.1-0.1v-1.2c0-0.1,0-0.1,0.1-0.2l0.1-0.1V208z"/>
</g>
<g>
	<path class="st18" d="M312.8,212.9l1.8,1c0.3,0.2,0.6-0.1,0.6-0.5v-3.9c0-0.4-0.3-0.6-0.6-0.5l-1.6,0.8c-0.3,0.1-0.5,0.5-0.5,0.8
		v1.7C312.6,212.6,312.7,212.8,312.8,212.9z"/>
	<path class="st19" d="M312.1,212.4H311v-1.7h1.1c0.2,0,0.3,0.2,0.3,0.4v1C312.4,212.3,312.3,212.4,312.1,212.4z"/>
	<path class="st20" d="M311,212.4l-0.1-0.1l-0.1-0.1V211c0-0.1,0-0.1,0.1-0.2l0.1-0.1V212.4z"/>
</g>
<g>
	<path class="st15" d="M306.4,208.6l-1.8,1c-0.3,0.2-0.6-0.1-0.6-0.5v-3.9c0-0.4,0.3-0.6,0.6-0.5l1.6,0.8c0.3,0.1,0.5,0.5,0.5,0.8
		v1.7C306.7,208.3,306.6,208.5,306.4,208.6z"/>
	<path class="st16" d="M303.5,208.1h-1.1v-1.7h1.1c0.2,0,0.3,0.2,0.3,0.4v1C303.8,207.9,303.7,208.1,303.5,208.1z"/>
	<path class="st17" d="M302.4,208.1l-0.1-0.1l-0.1-0.1v-1.2c0-0.1,0-0.1,0.1-0.2l0.1-0.1V208.1z"/>
</g>
<g>
	<path class="st18" d="M304.3,213l1.8,1c0.3,0.2,0.6-0.1,0.6-0.5v-3.9c0-0.4-0.3-0.6-0.6-0.5l-1.6,0.8c-0.3,0.1-0.5,0.5-0.5,0.8v1.7
		C304.1,212.7,304.2,212.9,304.3,213z"/>
	<path class="st19" d="M303.6,212.5h-1.1v-1.7h1.1c0.2,0,0.3,0.2,0.3,0.4v1C303.9,212.4,303.7,212.5,303.6,212.5z"/>
	<path class="st20" d="M302.5,212.5l-0.1-0.1l-0.1-0.1v-1.2c0-0.1,0-0.1,0.1-0.2l0.1-0.1V212.5z"/>
</g>
<g>
	<path class="st18" d="M305.4,190l1.8,1c0.3,0.2,0.6-0.1,0.6-0.5v-3.9c0-0.4-0.3-0.6-0.6-0.5l-1.6,0.8c-0.3,0.1-0.5,0.5-0.5,0.8v1.7
		C305.2,189.8,305.3,190,305.4,190z"/>
	<path class="st19" d="M304.7,189.6h-1.1v-1.7h1.1c0.2,0,0.3,0.2,0.3,0.4v1C305,189.4,304.8,189.6,304.7,189.6z"/>
	<path class="st20" d="M303.6,189.6l-0.1-0.1l-0.1-0.1v-1.2c0-0.1,0-0.1,0.1-0.2l0.1-0.1V189.6z"/>
</g>
<g>
	<path class="st18" d="M311.8,190.3l1.8,1c0.3,0.2,0.6-0.1,0.6-0.5V187c0-0.4-0.3-0.6-0.6-0.5l-1.6,0.8c-0.3,0.1-0.5,0.5-0.5,0.8
		v1.7C311.6,190,311.6,190.2,311.8,190.3z"/>
	<path class="st19" d="M311.1,189.8H310v-1.7h1.1c0.2,0,0.3,0.2,0.3,0.4v1C311.4,189.7,311.2,189.8,311.1,189.8z"/>
	<path class="st20" d="M310,189.8l-0.1-0.1l-0.1-0.1v-1.2c0-0.1,0-0.1,0.1-0.2l0.1-0.1V189.8z"/>
</g>
<g>
	<path class="st18" d="M318.2,190.6l1.8,1c0.3,0.2,0.6-0.1,0.6-0.5v-3.9c0-0.4-0.3-0.6-0.6-0.5l-1.6,0.8c-0.3,0.1-0.5,0.5-0.5,0.8
		v1.7C318,190.3,318.1,190.5,318.2,190.6z"/>
	<path class="st19" d="M317.5,190.1h-1.1v-1.7h1.1c0.2,0,0.3,0.2,0.3,0.4v1C317.8,189.9,317.7,190.1,317.5,190.1z"/>
	<path class="st20" d="M316.4,190.1l-0.1-0.1l-0.1-0.1v-1.2c0-0.1,0-0.1,0.1-0.2l0.1-0.1V190.1z"/>
</g>
<g>
	<path class="st15" d="M326.7,176.6l-1.8,1c-0.3,0.2-0.6-0.1-0.6-0.5v-3.9c0-0.4,0.3-0.6,0.6-0.5l1.6,0.8c0.3,0.1,0.5,0.5,0.5,0.8
		v1.7C327,176.3,326.9,176.5,326.7,176.6z"/>
	<path class="st16" d="M323.8,176.1h-1.1v-1.7h1.1c0.2,0,0.3,0.2,0.3,0.4v1C324.1,176,324,176.1,323.8,176.1z"/>
	<path class="st17" d="M322.7,176.1l-0.1-0.1l-0.1-0.1v-1.2c0-0.1,0-0.1,0.1-0.2l0.1-0.1V176.1z"/>
</g>
<g>
	<path class="st18" d="M324.6,181.1l1.8,1c0.3,0.2,0.6-0.1,0.6-0.5v-3.9c0-0.4-0.3-0.6-0.6-0.5l-1.6,0.8c-0.3,0.1-0.5,0.5-0.5,0.8
		v1.7C324.4,180.8,324.5,181,324.6,181.1z"/>
	<path class="st19" d="M323.9,180.6h-1.1v-1.7h1.1c0.2,0,0.3,0.2,0.3,0.4v1C324.2,180.4,324,180.6,323.9,180.6z"/>
	<path class="st20" d="M322.8,180.6l-0.1-0.1l-0.1-0.1v-1.2c0-0.1,0-0.1,0.1-0.2l0.1-0.1V180.6z"/>
</g>
<g>
	<path class="st15" d="M326.8,185.4l-1.8,1c-0.3,0.2-0.6-0.1-0.6-0.5V182c0-0.4,0.3-0.6,0.6-0.5l1.6,0.8c0.3,0.1,0.5,0.5,0.5,0.8
		v1.7C327,185.1,326.9,185.3,326.8,185.4z"/>
	<path class="st16" d="M323.8,184.9h-1.1v-1.7h1.1c0.2,0,0.3,0.2,0.3,0.4v1C324.2,184.8,324,184.9,323.8,184.9z"/>
	<path class="st17" d="M322.8,184.9l-0.1-0.1l-0.1-0.1v-1.2c0-0.1,0-0.1,0.1-0.2l0.1-0.1V184.9z"/>
</g>
<g>
	<path class="st18" d="M324.7,190.6l1.8,1c0.3,0.2,0.6-0.1,0.6-0.5v-3.9c0-0.4-0.3-0.6-0.6-0.5l-1.6,0.8c-0.3,0.1-0.5,0.5-0.5,0.8
		v1.7C324.5,190.3,324.6,190.5,324.7,190.6z"/>
	<path class="st19" d="M324,190.1h-1.1v-1.7h1.1c0.2,0,0.3,0.2,0.3,0.4v1C324.3,189.9,324.1,190.1,324,190.1z"/>
	<path class="st20" d="M322.9,190.1l-0.1-0.1l-0.1-0.1v-1.2c0-0.1,0-0.1,0.1-0.2l0.1-0.1V190.1z"/>
</g>
<g>
	<path class="st15" d="M332.9,176.2l-1.8,1c-0.3,0.2-0.6-0.1-0.6-0.5v-3.9c0-0.4,0.3-0.6,0.6-0.5l1.6,0.8c0.3,0.1,0.5,0.5,0.5,0.8
		v1.7C333.1,176,333,176.1,332.9,176.2z"/>
	<path class="st16" d="M329.9,175.8h-1.1v-1.7h1.1c0.2,0,0.3,0.2,0.3,0.4v1C330.3,175.6,330.1,175.8,329.9,175.8z"/>
	<path class="st17" d="M328.9,175.7l-0.1-0.1l-0.1-0.1v-1.2c0-0.1,0-0.1,0.1-0.2l0.1-0.1V175.7z"/>
</g>
<g>
	<path class="st18" d="M330.8,180.7l1.8,1c0.3,0.2,0.6-0.1,0.6-0.5v-3.9c0-0.4-0.3-0.6-0.6-0.5l-1.6,0.8c-0.3,0.1-0.5,0.5-0.5,0.8
		v1.7C330.5,180.4,330.6,180.6,330.8,180.7z"/>
	<path class="st19" d="M330,180.2h-1v-1.7h1.1c0.2,0,0.3,0.2,0.3,0.4v1C330.3,180.1,330.2,180.2,330,180.2z"/>
	<path class="st20" d="M328.9,180.2l-0.1-0.1l-0.1-0.1v-1.2c0-0.1,0-0.1,0.1-0.2l0.1-0.1V180.2z"/>
</g>
<g>
	<path class="st15" d="M332.9,185l-1.8,1c-0.3,0.2-0.6-0.1-0.6-0.5v-3.9c0-0.4,0.3-0.6,0.6-0.5l1.6,0.8c0.3,0.1,0.5,0.5,0.5,0.8v1.7
		C333.1,184.8,333,184.9,332.9,185z"/>
	<path class="st16" d="M330,184.6h-1.1v-1.7h1.1c0.2,0,0.3,0.2,0.3,0.4v1C330.3,184.4,330.1,184.6,330,184.6z"/>
	<path class="st17" d="M328.9,184.5l-0.1-0.1l-0.1-0.1v-1.2c0-0.1,0-0.1,0.1-0.2l0.1-0.1V184.5z"/>
</g>
<g>
	<path class="st18" d="M330.8,190.2l1.8,1c0.3,0.2,0.6-0.1,0.6-0.5v-3.9c0-0.4-0.3-0.6-0.6-0.5l-1.6,0.8c-0.3,0.1-0.5,0.5-0.5,0.8
		v1.7C330.6,189.9,330.7,190.1,330.8,190.2z"/>
	<path class="st19" d="M330.1,189.7H329V188h1.1c0.2,0,0.3,0.2,0.3,0.4v1C330.4,189.6,330.3,189.7,330.1,189.7z"/>
	<path class="st20" d="M329,189.7l-0.1-0.1l-0.1-0.1v-1.2c0-0.1,0-0.1,0.1-0.2l0.1-0.1V189.7z"/>
</g>
<g>
	<path class="st15" d="M339.4,176.4l-1.8,1c-0.3,0.2-0.6-0.1-0.6-0.5V173c0-0.4,0.3-0.6,0.6-0.5l1.6,0.8c0.3,0.1,0.5,0.5,0.5,0.8
		v1.7C339.6,176.2,339.5,176.3,339.4,176.4z"/>
	<path class="st16" d="M336.5,176h-1.1v-1.7h1.1c0.2,0,0.3,0.2,0.3,0.4v1C336.8,175.8,336.6,176,336.5,176z"/>
	<path class="st17" d="M335.4,175.9l-0.1-0.1l-0.1-0.1v-1.2c0-0.1,0-0.1,0.1-0.2l0.1-0.1V175.9z"/>
</g>
<g>
	<path class="st18" d="M337.3,180.9l1.8,1c0.3,0.2,0.6-0.1,0.6-0.5v-3.9c0-0.4-0.3-0.6-0.6-0.5l-1.6,0.8c-0.3,0.1-0.5,0.5-0.5,0.8
		v1.7C337,180.6,337.1,180.8,337.3,180.9z"/>
	<path class="st19" d="M336.5,180.4h-1.1v-1.7h1.1c0.2,0,0.3,0.2,0.3,0.4v1C336.8,180.2,336.7,180.4,336.5,180.4z"/>
	<path class="st20" d="M335.4,180.4l-0.1-0.1l-0.1-0.1V179c0-0.1,0-0.1,0.1-0.2l0.1-0.1V180.4z"/>
</g>
<g>
	<path class="st15" d="M339.4,185.2l-1.8,1c-0.3,0.2-0.6-0.1-0.6-0.5v-3.9c0-0.4,0.3-0.6,0.6-0.5l1.6,0.8c0.3,0.1,0.5,0.5,0.5,0.8
		v1.7C339.6,184.9,339.5,185.1,339.4,185.2z"/>
	<path class="st16" d="M336.5,184.7h-1.1V183h1.1c0.2,0,0.3,0.2,0.3,0.4v1C336.8,184.6,336.7,184.7,336.5,184.7z"/>
	<path class="st17" d="M335.4,184.7l-0.1-0.1l-0.1-0.1v-1.2c0-0.1,0-0.1,0.1-0.2l0.1-0.1V184.7z"/>
</g>
<g>
	<path class="st18" d="M337.3,190.4l1.8,1c0.3,0.2,0.6-0.1,0.6-0.5V187c0-0.4-0.3-0.6-0.6-0.5l-1.6,0.8c-0.3,0.1-0.5,0.5-0.5,0.8
		v1.7C337.1,190.1,337.2,190.3,337.3,190.4z"/>
	<path class="st19" d="M336.6,189.9h-1.1v-1.7h1.1c0.2,0,0.3,0.2,0.3,0.4v1C336.9,189.7,336.8,189.9,336.6,189.9z"/>
	<path class="st20" d="M335.5,189.9l-0.1-0.1l-0.1-0.1v-1.2c0-0.1,0-0.1,0.1-0.2l0.1-0.1V189.9z"/>
</g>
<g>
	<path class="st15" d="M327.7,208.2l-1.8,1c-0.3,0.2-0.6-0.1-0.6-0.5v-3.9c0-0.4,0.3-0.6,0.6-0.5l1.6,0.8c0.3,0.1,0.5,0.5,0.5,0.8
		v1.7C328,207.9,327.9,208.1,327.7,208.2z"/>
	<path class="st16" d="M324.8,207.7h-1.1V206h1.1c0.2,0,0.3,0.2,0.3,0.4v1C325.1,207.5,325,207.7,324.8,207.7z"/>
	<path class="st17" d="M323.7,207.7l-0.1-0.1l-0.1-0.1v-1.2c0-0.1,0-0.1,0.1-0.2l0.1-0.1V207.7z"/>
</g>
<g>
	<path class="st18" d="M325.6,212.6l1.8,1c0.3,0.2,0.6-0.1,0.6-0.5v-3.9c0-0.4-0.3-0.6-0.6-0.5l-1.6,0.8c-0.3,0.1-0.5,0.5-0.5,0.8
		v1.7C325.4,212.4,325.5,212.5,325.6,212.6z"/>
	<path class="st19" d="M324.9,212.2h-1.1v-1.7h1.1c0.2,0,0.3,0.2,0.3,0.4v1C325.2,212,325,212.2,324.9,212.2z"/>
	<path class="st20" d="M323.8,212.1l-0.1-0.1l-0.1-0.1v-1.2c0-0.1,0-0.1,0.1-0.2l0.1-0.1V212.1z"/>
</g>
<g>
	<path class="st11" d="M391.8,194.7h1.4v-2.5h-1.4c-0.2,0-0.4,0.2-0.4,0.5v1.4C391.4,194.4,391.5,194.7,391.8,194.7z"/>
	<path class="st12" d="M393.2,194.6l0.2-0.1c0.1,0,0.1-0.1,0.1-0.2v-1.7c0-0.1,0-0.2-0.1-0.3l-0.1-0.1
		C393.2,192.2,393.2,194.6,393.2,194.6z"/>
	<path class="st13" d="M391.9,194.4h0.8c0.2,0,0.4-0.2,0.4-0.5v-1c0-0.3-0.2-0.5-0.4-0.5h-0.8c-0.2,0-0.4,0.2-0.4,0.5v1
		C391.5,194.2,391.7,194.4,391.9,194.4z"/>
	<rect x="386.4" y="188.9" class="st14" width="4.1" height="9.2"/>
</g>
<g>
	<path class="st15" d="M368.8,175.5l-1.8,1c-0.3,0.2-0.6-0.1-0.6-0.5v-3.9c0-0.4,0.3-0.6,0.6-0.5l1.6,0.8c0.3,0.1,0.5,0.5,0.5,0.8
		v1.7C369.1,175.2,369,175.4,368.8,175.5z"/>
	<path class="st16" d="M365.9,175h-1.1v-1.7h1.1c0.2,0,0.3,0.2,0.3,0.4v1C366.2,174.9,366.1,175,365.9,175z"/>
	<path class="st17" d="M364.8,175l-0.1-0.1l-0.1-0.1v-1.2c0-0.1,0-0.1,0.1-0.2l0.1-0.1V175z"/>
</g>
<g>
	<path class="st18" d="M366.7,180l1.8,1c0.3,0.2,0.6-0.1,0.6-0.5v-3.9c0-0.4-0.3-0.6-0.6-0.5l-1.6,0.8c-0.3,0.1-0.5,0.5-0.5,0.8v1.7
		C366.5,179.7,366.6,179.9,366.7,180z"/>
	<path class="st19" d="M366,179.5h-1.1v-1.7h1.1c0.2,0,0.3,0.2,0.3,0.4v1C366.3,179.3,366.1,179.5,366,179.5z"/>
	<path class="st20" d="M364.9,179.5l-0.1-0.1l-0.1-0.1v-1.2c0-0.1,0-0.1,0.1-0.2l0.1-0.1V179.5z"/>
</g>
<g>
	<path class="st15" d="M368.9,184.3l-1.8,1c-0.3,0.2-0.6-0.1-0.6-0.5V181c0-0.4,0.3-0.6,0.6-0.5l1.6,0.8c0.3,0.1,0.5,0.5,0.5,0.8
		v1.7C369.1,184,369,184.2,368.9,184.3z"/>
	<path class="st16" d="M365.9,183.8h-1.1v-1.7h1.1c0.2,0,0.3,0.2,0.3,0.4v1C366.2,183.7,366.1,183.8,365.9,183.8z"/>
	<path class="st17" d="M364.9,183.8l-0.1-0.1l-0.1-0.1v-1.2c0-0.1,0-0.1,0.1-0.2l0.1-0.1V183.8z"/>
</g>
<g>
	<path class="st15" d="M362.5,175.6l-1.8,1c-0.3,0.2-0.6-0.1-0.6-0.5v-3.9c0-0.4,0.3-0.6,0.6-0.5l1.6,0.8c0.3,0.1,0.5,0.5,0.5,0.8
		v1.7C362.7,175.3,362.7,175.5,362.5,175.6z"/>
	<path class="st16" d="M359.6,175.1h-1.1v-1.7h1.1c0.2,0,0.3,0.2,0.3,0.4v1C359.9,175,359.8,175.1,359.6,175.1z"/>
	<path class="st17" d="M358.5,175.1l-0.1-0.1l-0.1-0.1v-1.2c0-0.1,0-0.1,0.1-0.2l0.1-0.1V175.1z"/>
</g>
<g>
	<path class="st18" d="M360.4,180.1l1.8,1c0.3,0.2,0.6-0.1,0.6-0.5v-3.9c0-0.4-0.3-0.6-0.6-0.5l-1.6,0.8c-0.3,0.1-0.5,0.5-0.5,0.8
		v1.7C360.2,179.8,360.2,180,360.4,180.1z"/>
	<path class="st19" d="M359.7,179.6h-1.1v-1.7h1.1c0.2,0,0.3,0.2,0.3,0.4v1C360,179.4,359.8,179.6,359.7,179.6z"/>
	<path class="st20" d="M358.6,179.6l-0.1-0.1l-0.1-0.1v-1.2c0-0.1,0-0.1,0.1-0.2l0.1-0.1V179.6z"/>
</g>
<g>
	<path class="st15" d="M362.5,184.4l-1.8,1c-0.3,0.2-0.6-0.1-0.6-0.5V181c0-0.4,0.3-0.6,0.6-0.5l1.6,0.8c0.3,0.1,0.5,0.5,0.5,0.8
		v1.7C362.8,184.1,362.7,184.3,362.5,184.4z"/>
	<path class="st16" d="M359.6,183.9h-1.1v-1.7h1.1c0.2,0,0.3,0.2,0.3,0.4v1C359.9,183.8,359.8,183.9,359.6,183.9z"/>
	<path class="st17" d="M358.5,183.9l-0.1-0.1l-0.1-0.1v-1.2c0-0.1,0-0.1,0.1-0.2l0.1-0.1V183.9z"/>
</g>
<g>
	<path class="st15" d="M355.8,175.6l-1.8,1c-0.3,0.2-0.6-0.1-0.6-0.5v-3.9c0-0.4,0.3-0.6,0.6-0.5l1.6,0.8c0.3,0.1,0.5,0.5,0.5,0.8
		v1.7C356.1,175.3,356,175.5,355.8,175.6z"/>
	<path class="st16" d="M352.9,175.1h-1.1v-1.7h1.1c0.2,0,0.3,0.2,0.3,0.4v1C353.2,174.9,353.1,175.1,352.9,175.1z"/>
	<path class="st17" d="M351.8,175.1l-0.1-0.1l-0.1-0.1v-1.2c0-0.1,0-0.1,0.1-0.2l0.1-0.1V175.1z"/>
</g>
<g>
	<path class="st18" d="M353.7,180l1.8,1c0.3,0.2,0.6-0.1,0.6-0.5v-3.9c0-0.4-0.3-0.6-0.6-0.5l-1.6,0.8c-0.3,0.1-0.5,0.5-0.5,0.8v1.7
		C353.5,179.7,353.6,179.9,353.7,180z"/>
	<path class="st19" d="M353,179.5h-1.1v-1.7h1.1c0.2,0,0.3,0.2,0.3,0.4v1C353.3,179.4,353.2,179.5,353,179.5z"/>
	<path class="st20" d="M351.9,179.5l-0.1-0.1l-0.1-0.1v-1.2c0-0.1,0-0.1,0.1-0.2l0.1-0.1V179.5z"/>
</g>
<g>
	<path class="st15" d="M355.9,184.3l-1.8,1c-0.3,0.2-0.6-0.1-0.6-0.5V181c0-0.4,0.3-0.6,0.6-0.5l1.6,0.8c0.3,0.1,0.5,0.5,0.5,0.8
		v1.7C356.1,184.1,356,184.3,355.9,184.3z"/>
	<path class="st16" d="M353,183.9h-1.1v-1.7h1.1c0.2,0,0.3,0.2,0.3,0.4v1C353.3,183.7,353.1,183.9,353,183.9z"/>
	<path class="st17" d="M351.9,183.9l-0.1-0.1l-0.1-0.1v-1.2c0-0.1,0-0.1,0.1-0.2l0.1-0.1V183.9z"/>
</g>
<g>
	<path class="st15" d="M369.8,207.7l-1.8,1c-0.3,0.2-0.6-0.1-0.6-0.5v-3.9c0-0.4,0.3-0.6,0.6-0.5l1.6,0.8c0.3,0.1,0.5,0.5,0.5,0.8
		v1.7C370,207.4,369.9,207.6,369.8,207.7z"/>
	<path class="st16" d="M366.9,207.2h-1.1v-1.7h1.1c0.2,0,0.3,0.2,0.3,0.4v1C367.2,207,367,207.2,366.9,207.2z"/>
	<path class="st17" d="M365.8,207.2l-0.1-0.1l-0.1-0.1v-1.2c0-0.1,0-0.1,0.1-0.2l0.1-0.1V207.2z"/>
</g>
<g>
	<path class="st18" d="M367.7,212.1l1.8,1c0.3,0.2,0.6-0.1,0.6-0.5v-3.9c0-0.4-0.3-0.6-0.6-0.5l-1.6,0.8c-0.3,0.1-0.5,0.5-0.5,0.8
		v1.7C367.4,211.9,367.5,212,367.7,212.1z"/>
	<path class="st19" d="M366.9,211.7h-1.1V210h1.1c0.2,0,0.3,0.2,0.3,0.4v1C367.2,211.5,367.1,211.7,366.9,211.7z"/>
	<path class="st20" d="M365.8,211.6l-0.1-0.1l-0.1-0.1v-1.2c0-0.1,0-0.1,0.1-0.2l0.1-0.1V211.6z"/>
</g>
<g>
	<path class="st15" d="M363.5,207.4l-1.8,1c-0.3,0.2-0.6-0.1-0.6-0.5V204c0-0.4,0.3-0.6,0.6-0.5l1.6,0.8c0.3,0.1,0.5,0.5,0.5,0.8
		v1.7C363.8,207.1,363.7,207.3,363.5,207.4z"/>
	<path class="st16" d="M360.6,206.9h-1.1v-1.7h1.1c0.2,0,0.3,0.2,0.3,0.4v1C360.9,206.7,360.8,206.9,360.6,206.9z"/>
	<path class="st17" d="M359.5,206.9l-0.1-0.1l-0.1-0.1v-1.2c0-0.1,0-0.1,0.1-0.2l0.1-0.1V206.9z"/>
</g>
<g>
	<path class="st18" d="M361.4,211.8l1.8,1c0.3,0.2,0.6-0.1,0.6-0.5v-3.9c0-0.4-0.3-0.6-0.6-0.5l-1.6,0.8c-0.3,0.1-0.5,0.5-0.5,0.8
		v1.7C361.2,211.5,361.3,211.7,361.4,211.8z"/>
	<path class="st19" d="M360.7,211.3h-1.1v-1.7h1.1c0.2,0,0.3,0.2,0.3,0.4v1C361,211.2,360.8,211.3,360.7,211.3z"/>
	<path class="st20" d="M359.6,211.3l-0.1-0.1l-0.1-0.1v-1.2c0-0.1,0-0.1,0.1-0.2l0.1-0.1V211.3z"/>
</g>
<g>
	<path class="st15" d="M355,207.5l-1.8,1c-0.3,0.2-0.6-0.1-0.6-0.5v-3.9c0-0.4,0.3-0.6,0.6-0.5l1.6,0.8c0.3,0.1,0.5,0.5,0.5,0.8v1.7
		C355.2,207.2,355.1,207.4,355,207.5z"/>
	<path class="st16" d="M352.1,207H351v-1.7h1.1c0.2,0,0.3,0.2,0.3,0.4v1C352.4,206.8,352.2,207,352.1,207z"/>
	<path class="st17" d="M351,207l-0.1-0.1l-0.1-0.1v-1.2c0-0.1,0-0.1,0.1-0.2l0.1-0.1V207z"/>
</g>
<g>
	<path class="st18" d="M352.9,211.9l1.8,1c0.3,0.2,0.6-0.1,0.6-0.5v-3.9c0-0.4-0.3-0.6-0.6-0.5l-1.6,0.8c-0.3,0.1-0.5,0.5-0.5,0.8
		v1.7C352.6,211.6,352.7,211.8,352.9,211.9z"/>
	<path class="st19" d="M352.1,211.4H351v-1.7h1.1c0.2,0,0.3,0.2,0.3,0.4v1C352.4,211.3,352.3,211.4,352.1,211.4z"/>
	<path class="st20" d="M351,211.4l-0.1-0.1l-0.1-0.1V210c0-0.1,0-0.1,0.1-0.2l0.1-0.1V211.4z"/>
</g>
<g>
	<path class="st18" d="M354,188.9l1.8,1c0.3,0.2,0.6-0.1,0.6-0.5v-3.9c0-0.4-0.3-0.6-0.6-0.5l-1.6,0.8c-0.3,0.1-0.5,0.5-0.5,0.8v1.7
		C353.7,188.7,353.8,188.9,354,188.9z"/>
	<path class="st19" d="M353.2,188.5h-1.1v-1.7h1.1c0.2,0,0.3,0.2,0.3,0.4v1C353.5,188.3,353.4,188.5,353.2,188.5z"/>
	<path class="st20" d="M352.1,188.5l-0.1-0.1l-0.1-0.1v-1.2c0-0.1,0-0.1,0.1-0.2l0.1-0.1V188.5z"/>
</g>
<g>
	<path class="st18" d="M360.4,189.2l1.8,1c0.3,0.2,0.6-0.1,0.6-0.5v-3.9c0-0.4-0.3-0.6-0.6-0.5l-1.6,0.8c-0.3,0.1-0.5,0.5-0.5,0.8
		v1.7C360.1,188.9,360.2,189.1,360.4,189.2z"/>
	<path class="st19" d="M359.6,188.7h-1.1V187h1.1c0.2,0,0.3,0.2,0.3,0.4v1C359.9,188.6,359.8,188.7,359.6,188.7z"/>
	<path class="st20" d="M358.5,188.7l-0.1-0.1l-0.1-0.1v-1.2c0-0.1,0-0.1,0.1-0.2l0.1-0.1V188.7z"/>
</g>
<g>
	<path class="st18" d="M366.8,189.5l1.8,1c0.3,0.2,0.6-0.1,0.6-0.5v-3.9c0-0.4-0.3-0.6-0.6-0.5l-1.6,0.8c-0.3,0.1-0.5,0.5-0.5,0.8
		v1.7C366.6,189.2,366.6,189.4,366.8,189.5z"/>
	<path class="st19" d="M366.1,189H365v-1.7h1.1c0.2,0,0.3,0.2,0.3,0.4v1C366.4,188.8,366.2,189,366.1,189z"/>
	<path class="st20" d="M365,189l-0.1-0.1l-0.1-0.1v-1.2c0-0.1,0-0.1,0.1-0.2l0.1-0.1V189z"/>
</g>
<g>
	<path class="st15" d="M375.3,175.5l-1.8,1c-0.3,0.2-0.6-0.1-0.6-0.5v-3.9c0-0.4,0.3-0.6,0.6-0.5l1.6,0.8c0.3,0.1,0.5,0.5,0.5,0.8
		v1.7C375.5,175.2,375.4,175.4,375.3,175.5z"/>
	<path class="st16" d="M372.4,175h-1.1v-1.7h1.1c0.2,0,0.3,0.2,0.3,0.4v1C372.7,174.9,372.5,175,372.4,175z"/>
	<path class="st17" d="M371.3,175l-0.1-0.1l-0.1-0.1v-1.2c0-0.1,0-0.1,0.1-0.2l0.1-0.1V175z"/>
</g>
<g>
	<path class="st18" d="M373.2,180l1.8,1c0.3,0.2,0.6-0.1,0.6-0.5v-3.9c0-0.4-0.3-0.6-0.6-0.5l-1.6,0.8c-0.3,0.1-0.5,0.5-0.5,0.8v1.7
		C372.9,179.7,373,179.9,373.2,180z"/>
	<path class="st19" d="M372.4,179.5h-1.1v-1.7h1.1c0.2,0,0.3,0.2,0.3,0.4v1C372.7,179.3,372.6,179.5,372.4,179.5z"/>
	<path class="st20" d="M371.4,179.5l-0.1-0.1l-0.1-0.1v-1.2c0-0.1,0-0.1,0.1-0.2l0.1-0.1V179.5z"/>
</g>
<g>
	<path class="st15" d="M375.3,184.3l-1.8,1c-0.3,0.2-0.6-0.1-0.6-0.5V181c0-0.4,0.3-0.6,0.6-0.5l1.6,0.8c0.3,0.1,0.5,0.5,0.5,0.8
		v1.7C375.6,184,375.5,184.2,375.3,184.3z"/>
	<path class="st16" d="M372.4,183.8h-1.1v-1.7h1.1c0.2,0,0.3,0.2,0.3,0.4v1C372.7,183.7,372.6,183.8,372.4,183.8z"/>
	<path class="st17" d="M371.3,183.8l-0.1-0.1l-0.1-0.1v-1.2c0-0.1,0-0.1,0.1-0.2l0.1-0.1V183.8z"/>
</g>
<g>
	<path class="st18" d="M373.3,189.5l1.8,1c0.3,0.2,0.6-0.1,0.6-0.5v-3.9c0-0.4-0.3-0.6-0.6-0.5l-1.6,0.8c-0.3,0.1-0.5,0.5-0.5,0.8
		v1.7C373,189.2,373.1,189.4,373.3,189.5z"/>
	<path class="st19" d="M372.5,189h-1.1v-1.7h1.1c0.2,0,0.3,0.2,0.3,0.4v1C372.8,188.8,372.7,189,372.5,189z"/>
	<path class="st20" d="M371.4,189l-0.1-0.1l-0.1-0.1v-1.2c0-0.1,0-0.1,0.1-0.2l0.1-0.1V189z"/>
</g>
<g>
	<path class="st15" d="M381.4,175.1l-1.8,1c-0.3,0.2-0.6-0.1-0.6-0.5v-3.9c0-0.4,0.3-0.6,0.6-0.5l1.6,0.8c0.3,0.1,0.5,0.5,0.5,0.8
		v1.7C381.7,174.9,381.6,175,381.4,175.1z"/>
	<path class="st16" d="M378.5,174.7h-1.1V173h1.1c0.2,0,0.3,0.2,0.3,0.4v1C378.8,174.5,378.7,174.7,378.5,174.7z"/>
	<path class="st17" d="M377.4,174.6l-0.1-0.1l-0.1-0.1v-1.2c0-0.1,0-0.1,0.1-0.2l0.1-0.1V174.6z"/>
</g>
<g>
	<path class="st18" d="M379.3,179.6l1.8,1c0.3,0.2,0.6-0.1,0.6-0.5v-3.9c0-0.4-0.3-0.6-0.6-0.5l-1.6,0.8c-0.3,0.1-0.5,0.5-0.5,0.8
		v1.7C379.1,179.3,379.2,179.5,379.3,179.6z"/>
	<path class="st19" d="M378.6,179.1h-1.1v-1.7h1.1c0.2,0,0.3,0.2,0.3,0.4v1C378.9,179,378.7,179.1,378.6,179.1z"/>
	<path class="st20" d="M377.5,179.1l-0.1-0.1l-0.1-0.1v-1.2c0-0.1,0-0.1,0.1-0.2l0.1-0.1V179.1z"/>
</g>
<g>
	<path class="st15" d="M381.4,183.9l-1.8,1c-0.3,0.2-0.6-0.1-0.6-0.5v-3.9c0-0.4,0.3-0.6,0.6-0.5l1.6,0.8c0.3,0.1,0.5,0.5,0.5,0.8
		v1.7C381.7,183.7,381.6,183.8,381.4,183.9z"/>
	<path class="st16" d="M378.5,183.5h-1.1v-1.7h1.1c0.2,0,0.3,0.2,0.3,0.4v1C378.8,183.3,378.7,183.5,378.5,183.5z"/>
	<path class="st17" d="M377.4,183.4l-0.1-0.1l-0.1-0.1V182c0-0.1,0-0.1,0.1-0.2l0.1-0.1V183.4z"/>
</g>
<g>
	<path class="st18" d="M379.4,189.1l1.8,1c0.3,0.2,0.6-0.1,0.6-0.5v-3.9c0-0.4-0.3-0.6-0.6-0.5l-1.6,0.8c-0.3,0.1-0.5,0.5-0.5,0.8
		v1.7C379.1,188.8,379.2,189,379.4,189.1z"/>
	<path class="st19" d="M378.6,188.6h-1.1v-1.7h1.1c0.2,0,0.3,0.2,0.3,0.4v1C379,188.5,378.8,188.6,378.6,188.6z"/>
	<path class="st20" d="M377.6,188.6l-0.1-0.1l-0.1-0.1v-1.2c0-0.1,0-0.1,0.1-0.2l0.1-0.1V188.6z"/>
</g>
<g>
	<path class="st15" d="M376.3,207.5l-1.8,1c-0.3,0.2-0.6-0.1-0.6-0.5v-3.9c0-0.4,0.3-0.6,0.6-0.5l1.6,0.8c0.3,0.1,0.5,0.5,0.5,0.8
		v1.7C376.5,207.2,376.4,207.4,376.3,207.5z"/>
	<path class="st16" d="M373.4,207h-1.1v-1.7h1.1c0.2,0,0.3,0.2,0.3,0.4v1C373.7,206.8,373.5,207,373.4,207z"/>
	<path class="st17" d="M372.3,207l-0.1-0.1l-0.1-0.1v-1.2c0-0.1,0-0.1,0.1-0.2l0.1-0.1V207z"/>
</g>
<g>
	<path class="st18" d="M374.2,211.9l1.8,1c0.3,0.2,0.6-0.1,0.6-0.5v-3.9c0-0.4-0.3-0.6-0.6-0.5l-1.6,0.8c-0.3,0.1-0.5,0.5-0.5,0.8
		v1.7C373.9,211.6,374,211.8,374.2,211.9z"/>
	<path class="st19" d="M373.4,211.4h-1.1v-1.7h1.1c0.2,0,0.3,0.2,0.3,0.4v1C373.7,211.3,373.6,211.4,373.4,211.4z"/>
	<path class="st20" d="M372.3,211.4l-0.1-0.1l-0.1-0.1V210c0-0.1,0-0.1,0.1-0.2l0.1-0.1V211.4z"/>
</g>
<g>
	<path class="st18" d="M352.9,203l1.8,1c0.3,0.2,0.6-0.1,0.6-0.5v-3.9c0-0.4-0.3-0.6-0.6-0.5l-1.6,0.8c-0.3,0.1-0.5,0.5-0.5,0.8v1.7
		C352.7,202.7,352.8,202.9,352.9,203z"/>
	<path class="st19" d="M352.2,202.5h-1.1v-1.7h1.1c0.2,0,0.3,0.2,0.3,0.4v1C352.5,202.3,352.3,202.5,352.2,202.5z"/>
	<path class="st20" d="M351.1,202.5l-0.1-0.1l-0.1-0.1v-1.2c0-0.1,0-0.1,0.1-0.2l0.1-0.1V202.5z"/>
</g>
<g>
	<path class="st18" d="M361.6,203.3l1.8,1c0.3,0.2,0.6-0.1,0.6-0.5V200c0-0.4-0.3-0.6-0.6-0.5l-1.6,0.8c-0.3,0.1-0.5,0.5-0.5,0.8
		v1.7C361.3,203.1,361.4,203.3,361.6,203.3z"/>
	<path class="st19" d="M360.8,202.9h-1.1v-1.7h1.1c0.2,0,0.3,0.2,0.3,0.4v1C361.2,202.7,361,202.9,360.8,202.9z"/>
	<path class="st20" d="M359.8,202.9l-0.1-0.1l-0.1-0.1v-1.2c0-0.1,0-0.1,0.1-0.2l0.1-0.1V202.9z"/>
</g>
<g>
	<path class="st18" d="M367.7,203.3l1.8,1c0.3,0.2,0.6-0.1,0.6-0.5V200c0-0.4-0.3-0.6-0.6-0.5l-1.6,0.8c-0.3,0.1-0.5,0.5-0.5,0.8
		v1.7C367.5,203.1,367.6,203.3,367.7,203.3z"/>
	<path class="st19" d="M367,202.9h-1.1v-1.7h1.1c0.2,0,0.3,0.2,0.3,0.4v1C367.3,202.7,367.1,202.9,367,202.9z"/>
	<path class="st20" d="M365.9,202.9l-0.1-0.1l-0.1-0.1v-1.2c0-0.1,0-0.1,0.1-0.2l0.1-0.1V202.9z"/>
</g>
<g>
	<path class="st18" d="M374.2,203.1l1.8,1c0.3,0.2,0.6-0.1,0.6-0.5v-3.9c0-0.4-0.3-0.6-0.6-0.5l-1.6,0.8c-0.3,0.1-0.5,0.5-0.5,0.8
		v1.7C374,202.8,374.1,203,374.2,203.1z"/>
	<path class="st19" d="M373.5,202.6h-1.1v-1.7h1.1c0.2,0,0.3,0.2,0.3,0.4v1C373.8,202.5,373.7,202.6,373.5,202.6z"/>
	<path class="st20" d="M372.4,202.6l-0.1-0.1l-0.1-0.1v-1.2c0-0.1,0-0.1,0.1-0.2l0.1-0.1V202.6z"/>
</g>
<g>
	<path class="st11" d="M437.2,194.8h1.4v-2.5h-1.4c-0.2,0-0.4,0.2-0.4,0.5v1.4C436.8,194.6,437,194.8,437.2,194.8z"/>
	<path class="st12" d="M438.6,194.8l0.2-0.1c0.1,0,0.1-0.1,0.1-0.2v-1.7c0-0.1,0-0.2-0.1-0.3l-0.1-0.1
		C438.6,192.3,438.6,194.8,438.6,194.8z"/>
	<path class="st13" d="M437.3,194.6h0.8c0.2,0,0.4-0.2,0.4-0.5v-1c0-0.3-0.2-0.5-0.4-0.5h-0.8c-0.2,0-0.4,0.2-0.4,0.5v1
		C437,194.4,437.1,194.6,437.3,194.6z"/>
	<rect x="431.9" y="189.1" class="st14" width="4.1" height="9.2"/>
</g>
<g>
	<path class="st15" d="M414.3,175.7l-1.8,1c-0.3,0.2-0.6-0.1-0.6-0.5v-3.9c0-0.4,0.3-0.6,0.6-0.5l1.6,0.8c0.3,0.1,0.5,0.5,0.5,0.8
		v1.7C414.5,175.4,414.4,175.6,414.3,175.7z"/>
	<path class="st16" d="M411.4,175.2h-1.1v-1.7h1.1c0.2,0,0.3,0.2,0.3,0.4v1C411.7,175,411.5,175.2,411.4,175.2z"/>
	<path class="st17" d="M410.3,175.2l-0.1-0.1l-0.1-0.1v-1.2c0-0.1,0-0.1,0.1-0.2l0.1-0.1V175.2z"/>
</g>
<g>
	<path class="st18" d="M412.2,180.1l1.8,1c0.3,0.2,0.6-0.1,0.6-0.5v-3.9c0-0.4-0.3-0.6-0.6-0.5l-1.6,0.8c-0.3,0.1-0.5,0.5-0.5,0.8
		v1.7C411.9,179.8,412,180,412.2,180.1z"/>
	<path class="st19" d="M411.4,179.6h-1.1V178h1.1c0.2,0,0.3,0.2,0.3,0.4v1C411.7,179.5,411.6,179.6,411.4,179.6z"/>
	<path class="st20" d="M410.3,179.6l-0.1-0.1l-0.1-0.1v-1.2c0-0.1,0-0.1,0.1-0.2l0.1-0.1V179.6z"/>
</g>
<g>
	<path class="st15" d="M414.3,184.5l-1.8,1c-0.3,0.2-0.6-0.1-0.6-0.5v-3.9c0-0.4,0.3-0.6,0.6-0.5l1.6,0.8c0.3,0.1,0.5,0.5,0.5,0.8
		v1.7C414.5,184.2,414.4,184.4,414.3,184.5z"/>
	<path class="st16" d="M411.4,184h-1.1v-1.7h1.1c0.2,0,0.3,0.2,0.3,0.4v1C411.7,183.8,411.6,184,411.4,184z"/>
	<path class="st17" d="M410.3,184l-0.1-0.1l-0.1-0.1v-1.2c0-0.1,0-0.1,0.1-0.2l0.1-0.1V184z"/>
</g>
<g>
	<path class="st15" d="M407.9,175.7l-1.8,1c-0.3,0.2-0.6-0.1-0.6-0.5v-3.9c0-0.4,0.3-0.6,0.6-0.5l1.6,0.8c0.3,0.1,0.5,0.5,0.5,0.8
		v1.7C408.2,175.5,408.1,175.7,407.9,175.7z"/>
	<path class="st16" d="M405,175.3h-1v-1.7h1.1c0.2,0,0.3,0.2,0.3,0.4v1C405.3,175.1,405.2,175.3,405,175.3z"/>
	<path class="st17" d="M403.9,175.3l-0.1-0.1l-0.1-0.1v-1.2c0-0.1,0-0.1,0.1-0.2l0.1-0.1V175.3z"/>
</g>
<g>
	<path class="st18" d="M405.8,180.2l1.8,1c0.3,0.2,0.6-0.1,0.6-0.5v-3.9c0-0.4-0.3-0.6-0.6-0.5l-1.6,0.8c-0.3,0.1-0.5,0.5-0.5,0.8
		v1.7C405.6,179.9,405.7,180.1,405.8,180.2z"/>
	<path class="st19" d="M405.1,179.7H404V178h1.1c0.2,0,0.3,0.2,0.3,0.4v1C405.4,179.6,405.3,179.7,405.1,179.7z"/>
	<path class="st20" d="M404,179.7l-0.1-0.1l-0.1-0.1v-1.2c0-0.1,0-0.1,0.1-0.2l0.1-0.1V179.7z"/>
</g>
<g>
	<path class="st15" d="M408,184.5l-1.8,1c-0.3,0.2-0.6-0.1-0.6-0.5v-3.9c0-0.4,0.3-0.6,0.6-0.5l1.6,0.8c0.3,0.1,0.5,0.5,0.5,0.8v1.7
		C408.2,184.3,408.1,184.5,408,184.5z"/>
	<path class="st16" d="M405.1,184.1H404v-1.7h1.1c0.2,0,0.3,0.2,0.3,0.4v1C405.4,183.9,405.2,184.1,405.1,184.1z"/>
	<path class="st17" d="M404,184.1l-0.1-0.1l-0.1-0.1v-1.2c0-0.1,0-0.1,0.1-0.2l0.1-0.1V184.1z"/>
</g>
<g>
	<path class="st15" d="M401.3,175.7l-1.8,1c-0.3,0.2-0.6-0.1-0.6-0.5v-3.9c0-0.4,0.3-0.6,0.6-0.5l1.6,0.8c0.3,0.1,0.5,0.5,0.5,0.8
		v1.7C401.5,175.4,401.4,175.6,401.3,175.7z"/>
	<path class="st16" d="M398.4,175.2h-1.1v-1.7h1.1c0.2,0,0.3,0.2,0.3,0.4v1C398.7,175.1,398.6,175.2,398.4,175.2z"/>
	<path class="st17" d="M397.3,175.2l-0.1-0.1l-0.1-0.1v-1.2c0-0.1,0-0.1,0.1-0.2l0.1-0.1V175.2z"/>
</g>
<g>
	<path class="st18" d="M399.2,180.2l1.8,1c0.3,0.2,0.6-0.1,0.6-0.5v-3.9c0-0.4-0.3-0.6-0.6-0.5l-1.6,0.8c-0.3,0.1-0.5,0.5-0.5,0.8
		v1.7C398.9,179.9,399,180.1,399.2,180.2z"/>
	<path class="st19" d="M398.4,179.7h-1.1V178h1.1c0.2,0,0.3,0.2,0.3,0.4v1C398.8,179.5,398.6,179.7,398.4,179.7z"/>
	<path class="st20" d="M397.4,179.7l-0.1-0.1l-0.1-0.1v-1.2c0-0.1,0-0.1,0.1-0.2l0.1-0.1V179.7z"/>
</g>
<g>
	<path class="st15" d="M401.3,184.5l-1.8,1c-0.3,0.2-0.6-0.1-0.6-0.5v-3.9c0-0.4,0.3-0.6,0.6-0.5l1.6,0.8c0.3,0.1,0.5,0.5,0.5,0.8
		v1.7C401.6,184.2,401.5,184.4,401.3,184.5z"/>
	<path class="st16" d="M398.4,184h-1.1v-1.7h1.1c0.2,0,0.3,0.2,0.3,0.4v1C398.7,183.9,398.6,184,398.4,184z"/>
	<path class="st17" d="M397.3,184l-0.1-0.1l-0.1-0.1v-1.2c0-0.1,0-0.1,0.1-0.2l0.1-0.1V184z"/>
</g>
<g>
	<path class="st15" d="M415.2,207.8l-1.8,1c-0.3,0.2-0.6-0.1-0.6-0.5v-3.9c0-0.4,0.3-0.6,0.6-0.5l1.6,0.8c0.3,0.1,0.5,0.5,0.5,0.8
		v1.7C415.5,207.5,415.4,207.7,415.2,207.8z"/>
	<path class="st16" d="M412.3,207.4h-1.1v-1.7h1.1c0.2,0,0.3,0.2,0.3,0.4v1C412.6,207.2,412.5,207.4,412.3,207.4z"/>
	<path class="st17" d="M411.2,207.3l-0.1-0.1l-0.1-0.1v-1.2c0-0.1,0-0.1,0.1-0.2l0.1-0.1V207.3z"/>
</g>
<g>
	<path class="st18" d="M413.1,212.3l1.8,1c0.3,0.2,0.6-0.1,0.6-0.5V209c0-0.4-0.3-0.6-0.6-0.5l-1.6,0.8c-0.3,0.1-0.5,0.5-0.5,0.8
		v1.7C412.9,212,413,212.2,413.1,212.3z"/>
	<path class="st19" d="M412.4,211.8h-1.1v-1.7h1.1c0.2,0,0.3,0.2,0.3,0.4v1C412.7,211.6,412.5,211.8,412.4,211.8z"/>
	<path class="st20" d="M411.3,211.8l-0.1-0.1l-0.1-0.1v-1.2c0-0.1,0-0.1,0.1-0.2l0.1-0.1V211.8z"/>
</g>
<g>
	<path class="st15" d="M409,207.5l-1.8,1c-0.3,0.2-0.6-0.1-0.6-0.5v-3.9c0-0.4,0.3-0.6,0.6-0.5l1.6,0.8c0.3,0.1,0.5,0.5,0.5,0.8v1.7
		C409.2,207.2,409.1,207.4,409,207.5z"/>
	<path class="st16" d="M406,207h-1v-1.7h1.1c0.2,0,0.3,0.2,0.3,0.4v1C406.3,206.9,406.2,207,406,207z"/>
	<path class="st17" d="M405,207l-0.1-0.1l-0.1-0.1v-1.2c0-0.1,0-0.1,0.1-0.2l0.1-0.1V207z"/>
</g>
<g>
	<path class="st18" d="M406.9,212l1.8,1c0.3,0.2,0.6-0.1,0.6-0.5v-3.9c0-0.4-0.3-0.6-0.6-0.5l-1.6,0.8c-0.3,0.1-0.5,0.5-0.5,0.8v1.7
		C406.6,211.7,406.7,211.9,406.9,212z"/>
	<path class="st19" d="M406.1,211.5H405v-1.7h1.1c0.2,0,0.3,0.2,0.3,0.4v1C406.4,211.3,406.3,211.5,406.1,211.5z"/>
	<path class="st20" d="M405,211.5l-0.1-0.1l-0.1-0.1v-1.2c0-0.1,0-0.1,0.1-0.2l0.1-0.1V211.5z"/>
</g>
<g>
	<path class="st15" d="M400.4,207.6l-1.8,1c-0.3,0.2-0.6-0.1-0.6-0.5v-3.9c0-0.4,0.3-0.6,0.6-0.5l1.6,0.8c0.3,0.1,0.5,0.5,0.5,0.8
		v1.7C400.7,207.3,400.6,207.5,400.4,207.6z"/>
	<path class="st16" d="M397.5,207.1h-1.1v-1.7h1.1c0.2,0,0.3,0.2,0.3,0.4v1C397.8,207,397.7,207.1,397.5,207.1z"/>
	<path class="st17" d="M396.4,207.1l-0.1-0.1l-0.1-0.1v-1.2c0-0.1,0-0.1,0.1-0.2l0.1-0.1V207.1z"/>
</g>
<g>
	<path class="st18" d="M398.3,212l1.8,1c0.3,0.2,0.6-0.1,0.6-0.5v-3.9c0-0.4-0.3-0.6-0.6-0.5l-1.6,0.8c-0.3,0.1-0.5,0.5-0.5,0.8v1.7
		C398.1,211.8,398.2,212,398.3,212z"/>
	<path class="st19" d="M397.6,211.6h-1.1v-1.7h1.1c0.2,0,0.3,0.2,0.3,0.4v1C397.9,211.4,397.8,211.6,397.6,211.6z"/>
	<path class="st20" d="M396.5,211.6l-0.1-0.1l-0.1-0.1v-1.2c0-0.1,0-0.1,0.1-0.2l0.1-0.1V211.6z"/>
</g>
<g>
	<path class="st15" d="M420.7,175.7l-1.8,1c-0.3,0.2-0.6-0.1-0.6-0.5v-3.9c0-0.4,0.3-0.6,0.6-0.5l1.6,0.8c0.3,0.1,0.5,0.5,0.5,0.8
		v1.7C421,175.4,420.9,175.6,420.7,175.7z"/>
	<path class="st16" d="M417.8,175.2h-1.1v-1.7h1.1c0.2,0,0.3,0.2,0.3,0.4v1C418.1,175,418,175.2,417.8,175.2z"/>
	<path class="st17" d="M416.7,175.2l-0.1-0.1l-0.1-0.1v-1.2c0-0.1,0-0.1,0.1-0.2l0.1-0.1V175.2z"/>
</g>
<g>
	<path class="st18" d="M418.6,180.1l1.8,1c0.3,0.2,0.6-0.1,0.6-0.5v-3.9c0-0.4-0.3-0.6-0.6-0.5l-1.6,0.8c-0.3,0.1-0.5,0.5-0.5,0.8
		v1.7C418.4,179.8,418.5,180,418.6,180.1z"/>
	<path class="st19" d="M417.9,179.6h-1.1V178h1.1c0.2,0,0.3,0.2,0.3,0.4v1C418.2,179.5,418.1,179.6,417.9,179.6z"/>
	<path class="st20" d="M416.8,179.6l-0.1-0.1l-0.1-0.1v-1.2c0-0.1,0-0.1,0.1-0.2l0.1-0.1V179.6z"/>
</g>
<g>
	<path class="st15" d="M420.8,184.5l-1.8,1c-0.3,0.2-0.6-0.1-0.6-0.5v-3.9c0-0.4,0.3-0.6,0.6-0.5l1.6,0.8c0.3,0.1,0.5,0.5,0.5,0.8
		v1.7C421,184.2,420.9,184.4,420.8,184.5z"/>
	<path class="st16" d="M417.9,184h-1.1v-1.7h1.1c0.2,0,0.3,0.2,0.3,0.4v1C418.2,183.8,418,184,417.9,184z"/>
	<path class="st17" d="M416.8,184l-0.1-0.1l-0.1-0.1v-1.2c0-0.1,0-0.1,0.1-0.2l0.1-0.1V184z"/>
</g>
<g>
	<path class="st15" d="M426.9,175.3l-1.8,1c-0.3,0.2-0.6-0.1-0.6-0.5V172c0-0.4,0.3-0.6,0.6-0.5l1.6,0.8c0.3,0.1,0.5,0.5,0.5,0.8
		v1.7C427.1,175,427,175.2,426.9,175.3z"/>
	<path class="st16" d="M424,174.8h-1.1v-1.7h1.1c0.2,0,0.3,0.2,0.3,0.4v1C424.3,174.6,424.1,174.8,424,174.8z"/>
	<path class="st17" d="M422.9,174.8l-0.1-0.1l-0.1-0.1v-1.2c0-0.1,0-0.1,0.1-0.2l0.1-0.1V174.8z"/>
</g>
<g>
	<path class="st18" d="M424.8,179.7l1.8,1c0.3,0.2,0.6-0.1,0.6-0.5v-3.9c0-0.4-0.3-0.6-0.6-0.5l-1.6,0.8c-0.3,0.1-0.5,0.5-0.5,0.8
		v1.7C424.5,179.5,424.6,179.6,424.8,179.7z"/>
	<path class="st19" d="M424,179.3h-1v-1.7h1.1c0.2,0,0.3,0.2,0.3,0.4v1C424.3,179.1,424.2,179.3,424,179.3z"/>
	<path class="st20" d="M422.9,179.2l-0.1-0.1l-0.1-0.1v-1.2c0-0.1,0-0.1,0.1-0.2l0.1-0.1V179.2z"/>
</g>
<g>
	<path class="st15" d="M426.9,184.1l-1.8,1c-0.3,0.2-0.6-0.1-0.6-0.5v-3.9c0-0.4,0.3-0.6,0.6-0.5l1.6,0.8c0.3,0.1,0.5,0.5,0.5,0.8
		v1.7C427.1,183.8,427,184,426.9,184.1z"/>
	<path class="st16" d="M424,183.6h-1.1v-1.7h1.1c0.2,0,0.3,0.2,0.3,0.4v1C424.3,183.4,424.2,183.6,424,183.6z"/>
	<path class="st17" d="M422.9,183.6l-0.1-0.1l-0.1-0.1v-1.2c0-0.1,0-0.1,0.1-0.2l0.1-0.1V183.6z"/>
</g>
<g>
	<path class="st15" d="M421.7,207.6l-1.8,1c-0.3,0.2-0.6-0.1-0.6-0.5v-3.9c0-0.4,0.3-0.6,0.6-0.5l1.6,0.8c0.3,0.1,0.5,0.5,0.5,0.8
		v1.7C422,207.3,421.9,207.5,421.7,207.6z"/>
	<path class="st16" d="M418.8,207.1h-1.1v-1.7h1.1c0.2,0,0.3,0.2,0.3,0.4v1C419.1,207,419,207.1,418.8,207.1z"/>
	<path class="st17" d="M417.7,207.1l-0.1-0.1l-0.1-0.1v-1.2c0-0.1,0-0.1,0.1-0.2l0.1-0.1V207.1z"/>
</g>
<g>
	<path class="st18" d="M419.6,212.1l1.8,1c0.3,0.2,0.6-0.1,0.6-0.5v-3.9c0-0.4-0.3-0.6-0.6-0.5l-1.6,0.8c-0.3,0.1-0.5,0.5-0.5,0.8
		v1.7C419.4,211.8,419.5,212,419.6,212.1z"/>
	<path class="st19" d="M418.9,211.6h-1.1v-1.7h1.1c0.2,0,0.3,0.2,0.3,0.4v1C419.2,211.4,419.1,211.6,418.9,211.6z"/>
	<path class="st20" d="M417.8,211.6l-0.1-0.1l-0.1-0.1v-1.2c0-0.1,0-0.1,0.1-0.2l0.1-0.1V211.6z"/>
</g>
<g>
	<path class="st18" d="M398.4,203.1l1.8,1c0.3,0.2,0.6-0.1,0.6-0.5v-3.9c0-0.4-0.3-0.6-0.6-0.5l-1.6,0.8c-0.3,0.1-0.5,0.5-0.5,0.8
		v1.7C398.1,202.8,398.2,203,398.4,203.1z"/>
	<path class="st19" d="M397.6,202.6h-1.1V201h1.1c0.2,0,0.3,0.2,0.3,0.4v1C397.9,202.5,397.8,202.6,397.6,202.6z"/>
	<path class="st20" d="M396.5,202.6l-0.1-0.1l-0.1-0.1v-1.2c0-0.1,0-0.1,0.1-0.2l0.1-0.1V202.6z"/>
</g>
<g>
	<path class="st18" d="M407,203.5l1.8,1c0.3,0.2,0.6-0.1,0.6-0.5v-3.9c0-0.4-0.3-0.6-0.6-0.5l-1.6,0.8c-0.3,0.1-0.5,0.5-0.5,0.8v1.7
		C406.8,203.2,406.9,203.4,407,203.5z"/>
	<path class="st19" d="M406.3,203h-1.1v-1.7h1.1c0.2,0,0.3,0.2,0.3,0.4v1C406.6,202.9,406.5,203,406.3,203z"/>
	<path class="st20" d="M405.2,203l-0.1-0.1l-0.1-0.1v-1.2c0-0.1,0-0.1,0.1-0.2l0.1-0.1V203z"/>
</g>
<g>
	<path class="st18" d="M413.2,203.5l1.8,1c0.3,0.2,0.6-0.1,0.6-0.5v-3.9c0-0.4-0.3-0.6-0.6-0.5l-1.6,0.8c-0.3,0.1-0.5,0.5-0.5,0.8
		v1.7C412.9,203.2,413,203.4,413.2,203.5z"/>
	<path class="st19" d="M412.4,203h-1.1v-1.7h1.1c0.2,0,0.3,0.2,0.3,0.4v1C412.7,202.9,412.6,203,412.4,203z"/>
	<path class="st20" d="M411.3,203l-0.1-0.1l-0.1-0.1v-1.2c0-0.1,0-0.1,0.1-0.2l0.1-0.1V203z"/>
</g>
<g>
	<path class="st18" d="M419.7,203.2l1.8,1c0.3,0.2,0.6-0.1,0.6-0.5v-3.9c0-0.4-0.3-0.6-0.6-0.5l-1.6,0.8c-0.3,0.1-0.5,0.5-0.5,0.8
		v1.7C419.4,203,419.5,203.1,419.7,203.2z"/>
	<path class="st19" d="M418.9,202.8h-1.1v-1.7h1.1c0.2,0,0.3,0.2,0.3,0.4v1C419.2,202.6,419.1,202.8,418.9,202.8z"/>
	<path class="st20" d="M417.8,202.7l-0.1-0.1l-0.1-0.1v-1.2c0-0.1,0-0.1,0.1-0.2l0.1-0.1V202.7z"/>
</g>
<line class="st21" x1="485" y1="225" x2="450" y2="225"/>
<g>
	<rect x="92.4" y="154.3" class="st22" width="15.2" height="21.4"/>
	<g>
		<path d="M99.8,159.4c-2,0-3.7,1.7-3.7,3.8c0,0.7,0.2,1.3,0.5,1.9c0.1-0.1,0.2-0.1,0.3-0.1h0.8c0.3,0,0.5,0.2,0.5,0.5h1.6
			c-1,0-1.8-1-1.8-2.3c0-1.2,0.8-2.3,1.8-2.3s1.8,1,1.8,2.3c0,1.2-0.8,2.3-1.8,2.3h1.6c0-0.2,0.2-0.5,0.5-0.5h0.8
			c0.1,0,0.2,0,0.3,0.1c0.3-0.6,0.5-1.2,0.5-1.9C103.5,161.1,101.9,159.4,99.8,159.4z M96.9,165.2c-0.1,0-0.3,0.1-0.3,0.2H98
			c0-0.1-0.1-0.2-0.3-0.2H96.9z M101.9,165.2c-0.1,0-0.3,0.1-0.3,0.2h1.3c0-0.1-0.1-0.2-0.3-0.2H101.9z M96.1,165.7
			c-0.4,0-0.8,0.3-0.8,0.7s0.4,0.7,0.8,0.7h7.4c0.4,0,0.8-0.3,0.8-0.7s-0.4-0.7-0.8-0.7H96.1z M95.9,167.2c0.1,1.3,1.4,2.3,2.9,2.3
			h2.1c1.5,0,2.8-1,2.9-2.3c-0.1,0-0.2,0-0.3,0h-7.4C96,167.3,96,167.2,95.9,167.2z M97.4,169.5c-0.1,0.2-0.2,0.5-0.2,0.9
			c0,0.1,0.1,0.2,0.3,0.2h4.7l0,0c0.1,0,0.3-0.1,0.3-0.2l0,0c0-0.4-0.1-0.7-0.2-0.9c-0.4,0.2-0.9,0.3-1.3,0.3h-2.1
			C98.3,169.7,97.8,169.6,97.4,169.5z"/>
	</g>
</g>
<g>
	<rect x="92.4" y="121.8" class="st22" width="15.2" height="21.4"/>
	<g>
		<path d="M99.8,126.9c-2,0-3.7,1.7-3.7,3.8c0,0.7,0.2,1.3,0.5,1.9c0.1-0.1,0.2-0.1,0.3-0.1h0.8c0.3,0,0.5,0.2,0.5,0.5h1.6
			c-1,0-1.8-1-1.8-2.3s0.8-2.3,1.8-2.3s1.8,1,1.8,2.3s-0.8,2.3-1.8,2.3h1.6c0-0.2,0.2-0.5,0.5-0.5h0.8c0.1,0,0.2,0,0.3,0.1
			c0.3-0.6,0.5-1.2,0.5-1.9C103.5,128.6,101.9,126.9,99.8,126.9z M96.9,132.7c-0.1,0-0.3,0.1-0.3,0.2H98c0-0.1-0.1-0.2-0.3-0.2H96.9
			z M102,132.7c-0.1,0-0.3,0.1-0.3,0.2h1.3c0-0.1-0.1-0.2-0.3-0.2H102z M96.2,133.2c-0.4,0-0.8,0.3-0.8,0.7s0.4,0.7,0.8,0.7h7.4
			c0.4,0,0.8-0.3,0.8-0.7s-0.4-0.7-0.8-0.7H96.2z M95.9,134.7c0.1,1.3,1.4,2.3,2.9,2.3h2.1c1.5,0,2.8-1,2.9-2.3c-0.1,0-0.2,0-0.3,0
			h-7.4C96.1,134.8,96,134.7,95.9,134.7z M97.5,137c-0.1,0.2-0.2,0.5-0.2,0.9c0,0.1,0.1,0.2,0.3,0.2h4.7l0,0c0.1,0,0.3-0.1,0.3-0.2
			l0,0c0-0.4-0.1-0.7-0.2-0.9c-0.4,0.2-0.9,0.3-1.3,0.3H99C98.3,137.2,97.9,137.1,97.5,137z"/>
	</g>
</g>
<g>
	<rect x="453.7" y="193.8" class="st23" width="12.3" height="12.5"/>
	<g>
		<path d="M459.7,196.7c-1.6,0-3,1-3,2.2c0,0.4,0.1,0.8,0.4,1.1c0.1,0,0.2-0.1,0.2-0.1h0.6c0.2,0,0.4,0.1,0.4,0.3h1.3
			c-0.8,0-1.5-0.6-1.5-1.3s0.7-1.3,1.5-1.3s1.5,0.6,1.5,1.3s-0.7,1.3-1.5,1.3h1.3c0-0.1,0.2-0.3,0.4-0.3h0.6c0.1,0,0.2,0,0.2,0.1
			c0.3-0.3,0.4-0.7,0.4-1.1C462.7,197.7,461.4,196.7,459.7,196.7z M457.4,200.1c-0.1,0-0.2,0.1-0.2,0.1h1.1c0-0.1-0.1-0.1-0.2-0.1
			H457.4z M461.4,200.1c-0.1,0-0.2,0.1-0.2,0.1h1.1c0-0.1-0.1-0.1-0.2-0.1H461.4z M456.7,200.4c-0.4,0-0.6,0.2-0.6,0.4
			s0.3,0.4,0.6,0.4h6c0.4,0,0.6-0.2,0.6-0.4s-0.3-0.4-0.6-0.4H456.7z M456.5,201.3c0.1,0.7,1.1,1.3,2.3,1.3h1.7
			c1.2,0,2.2-0.6,2.3-1.3c-0.1,0-0.1,0-0.2,0H456.5C456.7,201.3,456.6,201.3,456.5,201.3z M457.8,202.6c-0.1,0.1-0.2,0.3-0.2,0.5
			c0,0.1,0.1,0.1,0.2,0.1h3.8l0,0c0.1,0,0.2-0.1,0.2-0.1l0,0c0-0.2-0.1-0.4-0.2-0.5c-0.3,0.1-0.7,0.1-1.1,0.1h-1.7
			C458.5,202.8,458.1,202.7,457.8,202.6z"/>
	</g>
</g>
<g>
	<rect x="453.6" y="174.1" class="st23" width="12.3" height="12.5"/>
	<g>
		<path d="M459.6,177c-1.6,0-3,1-3,2.2c0,0.4,0.1,0.8,0.4,1.1c0.1,0,0.2-0.1,0.2-0.1h0.6c0.2,0,0.4,0.1,0.4,0.3h1.3
			c-0.8,0-1.5-0.6-1.5-1.3s0.7-1.3,1.5-1.3s1.5,0.6,1.5,1.3s-0.7,1.3-1.5,1.3h1.3c0-0.1,0.2-0.3,0.4-0.3h0.6c0.1,0,0.2,0,0.2,0.1
			c0.3-0.3,0.4-0.7,0.4-1.1C462.6,178,461.2,177,459.6,177z M457.2,180.4c-0.1,0-0.2,0.1-0.2,0.1h1.1c0-0.1-0.1-0.1-0.2-0.1H457.2z
			 M461.3,180.4c-0.1,0-0.2,0.1-0.2,0.1h1.1c0-0.1-0.1-0.1-0.2-0.1H461.3z M456.6,180.7c-0.4,0-0.6,0.2-0.6,0.4s0.3,0.4,0.6,0.4h6
			c0.4,0,0.6-0.2,0.6-0.4s-0.3-0.4-0.6-0.4H456.6z M456.4,181.6c0.1,0.7,1.1,1.3,2.3,1.3h1.7c1.2,0,2.2-0.6,2.3-1.3
			c-0.1,0-0.1,0-0.2,0H456.4C456.5,181.6,456.4,181.6,456.4,181.6z M457.6,182.9c-0.1,0.1-0.2,0.3-0.2,0.5c0,0.1,0.1,0.1,0.2,0.1
			h3.8l0,0c0.1,0,0.2-0.1,0.2-0.1l0,0c0-0.2-0.1-0.4-0.2-0.5c-0.3,0.1-0.7,0.1-1.1,0.1h-1.7C458.3,183.1,458,183,457.6,182.9z"/>
	</g>
</g>
<line class="st24" x1="80" y1="210" x2="110" y2="210"/>
<line class="st24" x1="110" y1="190" x2="80" y2="190"/>
<line class="st24" x1="480" y1="225" x2="480" y2="240"/>
<line class="st24" x1="475" y1="225" x2="475" y2="240"/>
<line class="st24" x1="470" y1="225" x2="470" y2="240"/>
<line class="st24" x1="465" y1="225" x2="465" y2="240"/>
<line class="st24" x1="460" y1="225" x2="460" y2="240"/>
<line class="st24" x1="455" y1="225" x2="455" y2="240"/>
<line class="st24" x1="455" y1="210" x2="455" y2="225"/>
<line class="st24" x1="460" y1="210" x2="460" y2="225"/>
<line class="st24" x1="465" y1="210" x2="465" y2="225"/>
<line class="st24" x1="470" y1="210" x2="470" y2="225"/>
<line class="st24" x1="475" y1="210" x2="475" y2="225"/>
<line class="st24" x1="480" y1="210" x2="480" y2="225"/>
<line class="st10" x1="285" y1="135" x2="285" y2="160"/>
<line class="st24" x1="85" y1="200" x2="85" y2="220"/>
<line class="st24" x1="85" y1="180" x2="85" y2="200"/>
<line class="st24" x1="90" y1="180" x2="90" y2="200"/>
<line class="st24" x1="90" y1="200" x2="90" y2="220"/>
<line class="st24" x1="95" y1="220" x2="95" y2="180"/>
<line class="st24" x1="100" y1="180" x2="100" y2="220"/>
<line class="st24" x1="105" y1="180" x2="105" y2="220"/>
<line class="st24" x1="270" y1="155" x2="285" y2="155"/>
<line class="st24" x1="270" y1="150" x2="285" y2="150"/>
<line class="st24" x1="270" y1="145" x2="285" y2="145"/>
<line class="st24" x1="270" y1="140" x2="285" y2="140"/>
<line class="st24" x1="270" y1="135" x2="285" y2="135"/>
<line class="st24" x1="300" y1="135" x2="285" y2="135"/>
<line class="st24" x1="300" y1="140" x2="285" y2="140"/>
<line class="st24" x1="300" y1="145" x2="285" y2="145"/>
<line class="st24" x1="300" y1="150" x2="285" y2="150"/>
<line class="st24" x1="300" y1="155" x2="285" y2="155"/>
<line class="st24" x1="285" y1="160" x2="270" y2="160"/>
<line class="st7" x1="300" y1="160" x2="285" y2="160"/>
<g>
	<ellipse class="st25" cx="285" cy="170.6" rx="6.4" ry="6.1"/>
	<g>
		<path d="M280.6,169.1c-0.2,0.1-0.2,0.4,0,0.6c0.2,0.2,0.4,0.2,0.6,0L280.6,169.1z M288.8,169.7c0.2,0.1,0.4,0.1,0.6,0
			c0.2-0.2,0.1-0.4,0-0.6L288.8,169.7z M285,173.5c-0.2,0-0.4,0.2-0.4,0.4c0,0.2,0.2,0.4,0.4,0.4V173.5z M285,174.3
			c0.2,0,0.4-0.2,0.4-0.4c0-0.2-0.2-0.4-0.4-0.4V174.3z M286.1,172.7c0.2,0.1,0.4,0.1,0.6,0c0.2-0.2,0.1-0.4,0-0.6L286.1,172.7z
			 M287.5,171.2c0.2,0.1,0.4,0.1,0.6,0c0.2-0.2,0.1-0.4,0-0.6L287.5,171.2z M283.3,172.1c-0.2,0.1-0.2,0.4,0,0.6
			c0.2,0.2,0.4,0.2,0.6,0L283.3,172.1z M282,170.6c-0.2,0.1-0.2,0.4,0,0.6c0.2,0.2,0.4,0.2,0.6,0L282,170.6z M281.2,169.7
			c1-0.9,2.4-1.4,3.8-1.4v-0.8c-1.7,0-3.2,0.6-4.4,1.6L281.2,169.7z M285,168.3c1.5,0,2.8,0.5,3.8,1.4l0.5-0.6
			c-1.2-1-2.7-1.6-4.4-1.6V168.3z M285,174.3L285,174.3l0-0.8h0V174.3z M285,172.3c0.4,0,0.8,0.2,1.1,0.4l0.6-0.6
			c-0.4-0.4-1-0.6-1.7-0.6V172.3z M285,170.3c1,0,1.8,0.4,2.5,0.9l0.6-0.6c-0.8-0.7-1.9-1.1-3-1.1V170.3z M283.9,172.7
			c0.3-0.3,0.7-0.4,1.1-0.4v-0.8c-0.6,0-1.2,0.2-1.7,0.6L283.9,172.7z M282.5,171.2c0.7-0.6,1.5-0.9,2.5-0.9v-0.8
			c-1.2,0-2.2,0.4-3,1.1L282.5,171.2z"/>
	</g>
</g>
<g>
	<ellipse class="st25" cx="121.4" cy="208.7" rx="6.4" ry="6.1"/>
	<g>
		<path d="M117,207.2c-0.2,0.1-0.2,0.4,0,0.6c0.2,0.2,0.4,0.2,0.6,0L117,207.2z M125.2,207.8c0.2,0.1,0.4,0.1,0.6,0
			c0.2-0.2,0.1-0.4,0-0.6L125.2,207.8z M121.4,211.6c-0.2,0-0.4,0.2-0.4,0.4c0,0.2,0.2,0.4,0.4,0.4V211.6z M121.4,212.4
			c0.2,0,0.4-0.2,0.4-0.4c0-0.2-0.2-0.4-0.4-0.4V212.4z M122.5,210.8c0.2,0.1,0.4,0.1,0.6,0c0.2-0.2,0.1-0.4,0-0.6L122.5,210.8z
			 M123.9,209.3c0.2,0.1,0.4,0.1,0.6,0c0.2-0.2,0.1-0.4,0-0.6L123.9,209.3z M119.7,210.2c-0.2,0.1-0.2,0.4,0,0.6
			c0.2,0.2,0.4,0.2,0.6,0L119.7,210.2z M118.4,208.7c-0.2,0.1-0.2,0.4,0,0.6c0.2,0.2,0.4,0.2,0.6,0L118.4,208.7z M117.6,207.8
			c1-0.9,2.4-1.4,3.8-1.4v-0.8c-1.7,0-3.2,0.6-4.4,1.6L117.6,207.8z M121.4,206.4c1.5,0,2.8,0.5,3.8,1.4l0.5-0.6
			c-1.2-1-2.7-1.6-4.4-1.6V206.4z M121.4,212.4L121.4,212.4l0-0.8h0V212.4z M121.4,210.4c0.4,0,0.8,0.2,1.1,0.4l0.6-0.6
			c-0.4-0.4-1-0.6-1.7-0.6V210.4z M121.4,208.4c1,0,1.8,0.4,2.5,0.9l0.6-0.6c-0.8-0.7-1.9-1.1-3-1.1V208.4z M120.3,210.8
			c0.3-0.3,0.7-0.4,1.1-0.4v-0.8c-0.6,0-1.2,0.2-1.7,0.6L120.3,210.8z M118.9,209.3c0.7-0.6,1.5-0.9,2.5-0.9v-0.8
			c-1.2,0-2.2,0.4-3,1.1L118.9,209.3z"/>
	</g>
</g>
<g>
	<ellipse class="st25" cx="431.9" cy="227.6" rx="6.4" ry="6.1"/>
	<g>
		<path d="M427.5,226.1c-0.2,0.1-0.2,0.4,0,0.6c0.2,0.2,0.4,0.2,0.6,0L427.5,226.1z M435.7,226.7c0.2,0.1,0.4,0.1,0.6,0
			c0.2-0.2,0.1-0.4,0-0.6L435.7,226.7z M431.9,230.4c-0.2,0-0.4,0.2-0.4,0.4c0,0.2,0.2,0.4,0.4,0.4V230.4z M431.9,231.2
			c0.2,0,0.4-0.2,0.4-0.4c0-0.2-0.2-0.4-0.4-0.4V231.2z M433,229.7c0.2,0.1,0.4,0.1,0.6,0c0.2-0.2,0.1-0.4,0-0.6L433,229.7z
			 M434.4,228.2c0.2,0.1,0.4,0.1,0.6,0c0.2-0.2,0.1-0.4,0-0.6L434.4,228.2z M430.2,229.1c-0.2,0.1-0.2,0.4,0,0.6
			c0.2,0.2,0.4,0.2,0.6,0L430.2,229.1z M428.9,227.6c-0.2,0.1-0.2,0.4,0,0.6c0.2,0.2,0.4,0.2,0.6,0L428.9,227.6z M428.1,226.7
			c1-0.9,2.4-1.4,3.8-1.4v-0.8c-1.7,0-3.2,0.6-4.4,1.6L428.1,226.7z M431.9,225.2c1.5,0,2.8,0.5,3.8,1.4l0.5-0.6
			c-1.2-1-2.7-1.6-4.4-1.6V225.2z M431.9,231.2L431.9,231.2l0-0.8h0V231.2z M431.9,229.2c0.4,0,0.8,0.2,1.1,0.4l0.6-0.6
			c-0.4-0.4-1-0.6-1.7-0.6V229.2z M431.9,227.2c1,0,1.8,0.4,2.5,0.9l0.6-0.6c-0.8-0.7-1.9-1.1-3-1.1V227.2z M430.8,229.7
			c0.3-0.3,0.7-0.4,1.1-0.4v-0.8c-0.6,0-1.2,0.2-1.7,0.6L430.8,229.7z M429.4,228.2c0.7-0.6,1.5-0.9,2.5-0.9v-0.8
			c-1.2,0-2.2,0.4-3,1.1L429.4,228.2z"/>
	</g>
</g>
</svg>
