<?xml version="1.0" encoding="utf-8"?>
<!-- Generator: Adobe Illustrator 26.1.0, SVG Export Plug-In . SVG Version: 6.00 Build 0)  -->
<svg version="1.1" id="Layer_1" xmlns="http://www.w3.org/2000/svg" xmlns:xlink="http://www.w3.org/1999/xlink" x="0px" y="0px"
	 viewBox="0 0 700 500" style="enable-background:new 0 0 700 500;" xml:space="preserve">
<style type="text/css">
	.st0{fill:#FFFFFF;}
	.st1{fill:#C9CACC;}
	.st2{fill:#B1B3B6;}
	.st3{fill:#A7A9AC;}
	.st4{fill:#BCBEC0;}
	.st5{fill:#A4A6A8;}
	.st6{fill:none;stroke:#000000;stroke-width:2;stroke-miterlimit:10;}
	.st7{fill:none;stroke:#000000;stroke-miterlimit:10;}
	.st8{fill:none;stroke:#000000;stroke-width:0.3;stroke-miterlimit:10;}
	.st9{fill:none;stroke:#000000;stroke-width:0.7;stroke-miterlimit:10;}
	.st10{fill:#E6E7E8;stroke:#231F20;stroke-width:0.4165;stroke-miterlimit:10;}
	.st11{fill:#C4DC79;stroke:#231F20;stroke-width:0.2246;stroke-miterlimit:10;}
	.st12{fill:none;stroke:#000000;stroke-width:0.4;stroke-miterlimit:10;}
	.st13{fill:none;stroke:#000000;stroke-width:0.5;stroke-miterlimit:10;}
	.st14{fill:none;stroke:#000000;stroke-width:0.6;stroke-miterlimit:10;}
	.st15{fill:#897A6A;stroke:#010101;stroke-width:4.115262e-02;stroke-miterlimit:10;}
	.st16{fill:#968574;stroke:#010101;stroke-width:4.004341e-02;stroke-miterlimit:10;}
	.st17{fill:#5F6062;stroke:#010101;stroke-width:4.004342e-03;stroke-miterlimit:10;}
	.st18{fill:#9A8877;stroke:#010101;stroke-width:4.004341e-02;stroke-miterlimit:10;}
	.st19{fill:#FEDFBF;stroke:#000000;stroke-width:3.091042e-02;stroke-miterlimit:10;}
	.st20{fill:#887969;stroke:#000000;stroke-width:3.430522e-02;stroke-miterlimit:10;}
	.st21{fill:#968574;stroke:#000000;stroke-width:3.338058e-02;stroke-miterlimit:10;}
	.st22{fill:#FEDFBF;stroke:#000000;stroke-width:3.090797e-02;stroke-miterlimit:10;}
	.st23{fill:#887969;stroke:#000000;stroke-width:3.430251e-02;stroke-miterlimit:10;}
	.st24{fill:#968574;stroke:#000000;stroke-width:3.337794e-02;stroke-miterlimit:10;}
	.st25{fill:#897A6A;stroke:#010101;stroke-width:3.550483e-02;stroke-miterlimit:10;}
	.st26{fill:#968574;stroke:#010101;stroke-width:3.454786e-02;stroke-miterlimit:10;}
	.st27{fill:#5F6062;stroke:#010101;stroke-width:3.454786e-03;stroke-miterlimit:10;}
	.st28{fill:#9A8877;stroke:#010101;stroke-width:3.454786e-02;stroke-miterlimit:10;}
	.st29{fill:#FEDFBF;stroke:#000000;stroke-width:2.666827e-02;stroke-miterlimit:10;}
	.st30{fill:#887969;stroke:#000000;stroke-width:2.959717e-02;stroke-miterlimit:10;}
	.st31{fill:#968574;stroke:#000000;stroke-width:2.879943e-02;stroke-miterlimit:10;}
	.st32{fill:#FEDFBF;stroke:#000000;stroke-width:2.666616e-02;stroke-miterlimit:10;}
	.st33{fill:#887969;stroke:#000000;stroke-width:2.959483e-02;stroke-miterlimit:10;}
	.st34{fill:#968574;stroke:#000000;stroke-width:2.879715e-02;stroke-miterlimit:10;}
	.st35{fill:#897A6A;stroke:#010101;stroke-width:3.795142e-02;stroke-miterlimit:10;}
	.st36{fill:#968574;stroke:#010101;stroke-width:3.692850e-02;stroke-miterlimit:10;}
	.st37{fill:#5F6062;stroke:#010101;stroke-width:3.692850e-03;stroke-miterlimit:10;}
	.st38{fill:#9A8877;stroke:#010101;stroke-width:3.692850e-02;stroke-miterlimit:10;}
	.st39{fill:#FEDFBF;stroke:#000000;stroke-width:2.850595e-02;stroke-miterlimit:10;}
	.st40{fill:#887969;stroke:#000000;stroke-width:3.163667e-02;stroke-miterlimit:10;}
	.st41{fill:#968574;stroke:#000000;stroke-width:3.078396e-02;stroke-miterlimit:10;}
	.st42{fill:#FEDFBF;stroke:#000000;stroke-width:2.850369e-02;stroke-miterlimit:10;}
	.st43{fill:#887969;stroke:#000000;stroke-width:3.163417e-02;stroke-miterlimit:10;}
	.st44{fill:#968574;stroke:#000000;stroke-width:3.078152e-02;stroke-miterlimit:10;}
	.st45{fill:#897A6A;stroke:#010101;stroke-width:4.240467e-02;stroke-miterlimit:10;}
	.st46{fill:#968574;stroke:#010101;stroke-width:4.126172e-02;stroke-miterlimit:10;}
	.st47{fill:#5F6062;stroke:#010101;stroke-width:4.126172e-03;stroke-miterlimit:10;}
	.st48{fill:#9A8877;stroke:#010101;stroke-width:4.126172e-02;stroke-miterlimit:10;}
	.st49{fill:#FEDFBF;stroke:#000000;stroke-width:3.185086e-02;stroke-miterlimit:10;}
	.st50{fill:#887969;stroke:#000000;stroke-width:3.534894e-02;stroke-miterlimit:10;}
	.st51{fill:#968574;stroke:#000000;stroke-width:3.439617e-02;stroke-miterlimit:10;}
	.st52{fill:#FEDFBF;stroke:#000000;stroke-width:3.184833e-02;stroke-miterlimit:10;}
	.st53{fill:#887969;stroke:#000000;stroke-width:3.534615e-02;stroke-miterlimit:10;}
	.st54{fill:#968574;stroke:#000000;stroke-width:3.439345e-02;stroke-miterlimit:10;}
	.st55{fill:#897A6A;stroke:#010101;stroke-width:6.010597e-02;stroke-miterlimit:10;}
	.st56{fill:#968574;stroke:#010101;stroke-width:5.848591e-02;stroke-miterlimit:10;}
	.st57{fill:#5F6062;stroke:#010101;stroke-width:5.848591e-03;stroke-miterlimit:10;}
	.st58{fill:#9A8877;stroke:#010101;stroke-width:5.848591e-02;stroke-miterlimit:10;}
	.st59{fill:#FEDFBF;stroke:#000000;stroke-width:4.298704e-02;stroke-miterlimit:10;}
	.st60{fill:#887969;stroke:#000000;stroke-width:4.770818e-02;stroke-miterlimit:10;}
	.st61{fill:#968574;stroke:#000000;stroke-width:4.642228e-02;stroke-miterlimit:10;}
	.st62{fill:#FEDFBF;stroke:#000000;stroke-width:4.298364e-02;stroke-miterlimit:10;}
	.st63{fill:#887969;stroke:#000000;stroke-width:4.770441e-02;stroke-miterlimit:10;}
	.st64{fill:#968574;stroke:#000000;stroke-width:4.641861e-02;stroke-miterlimit:10;}
	.st65{fill:#FEDFBF;stroke:#000000;stroke-width:4.227164e-02;stroke-miterlimit:10;}
	.st66{fill:#887969;stroke:#000000;stroke-width:4.691420e-02;stroke-miterlimit:10;}
	.st67{fill:#968574;stroke:#000000;stroke-width:4.564971e-02;stroke-miterlimit:10;}
	.st68{fill:#FEDFBF;stroke:#000000;stroke-width:4.226829e-02;stroke-miterlimit:10;}
	.st69{fill:#887969;stroke:#000000;stroke-width:4.691050e-02;stroke-miterlimit:10;}
	.st70{fill:#968574;stroke:#000000;stroke-width:4.564610e-02;stroke-miterlimit:10;}
	.st71{fill:#897A6A;stroke:#010101;stroke-width:4.719326e-02;stroke-miterlimit:10;}
	.st72{fill:#968574;stroke:#010101;stroke-width:4.592124e-02;stroke-miterlimit:10;}
	.st73{fill:#5F6062;stroke:#010101;stroke-width:4.592124e-03;stroke-miterlimit:10;}
	.st74{fill:#9A8877;stroke:#010101;stroke-width:4.592124e-02;stroke-miterlimit:10;}
	.st75{fill:#FEDFBF;stroke:#000000;stroke-width:3.544764e-02;stroke-miterlimit:10;}
	.st76{fill:#887969;stroke:#000000;stroke-width:3.934075e-02;stroke-miterlimit:10;}
	.st77{fill:#968574;stroke:#000000;stroke-width:3.828039e-02;stroke-miterlimit:10;}
	.st78{fill:#FEDFBF;stroke:#000000;stroke-width:3.544484e-02;stroke-miterlimit:10;}
	.st79{fill:#887969;stroke:#000000;stroke-width:3.933764e-02;stroke-miterlimit:10;}
	.st80{fill:#968574;stroke:#000000;stroke-width:3.827737e-02;stroke-miterlimit:10;}
</style>
<rect x="270" y="120" class="st0" width="30" height="15"/>
<rect x="270" y="135" class="st1" width="15" height="25"/>
<rect x="285" y="135" class="st2" width="15" height="25"/>
<rect x="450" y="225" class="st3" width="35" height="15"/>
<rect x="450" y="210" class="st3" width="35" height="15"/>
<rect x="80" y="200" class="st4" width="30" height="20"/>
<rect x="80" y="180" class="st5" width="30" height="20"/>
<rect x="110" y="200" class="st0" width="160" height="20"/>
<rect x="110" y="115" class="st0" width="10" height="85"/>
<rect x="90" y="150" class="st0" width="20" height="30"/>
<rect x="90" y="115" class="st0" width="20" height="35"/>
<rect x="120" y="160" class="st0" width="40" height="40"/>
<rect x="160" y="160" class="st0" width="35" height="40"/>
<rect x="195" y="160" class="st0" width="35" height="40"/>
<rect x="230" y="160" class="st0" width="40" height="40"/>
<rect x="270" y="160" class="st0" width="30" height="80"/>
<rect x="300" y="170" class="st0" width="50" height="45"/>
<rect x="350" y="170" class="st0" width="45" height="45"/>
<rect x="395" y="170" class="st0" width="45" height="45"/>
<rect x="440" y="210" class="st0" width="10" height="5"/>
<rect x="440" y="170" class="st0" width="10" height="40"/>
<rect x="450" y="190" class="st0" width="20" height="20"/>
<rect x="450" y="170" class="st0" width="20" height="20"/>
<rect x="300" y="215" class="st0" width="150" height="25"/>
<line class="st6" x1="80" y1="180" x2="80" y2="220"/>
<line class="st6" x1="90" y1="115" x2="90" y2="180"/>
<line class="st6" x1="120" y1="115" x2="90" y2="115"/>
<line class="st6" x1="120" y1="160" x2="120" y2="115"/>
<line class="st6" x1="120" y1="160" x2="270" y2="160"/>
<line class="st6" x1="80" y1="220" x2="270" y2="220"/>
<line class="st7" x1="120" y1="160" x2="120" y2="200"/>
<line class="st6" x1="270" y1="160" x2="270" y2="120"/>
<line class="st6" x1="300" y1="120" x2="270" y2="120"/>
<line class="st6" x1="300" y1="120" x2="300" y2="215"/>
<line class="st6" x1="270" y1="220" x2="270" y2="240"/>
<line class="st6" x1="270" y1="240" x2="460" y2="240"/>
<line class="st6" x1="460" y1="240" x2="485" y2="240"/>
<line class="st6" x1="485" y1="210" x2="485" y2="240"/>
<line class="st6" x1="485" y1="210" x2="470" y2="210"/>
<line class="st6" x1="470" y1="170" x2="470" y2="210"/>
<line class="st6" x1="300" y1="170" x2="470" y2="170"/>
<line class="st7" x1="270" y1="160" x2="270" y2="200"/>
<line class="st7" x1="160" y1="160" x2="160" y2="200"/>
<line class="st7" x1="230" y1="160" x2="230" y2="200"/>
<line class="st7" x1="195" y1="160" x2="195" y2="200"/>
<line class="st7" x1="440" y1="170" x2="440" y2="215"/>
<line class="st7" x1="350" y1="170" x2="350" y2="215"/>
<line class="st7" x1="395" y1="170" x2="395" y2="215"/>
<line class="st7" x1="300" y1="215" x2="330" y2="215"/>
<line class="st7" x1="350" y1="215" x2="335" y2="215"/>
<line class="st7" x1="395" y1="215" x2="390" y2="215"/>
<line class="st7" x1="385" y1="215" x2="350" y2="215"/>
<line class="st7" x1="395" y1="215" x2="430" y2="215"/>
<line class="st7" x1="440" y1="215" x2="435" y2="215"/>
<line class="st7" x1="450" y1="175" x2="450" y2="190"/>
<line class="st7" x1="470" y1="190" x2="450" y2="190"/>
<line class="st7" x1="470" y1="210" x2="450" y2="210"/>
<line class="st7" x1="450" y1="190" x2="450" y2="205"/>
<line class="st7" x1="110" y1="115" x2="110" y2="140"/>
<line class="st7" x1="90" y1="180" x2="110" y2="180"/>
<line class="st7" x1="110" y1="150" x2="110" y2="170"/>
<line class="st7" x1="90" y1="150" x2="110" y2="150"/>
<line class="st7" x1="110" y1="145" x2="110" y2="150"/>
<line class="st7" x1="120" y1="200" x2="145" y2="200"/>
<line class="st7" x1="160" y1="200" x2="155" y2="200"/>
<line class="st7" x1="160" y1="200" x2="190" y2="200"/>
<line class="st7" x1="195" y1="200" x2="220" y2="200"/>
<line class="st7" x1="230" y1="200" x2="225" y2="200"/>
<line class="st7" x1="270" y1="200" x2="260" y2="200"/>
<line class="st7" x1="230" y1="200" x2="255" y2="200"/>
<line class="st8" x1="190" y1="200" x2="195" y2="200"/>
<line class="st8" x1="220" y1="200" x2="225" y2="200"/>
<line class="st8" x1="255" y1="200" x2="260" y2="200"/>
<line class="st8" x1="145" y1="200" x2="155" y2="200"/>
<line class="st8" x1="110" y1="170" x2="110" y2="175"/>
<line class="st8" x1="110" y1="140" x2="110" y2="145"/>
<line class="st8" x1="450" y1="205" x2="450" y2="210"/>
<line class="st8" x1="450" y1="175" x2="450" y2="170"/>
<line class="st8" x1="435" y1="215" x2="430" y2="215"/>
<line class="st8" x1="390" y1="215" x2="385" y2="215"/>
<line class="st8" x1="335" y1="215" x2="330" y2="215"/>
<line class="st9" x1="80" y1="200" x2="110" y2="200"/>
<g>
	<ellipse class="st10" cx="435" cy="227.5" rx="6.4" ry="6.1"/>
	<g>
		<path d="M430.6,226c-0.2,0.1-0.2,0.4,0,0.6c0.2,0.2,0.4,0.2,0.6,0L430.6,226z M438.8,226.6c0.2,0.1,0.4,0.1,0.6,0
			c0.2-0.2,0.1-0.4,0-0.6L438.8,226.6z M435,230.4c-0.2,0-0.4,0.2-0.4,0.4s0.2,0.4,0.4,0.4V230.4z M435,231.2c0.2,0,0.4-0.2,0.4-0.4
			s-0.2-0.4-0.4-0.4V231.2z M436.1,229.6c0.2,0.1,0.4,0.1,0.6,0c0.2-0.2,0.1-0.4,0-0.6L436.1,229.6z M437.5,228.1
			c0.2,0.1,0.4,0.1,0.6,0c0.2-0.2,0.1-0.4,0-0.6L437.5,228.1z M433.3,229c-0.2,0.1-0.2,0.4,0,0.6c0.2,0.2,0.4,0.2,0.6,0L433.3,229z
			 M432,227.5c-0.2,0.1-0.2,0.4,0,0.6c0.2,0.2,0.4,0.2,0.6,0L432,227.5z M431.2,226.6c1-0.9,2.4-1.4,3.8-1.4v-0.8
			c-1.7,0-3.2,0.6-4.4,1.6L431.2,226.6z M435,225.2c1.5,0,2.8,0.5,3.8,1.4l0.5-0.6c-1.2-1-2.7-1.6-4.4-1.6v0.8H435z M435,231.2
			L435,231.2v-0.8l0,0V231.2z M435,229.2c0.4,0,0.8,0.2,1.1,0.4l0.6-0.6c-0.4-0.4-1-0.6-1.7-0.6V229.2z M435,227.2
			c1,0,1.8,0.4,2.5,0.9l0.6-0.6c-0.8-0.7-1.9-1.1-3-1.1v0.8H435z M433.9,229.6c0.3-0.3,0.7-0.4,1.1-0.4v-0.8c-0.6,0-1.2,0.2-1.7,0.6
			L433.9,229.6z M432.5,228.1c0.7-0.6,1.5-0.9,2.5-0.9v-0.8c-1.2,0-2.2,0.4-3,1.1L432.5,228.1z"/>
	</g>
</g>
<g>
	<ellipse class="st10" cx="120" cy="208.9" rx="6.4" ry="6.1"/>
	<g>
		<path d="M115.6,207.4c-0.2,0.1-0.2,0.4,0,0.6c0.2,0.2,0.4,0.2,0.6,0L115.6,207.4z M123.8,208c0.2,0.1,0.4,0.1,0.6,0
			c0.2-0.2,0.1-0.4,0-0.6L123.8,208z M120,211.8c-0.2,0-0.4,0.2-0.4,0.4s0.2,0.4,0.4,0.4V211.8z M120,212.6c0.2,0,0.4-0.2,0.4-0.4
			s-0.2-0.4-0.4-0.4V212.6z M121.1,211c0.2,0.1,0.4,0.1,0.6,0c0.2-0.2,0.1-0.4,0-0.6L121.1,211z M122.5,209.5c0.2,0.1,0.4,0.1,0.6,0
			c0.2-0.2,0.1-0.4,0-0.6L122.5,209.5z M118.3,210.4c-0.2,0.1-0.2,0.4,0,0.6c0.2,0.2,0.4,0.2,0.6,0L118.3,210.4z M117,208.9
			c-0.2,0.1-0.2,0.4,0,0.6c0.2,0.2,0.4,0.2,0.6,0L117,208.9z M116.2,208c1-0.9,2.4-1.4,3.8-1.4v-0.8c-1.7,0-3.2,0.6-4.4,1.6
			L116.2,208z M120,206.6c1.5,0,2.8,0.5,3.8,1.4l0.5-0.6c-1.2-1-2.7-1.6-4.4-1.6L120,206.6L120,206.6z M120,212.6L120,212.6v-0.8
			l0,0V212.6z M120,210.6c0.4,0,0.8,0.2,1.1,0.4l0.6-0.6c-0.4-0.4-1-0.6-1.7-0.6V210.6z M120,208.6c1,0,1.8,0.4,2.5,0.9l0.6-0.6
			c-0.8-0.7-1.9-1.1-3-1.1L120,208.6L120,208.6z M118.9,211c0.3-0.3,0.7-0.4,1.1-0.4v-0.8c-0.6,0-1.2,0.2-1.7,0.6L118.9,211z
			 M117.5,209.5c0.7-0.6,1.5-0.9,2.5-0.9v-0.8c-1.2,0-2.2,0.4-3,1.1L117.5,209.5z"/>
	</g>
</g>
<g>
	<ellipse class="st10" cx="285.2" cy="167.2" rx="6.4" ry="6.1"/>
	<g>
		<path d="M280.9,165.7c-0.2,0.1-0.2,0.4,0,0.6c0.2,0.2,0.4,0.2,0.6,0L280.9,165.7z M289.1,166.3c0.2,0.1,0.4,0.1,0.6,0
			c0.2-0.2,0.1-0.4,0-0.6L289.1,166.3z M285.2,170.1c-0.2,0-0.4,0.2-0.4,0.4s0.2,0.4,0.4,0.4V170.1z M285.3,170.9
			c0.2,0,0.4-0.2,0.4-0.4s-0.2-0.4-0.4-0.4V170.9z M286.4,169.3c0.2,0.1,0.4,0.1,0.6,0c0.2-0.2,0.1-0.4,0-0.6L286.4,169.3z
			 M287.7,167.8c0.2,0.1,0.4,0.1,0.6,0c0.2-0.2,0.1-0.4,0-0.6L287.7,167.8z M283.6,168.7c-0.2,0.1-0.2,0.4,0,0.6
			c0.2,0.2,0.4,0.2,0.6,0L283.6,168.7z M282.2,167.2c-0.2,0.1-0.2,0.4,0,0.6c0.2,0.2,0.4,0.2,0.6,0L282.2,167.2z M281.4,166.3
			c1-0.9,2.4-1.4,3.8-1.4v-0.8c-1.7,0-3.2,0.6-4.4,1.6L281.4,166.3z M285.2,164.9c1.5,0,2.8,0.5,3.8,1.4l0.5-0.6
			c-1.2-1-2.7-1.6-4.4-1.6v0.8H285.2z M285.2,170.9L285.2,170.9v-0.8l0,0V170.9z M285.2,168.9c0.4,0,0.8,0.2,1.1,0.4l0.6-0.6
			c-0.4-0.4-1-0.6-1.7-0.6V168.9z M285.2,166.9c1,0,1.8,0.4,2.5,0.9l0.6-0.6c-0.8-0.7-1.9-1.1-3-1.1v0.8H285.2z M284.1,169.3
			c0.3-0.3,0.7-0.4,1.1-0.4v-0.8c-0.6,0-1.2,0.2-1.7,0.6L284.1,169.3z M282.8,167.8c0.7-0.6,1.5-0.9,2.5-0.9v-0.8
			c-1.2,0-2.2,0.4-3,1.1L282.8,167.8z"/>
	</g>
</g>
<line class="st7" x1="110" y1="175" x2="110" y2="180"/>
<line class="st6" x1="80" y1="180" x2="90" y2="180"/>
<g>
	<rect x="95" y="160" class="st11" width="9.2" height="13"/>
	<g>
		<path d="M99.5,163.1c-1.2,0-2.2,1-2.2,2.3c0,0.4,0.1,0.8,0.3,1.1c0,0,0.1,0,0.2,0h0.5c0.2,0,0.3,0.1,0.3,0.3h1
			c-0.6,0-1.1-0.6-1.1-1.4c0-0.8,0.5-1.4,1.1-1.4s1.1,0.6,1.1,1.4c0,0.8-0.5,1.4-1.1,1.4h1c0-0.2,0.1-0.3,0.3-0.3h0.5
			c0.1,0,0.1,0,0.2,0c0.2-0.3,0.3-0.7,0.3-1.1C101.7,164.1,100.7,163.1,99.5,163.1z M97.7,166.6c-0.1,0-0.2,0.1-0.2,0.1h0.8
			c0-0.1-0.1-0.1-0.2-0.1H97.7z M100.7,166.6c-0.1,0-0.2,0.1-0.2,0.1h0.8c0-0.1-0.1-0.1-0.2-0.1H100.7z M97.3,166.9
			c-0.3,0-0.5,0.2-0.5,0.4s0.2,0.4,0.5,0.4h4.5c0.3,0,0.5-0.2,0.5-0.4s-0.2-0.4-0.5-0.4H97.3z M97.1,167.8c0.1,0.8,0.8,1.4,1.7,1.4
			h1.3c0.9,0,1.7-0.6,1.7-1.4c0,0-0.1,0-0.2,0H97.1C97.2,167.9,97.1,167.8,97.1,167.8z M98,169.2c-0.1,0.1-0.1,0.3-0.1,0.6
			c0,0.1,0.1,0.1,0.2,0.1h2.9l0,0c0.1,0,0.2-0.1,0.2-0.1l0,0c0-0.3-0.1-0.4-0.1-0.5c-0.3,0.1-0.5,0.2-0.8,0.2H99
			C98.6,169.4,98.3,169.3,98,169.2z"/>
	</g>
</g>
<g>
	<rect x="95.8" y="125" class="st11" width="9.2" height="13"/>
	<g>
		<path d="M100.3,128.1c-1.2,0-2.2,1-2.2,2.3c0,0.4,0.1,0.8,0.3,1.1c0,0,0.1,0,0.2,0H99c0.2,0,0.3,0.1,0.3,0.3h1
			c-0.6,0-1.1-0.6-1.1-1.4c0-0.8,0.5-1.4,1.1-1.4s1.1,0.6,1.1,1.4c0,0.8-0.5,1.4-1.1,1.4h1c0-0.2,0.1-0.3,0.3-0.3h0.5
			c0.1,0,0.1,0,0.2,0c0.2-0.3,0.3-0.7,0.3-1.1C102.5,129.1,101.5,128.1,100.3,128.1z M98.5,131.6c-0.1,0-0.2,0.1-0.2,0.1h0.8
			c0-0.1-0.1-0.1-0.2-0.1H98.5z M101.6,131.6c-0.1,0-0.2,0.1-0.2,0.1h0.8c0-0.1-0.1-0.1-0.2-0.1H101.6z M98.1,131.9
			c-0.3,0-0.5,0.2-0.5,0.4s0.2,0.4,0.5,0.4h4.5c0.3,0,0.5-0.2,0.5-0.4s-0.2-0.4-0.5-0.4H98.1z M97.9,132.8c0.1,0.8,0.8,1.4,1.7,1.4
			h1.3c0.9,0,1.7-0.6,1.7-1.4c0,0-0.1,0-0.2,0H97.9C98,132.9,97.9,132.8,97.9,132.8z M98.8,134.2c-0.1,0.1-0.1,0.3-0.1,0.6
			c0,0.1,0.1,0.1,0.2,0.1h2.9l0,0c0.1,0,0.2-0.1,0.2-0.1l0,0c0-0.3-0.1-0.4-0.1-0.5c-0.3,0.1-0.5,0.2-0.8,0.2h-1.3
			C99.4,134.4,99.1,134.3,98.8,134.2z"/>
	</g>
</g>
<g>
	<rect x="455.5" y="173.8" class="st11" width="9.2" height="13"/>
	<g>
		<path d="M460,176.8c-1.2,0-2.2,1-2.2,2.3c0,0.4,0.1,0.8,0.3,1.1c0,0,0.1,0,0.2,0h0.5c0.2,0,0.3,0.1,0.3,0.3h1
			c-0.6,0-1.1-0.6-1.1-1.4s0.5-1.4,1.1-1.4s1.1,0.6,1.1,1.4s-0.5,1.4-1.1,1.4h1c0-0.2,0.1-0.3,0.3-0.3h0.5c0.1,0,0.1,0,0.2,0
			c0.2-0.3,0.3-0.7,0.3-1.1C462.3,177.9,461.2,176.8,460,176.8z M458.3,180.4c-0.1,0-0.2,0.1-0.2,0.1h0.8c0-0.1-0.1-0.1-0.2-0.1
			H458.3z M461.3,180.4c-0.1,0-0.2,0.1-0.2,0.1h0.8c0-0.1-0.1-0.1-0.2-0.1H461.3z M457.8,180.7c-0.3,0-0.5,0.2-0.5,0.4
			s0.2,0.4,0.5,0.4h4.5c0.3,0,0.5-0.2,0.5-0.4s-0.2-0.4-0.5-0.4H457.8z M457.6,181.6c0.1,0.8,0.8,1.4,1.7,1.4h1.3
			c0.9,0,1.7-0.6,1.7-1.4c0,0-0.1,0-0.2,0H457.6C457.8,181.7,457.7,181.6,457.6,181.6z M458.6,183c-0.1,0.1-0.1,0.3-0.1,0.6
			c0,0.1,0.1,0.1,0.2,0.1h2.9l0,0c0.1,0,0.2-0.1,0.2-0.1l0,0c0-0.3-0.1-0.4-0.1-0.5c-0.3,0.1-0.5,0.2-0.8,0.2h-1.3
			C459.1,183.2,458.8,183.1,458.6,183z"/>
	</g>
</g>
<g>
	<rect x="455.7" y="193.5" class="st11" width="9.2" height="13"/>
	<g>
		<path d="M460.2,196.6c-1.2,0-2.2,1-2.2,2.3c0,0.4,0.1,0.8,0.3,1.1c0,0,0.1,0,0.2,0h0.5c0.2,0,0.3,0.1,0.3,0.3h1
			c-0.6,0-1.1-0.6-1.1-1.4c0-0.8,0.5-1.4,1.1-1.4s1.1,0.6,1.1,1.4c0,0.8-0.5,1.4-1.1,1.4h1c0-0.2,0.1-0.3,0.3-0.3h0.5
			c0.1,0,0.1,0,0.2,0c0.2-0.3,0.3-0.7,0.3-1.1C462.4,197.6,461.4,196.6,460.2,196.6z M458.5,200.1c-0.1,0-0.2,0.1-0.2,0.1h0.8
			c0-0.1-0.1-0.1-0.2-0.1H458.5z M461.5,200.1c-0.1,0-0.2,0.1-0.2,0.1h0.8c0-0.1-0.1-0.1-0.2-0.1H461.5z M458,200.4
			c-0.3,0-0.5,0.2-0.5,0.4s0.2,0.4,0.5,0.4h4.5c0.3,0,0.5-0.2,0.5-0.4s-0.2-0.4-0.5-0.4H458z M457.8,201.3c0.1,0.8,0.8,1.4,1.7,1.4
			h1.3c0.9,0,1.7-0.6,1.7-1.4c0,0-0.1,0-0.2,0H458C457.9,201.4,457.9,201.3,457.8,201.3z M458.8,202.7c-0.1,0.1-0.1,0.3-0.1,0.6
			c0,0.1,0.1,0.1,0.2,0.1h2.9l0,0c0.1,0,0.2-0.1,0.2-0.1l0,0c0-0.3-0.1-0.4-0.1-0.5c-0.3,0.1-0.5,0.2-0.8,0.2h-1.3
			C459.3,202.9,459,202.8,458.8,202.7z"/>
	</g>
</g>
<line class="st12" x1="110" y1="180" x2="110" y2="200"/>
<line class="st12" x1="110" y1="220" x2="110" y2="200"/>
<line class="st12" x1="100" y1="220" x2="100" y2="200"/>
<line class="st12" x1="95" y1="220" x2="95" y2="200"/>
<line class="st12" x1="105" y1="220" x2="105" y2="200"/>
<line class="st12" x1="90" y1="220" x2="90" y2="200"/>
<line class="st12" x1="85" y1="220" x2="85" y2="200"/>
<line class="st12" x1="85" y1="180" x2="85" y2="200"/>
<line class="st12" x1="90" y1="180" x2="90" y2="200"/>
<line class="st12" x1="95" y1="180" x2="95" y2="200"/>
<line class="st12" x1="100" y1="180" x2="100" y2="200"/>
<line class="st12" x1="105" y1="180" x2="105" y2="200"/>
<line class="st9" x1="485" y1="225" x2="450" y2="225"/>
<line class="st13" x1="450" y1="210" x2="450" y2="240"/>
<line class="st13" x1="455" y1="240" x2="455" y2="225"/>
<line class="st13" x1="460" y1="240" x2="460" y2="225"/>
<line class="st13" x1="465" y1="240" x2="465" y2="225"/>
<line class="st13" x1="470" y1="240" x2="470" y2="225"/>
<line class="st13" x1="475" y1="240" x2="475" y2="225"/>
<line class="st13" x1="480" y1="240" x2="480" y2="225"/>
<line class="st13" x1="480" y1="210" x2="480" y2="225"/>
<line class="st13" x1="475" y1="210" x2="475" y2="225"/>
<line class="st13" x1="470" y1="210" x2="470" y2="225"/>
<line class="st13" x1="465" y1="210" x2="465" y2="225"/>
<line class="st13" x1="460" y1="210" x2="460" y2="225"/>
<line class="st13" x1="455" y1="210" x2="455" y2="225"/>
<line class="st9" x1="285" y1="135" x2="285" y2="160"/>
<line class="st12" x1="270" y1="135" x2="300" y2="135"/>
<line class="st12" x1="285" y1="160" x2="270" y2="160"/>
<line class="st12" x1="285" y1="155" x2="270" y2="155"/>
<line class="st12" x1="285" y1="150" x2="270" y2="150"/>
<line class="st12" x1="285" y1="145" x2="270" y2="145"/>
<line class="st12" x1="270" y1="140" x2="285" y2="140"/>
<line class="st12" x1="300" y1="140" x2="285" y2="140"/>
<line class="st12" x1="300" y1="145" x2="285" y2="145"/>
<line class="st12" x1="300" y1="150" x2="285" y2="150"/>
<line class="st12" x1="300" y1="155" x2="285" y2="155"/>
<line class="st14" x1="300" y1="160" x2="285" y2="160"/>
<g>
	<path class="st15" d="M157.9,180.4h1.2v-1.6h-1.2c-0.2,0-0.3,0.2-0.3,0.3v0.9C157.5,180.2,157.7,180.4,157.9,180.4z"/>
	<path class="st16" d="M159.1,180.3l0.1-0.1c0,0,0.1-0.1,0.1-0.1V179c0-0.1,0-0.1-0.1-0.2l-0.1-0.1
		C159.1,178.8,159.1,180.3,159.1,180.3z"/>
	<path class="st17" d="M158,180.2h0.7c0.2,0,0.3-0.1,0.3-0.3v-0.7c0-0.2-0.1-0.3-0.3-0.3H158c-0.2,0-0.3,0.1-0.3,0.3v0.7
		C157.7,180.1,157.8,180.2,158,180.2z"/>
	<rect x="153.2" y="176.7" class="st18" width="3.6" height="5.8"/>
</g>
<g>
	<path class="st19" d="M138,198.2l1.7,0.8c0.3,0.1,0.6,0,0.6-0.3v-3c0-0.3-0.3-0.5-0.6-0.4l-1.6,0.7c-0.3,0.1-0.4,0.3-0.4,0.7v1.3
		C137.7,198,137.8,198.2,138,198.2z"/>
	<path class="st20" d="M137.2,197.9h-1v-1.3h1c0.1,0,0.3,0.1,0.3,0.3v0.7C137.6,197.7,137.4,197.9,137.2,197.9z"/>
	<path class="st21" d="M136.2,197.9l-0.1,0c0,0,0,0,0-0.1v-0.9c0,0,0-0.1,0-0.1l0.1,0L136.2,197.9L136.2,197.9z"/>
</g>
<g>
	<path class="st22" d="M140.1,194.8l-1.7,0.8c-0.3,0.1-0.6,0-0.6-0.3v-3c0-0.3,0.3-0.5,0.6-0.4l1.6,0.7c0.3,0.1,0.4,0.3,0.4,0.7v1.3
		C140.4,194.6,140.3,194.8,140.1,194.8z"/>
	<path class="st23" d="M137.2,194.5h-1v-1.3h1c0.1,0,0.3,0.1,0.3,0.3v0.7C137.6,194.3,137.4,194.5,137.2,194.5z"/>
	<path class="st24" d="M136.2,194.5l-0.1,0c0,0,0,0,0-0.1v-0.9c0,0,0-0.1,0-0.1l0.1,0L136.2,194.5L136.2,194.5z"/>
</g>
<g>
	<path class="st19" d="M138.2,191.4l1.7,0.8c0.3,0.1,0.6,0,0.6-0.3v-3c0-0.3-0.3-0.5-0.6-0.4l-1.6,0.7c-0.3,0.1-0.4,0.3-0.4,0.7v1.3
		C138,191.3,138.1,191.4,138.2,191.4z"/>
	<path class="st20" d="M137.5,191.1h-1v-1.3h1c0.1,0,0.3,0.1,0.3,0.3v0.7C137.8,190.9,137.6,191.1,137.5,191.1z"/>
	<path class="st21" d="M136.4,191.1l-0.1,0c0,0,0,0,0-0.1V190c0,0,0-0.1,0-0.1l0.1,0L136.4,191.1L136.4,191.1z"/>
</g>
<g>
	<path class="st19" d="M130.7,198.2l1.7,0.8c0.3,0.1,0.6,0,0.6-0.3v-3c0-0.3-0.3-0.5-0.6-0.4l-1.6,0.7c-0.3,0.1-0.4,0.3-0.4,0.7v1.3
		C130.4,197.9,130.5,198.1,130.7,198.2z"/>
	<path class="st20" d="M129.9,197.8h-1v-1.3h1c0.1,0,0.3,0.1,0.3,0.3v0.7C130.2,197.7,130.1,197.8,129.9,197.8z"/>
	<path class="st21" d="M128.9,197.8l-0.1,0c0,0,0,0,0-0.1v-0.9c0,0,0-0.1,0-0.1l0.1,0L128.9,197.8L128.9,197.8z"/>
</g>
<g>
	<path class="st22" d="M132.8,194.8l-1.7,0.8c-0.3,0.1-0.6,0-0.6-0.3v-3c0-0.3,0.3-0.5,0.6-0.4l1.6,0.7c0.3,0.1,0.4,0.3,0.4,0.7v1.3
		C133.1,194.6,133,194.7,132.8,194.8z"/>
	<path class="st23" d="M129.9,194.4h-1v-1.3h1c0.1,0,0.3,0.1,0.3,0.3v0.7C130.2,194.3,130.1,194.4,129.9,194.4z"/>
	<path class="st24" d="M128.9,194.4l-0.1,0c0,0,0,0,0-0.1v-0.9c0,0,0-0.1,0-0.1l0.1,0L128.9,194.4L128.9,194.4z"/>
</g>
<g>
	<path class="st19" d="M130.9,191.4l1.7,0.8c0.3,0.1,0.6,0,0.6-0.3v-3c0-0.3-0.3-0.5-0.6-0.4l-1.6,0.7c-0.3,0.1-0.4,0.3-0.4,0.7v1.3
		C130.7,191.2,130.7,191.3,130.9,191.4z"/>
	<path class="st20" d="M130.2,191h-1v-1.3h1c0.1,0,0.3,0.1,0.3,0.3v0.7C130.5,190.9,130.3,191,130.2,191z"/>
	<path class="st21" d="M129.1,191l-0.1,0c0,0,0,0,0-0.1v-0.9c0,0,0-0.1,0-0.1l0.1,0L129.1,191L129.1,191z"/>
</g>
<g>
	<path class="st19" d="M122.7,197.6l1.7,0.8c0.3,0.1,0.6,0,0.6-0.3v-3c0-0.3-0.3-0.5-0.6-0.4l-1.6,0.7c-0.3,0.1-0.4,0.3-0.4,0.7v1.3
		C122.4,197.4,122.5,197.5,122.7,197.6z"/>
	<path class="st20" d="M122,197.2h-1v-1.3h1c0.1,0,0.3,0.1,0.3,0.3v0.7C122.3,197.2,122.1,197.2,122,197.2z"/>
	<path class="st21" d="M120.9,197.2l-0.1,0c0,0,0,0,0-0.1v-0.9c0,0,0-0.1,0-0.1l0.1,0L120.9,197.2L120.9,197.2z"/>
</g>
<g>
	<path class="st22" d="M124.8,194.2l-1.7,0.8c-0.3,0.1-0.6,0-0.6-0.3v-3c0-0.3,0.3-0.5,0.6-0.4l1.6,0.7c0.3,0.1,0.4,0.3,0.4,0.7v1.3
		C125,194,124.9,194.2,124.8,194.2z"/>
	<path class="st23" d="M122,193.9h-1v-1.3h1c0.1,0,0.3,0.1,0.3,0.3v0.7C122.3,193.7,122.1,193.9,122,193.9z"/>
	<path class="st24" d="M120.9,193.9l-0.1,0c0,0,0,0,0-0.1v-0.9c0,0,0-0.1,0-0.1l0.1,0L120.9,193.9L120.9,193.9z"/>
</g>
<g>
	<path class="st19" d="M122.9,190.9l1.7,0.8c0.3,0.1,0.6,0,0.6-0.3v-3c0-0.3-0.3-0.5-0.6-0.4l-1.6,0.7c-0.3,0.1-0.4,0.3-0.4,0.7v1.3
		C122.7,190.6,122.8,190.8,122.9,190.9z"/>
	<path class="st20" d="M122.2,190.5h-1v-1.3h1c0.1,0,0.3,0.1,0.3,0.3v0.7C122.5,190.4,122.3,190.5,122.2,190.5z"/>
	<path class="st21" d="M121.1,190.5l-0.1,0c0,0,0,0,0-0.1v-0.9c0,0,0-0.1,0-0.1l0.1,0L121.1,190.5L121.1,190.5z"/>
</g>
<g>
	<path class="st19" d="M145.4,163l1.7-0.8c0.3-0.1,0.6,0,0.6,0.3v3c0,0.3-0.3,0.5-0.6,0.4l-1.6-0.7c-0.3-0.1-0.4-0.3-0.4-0.7v-1.3
		C145.2,163.3,145.3,163.1,145.4,163z"/>
	<path class="st20" d="M144.6,163.4h-1v1.3h1c0.1,0,0.3-0.1,0.3-0.3v-0.7C145,163.6,144.8,163.4,144.6,163.4z"/>
	<path class="st21" d="M143.6,163.4l-0.1,0c0,0,0,0,0,0.1v0.9c0,0,0,0.1,0,0.1l0.1,0L143.6,163.4L143.6,163.4z"/>
</g>
<g>
	<path class="st22" d="M147.5,166.5l-1.7-0.8c-0.3-0.1-0.6,0-0.6,0.3v3c0,0.3,0.3,0.5,0.6,0.4l1.6-0.7c0.3-0.1,0.4-0.3,0.4-0.7v-1.3
		C147.8,166.6,147.7,166.5,147.5,166.5z"/>
	<path class="st23" d="M144.6,166.8h-1v1.3h1c0.1,0,0.3-0.1,0.3-0.3v-0.7C145,166.9,144.8,166.8,144.6,166.8z"/>
	<path class="st24" d="M143.6,166.8l-0.1,0c0,0,0,0,0,0.1v0.9c0,0,0,0.1,0,0.1l0.1,0L143.6,166.8L143.6,166.8z"/>
</g>
<g>
	<path class="st19" d="M145.6,169.8l1.7-0.8c0.3-0.1,0.6,0,0.6,0.3v3c0,0.3-0.3,0.5-0.6,0.4l-1.6-0.7c-0.3-0.1-0.4-0.3-0.4-0.7v-1.3
		C145.4,170,145.5,169.9,145.6,169.8z"/>
	<path class="st20" d="M144.9,170.2h-1v1.3h1c0.1,0,0.3-0.1,0.3-0.3v-0.8C145.2,170.3,145.1,170.2,144.9,170.2z"/>
	<path class="st21" d="M143.8,170.2l-0.1,0c0,0,0,0,0,0.1v0.9c0,0,0,0.1,0,0.1l0.1,0L143.8,170.2L143.8,170.2z"/>
</g>
<g>
	<path class="st19" d="M137.2,171.8l1.7,0.8c0.3,0.1,0.6,0,0.6-0.3v-3c0-0.3-0.3-0.5-0.6-0.4l-1.6,0.7c-0.3,0.1-0.4,0.3-0.4,0.7v1.3
		C137,171.6,137.1,171.7,137.2,171.8z"/>
	<path class="st20" d="M136.5,171.4h-1v-1.3h1c0.1,0,0.3,0.1,0.3,0.3v0.7C136.8,171.3,136.7,171.4,136.5,171.4z"/>
	<path class="st21" d="M135.5,171.4l-0.1,0c0,0,0,0,0-0.1v-0.9c0,0,0-0.1,0-0.1l0.1,0L135.5,171.4L135.5,171.4z"/>
</g>
<g>
	<path class="st22" d="M139.4,168.4l-1.7,0.8c-0.3,0.1-0.6,0-0.6-0.3v-3c0-0.3,0.3-0.5,0.6-0.4l1.6,0.7c0.3,0.1,0.4,0.3,0.4,0.7v1.3
		C139.6,168.2,139.5,168.3,139.4,168.4z"/>
	<path class="st23" d="M136.5,168h-1v-1.3h1c0.1,0,0.3,0.1,0.3,0.3v0.7C136.8,167.9,136.7,168,136.5,168z"/>
	<path class="st24" d="M135.5,168l-0.1,0c0,0,0,0,0-0.1v-0.9c0,0,0-0.1,0-0.1l0.1,0L135.5,168L135.5,168z"/>
</g>
<g>
	<path class="st19" d="M137.5,165l1.7,0.8c0.3,0.1,0.6,0,0.6-0.3v-3c0-0.3-0.3-0.5-0.6-0.4l-1.6,0.7c-0.3,0.1-0.4,0.3-0.4,0.7v1.3
		C137.2,164.8,137.3,164.9,137.5,165z"/>
	<path class="st20" d="M136.7,164.6h-1v-1.3h1c0.1,0,0.3,0.1,0.3,0.3v0.7C137,164.5,136.9,164.6,136.7,164.6z"/>
	<path class="st21" d="M135.6,164.6l-0.1,0c0,0,0,0,0-0.1v-0.9c0,0,0-0.1,0-0.1l0.1,0L135.6,164.6L135.6,164.6z"/>
</g>
<g>
	<path class="st19" d="M129.9,171.6l1.7,0.8c0.3,0.1,0.6,0,0.6-0.3v-3c0-0.3-0.3-0.5-0.6-0.4l-1.6,0.7c-0.3,0.1-0.4,0.3-0.4,0.7v1.3
		C129.7,171.4,129.8,171.6,129.9,171.6z"/>
	<path class="st20" d="M129.2,171.3h-1v-1.3h1c0.1,0,0.3,0.1,0.3,0.3v0.7C129.5,171.1,129.4,171.3,129.2,171.3z"/>
	<path class="st21" d="M128.1,171.3l-0.1,0c0,0,0,0,0-0.1v-0.9c0,0,0-0.1,0-0.1l0.1,0L128.1,171.3L128.1,171.3z"/>
</g>
<g>
	<path class="st22" d="M132,168.2l-1.7,0.8c-0.3,0.1-0.6,0-0.6-0.3v-3c0-0.3,0.3-0.5,0.6-0.4l1.6,0.7c0.3,0.1,0.4,0.3,0.4,0.7v1.3
		C132.3,168,132.2,168.2,132,168.2z"/>
	<path class="st23" d="M129.2,167.9h-1v-1.3h1c0.1,0,0.3,0.1,0.3,0.3v0.7C129.5,167.7,129.4,167.9,129.2,167.9z"/>
	<path class="st24" d="M128.1,167.9l-0.1,0c0,0,0,0,0-0.1v-0.9c0,0,0-0.1,0-0.1l0.1,0L128.1,167.9L128.1,167.9z"/>
</g>
<g>
	<path class="st19" d="M130.2,164.9l1.7,0.8c0.3,0.1,0.6,0,0.6-0.3v-3c0-0.3-0.3-0.5-0.6-0.4l-1.6,0.7c-0.3,0.1-0.4,0.3-0.4,0.7v1.3
		C129.9,164.6,130,164.8,130.2,164.9z"/>
	<path class="st20" d="M129.4,164.5h-1v-1.3h1c0.1,0,0.3,0.1,0.3,0.3v0.7C129.7,164.3,129.6,164.5,129.4,164.5z"/>
	<path class="st21" d="M128.3,164.5l-0.1,0c0,0,0,0,0-0.1v-0.9c0,0,0-0.1,0-0.1l0.1,0L128.3,164.5L128.3,164.5z"/>
</g>
<g>
	<path class="st19" d="M122.6,171.7l1.7,0.8c0.3,0.1,0.6,0,0.6-0.3v-3c0-0.3-0.3-0.5-0.6-0.4l-1.6,0.7c-0.3,0.1-0.4,0.3-0.4,0.7v1.3
		C122.4,171.5,122.5,171.6,122.6,171.7z"/>
	<path class="st20" d="M121.9,171.3h-1V170h1c0.1,0,0.3,0.1,0.3,0.3v0.7C122.2,171.2,122,171.3,121.9,171.3z"/>
	<path class="st21" d="M120.8,171.3l-0.1,0c0,0,0,0,0-0.1v-0.9c0,0,0-0.1,0-0.1l0.1,0L120.8,171.3L120.8,171.3z"/>
</g>
<g>
	<path class="st22" d="M124.7,168.3l-1.7,0.8c-0.3,0.1-0.6,0-0.6-0.3v-3c0-0.3,0.3-0.5,0.6-0.4l1.6,0.7c0.3,0.1,0.4,0.3,0.4,0.7v1.3
		C125,168,124.9,168.2,124.7,168.3z"/>
	<path class="st23" d="M121.9,167.9h-1v-1.3h1c0.1,0,0.3,0.1,0.3,0.3v0.7C122.2,167.8,122,167.9,121.9,167.9z"/>
	<path class="st24" d="M120.8,167.9l-0.1,0c0,0,0,0,0-0.1v-0.9c0,0,0-0.1,0-0.1l0.1,0L120.8,167.9L120.8,167.9z"/>
</g>
<g>
	<path class="st19" d="M122.9,164.9l1.7,0.8c0.3,0.1,0.6,0,0.6-0.3v-3c0-0.3-0.3-0.5-0.6-0.4l-1.6,0.7c-0.3,0.1-0.4,0.3-0.4,0.7v1.3
		C122.6,164.7,122.7,164.8,122.9,164.9z"/>
	<path class="st20" d="M122.1,164.5h-1v-1.3h1c0.1,0,0.3,0.1,0.3,0.3v0.7C122.4,164.4,122.3,164.5,122.1,164.5z"/>
	<path class="st21" d="M121,164.5l-0.1,0c0,0,0,0,0-0.1v-0.9c0,0,0-0.1,0-0.1l0.1,0L121,164.5L121,164.5z"/>
</g>
<g>
	<path class="st25" d="M190.8,180.3h0.9v-1.5h-0.9c-0.2,0-0.3,0.2-0.3,0.3v0.9C190.5,180.2,190.6,180.3,190.8,180.3z"/>
	<path class="st26" d="M191.7,180.3l0.1-0.1c0,0,0.1-0.1,0.1-0.1v-1c0-0.1,0-0.1-0.1-0.2l-0.1-0.1
		C191.7,178.8,191.7,180.3,191.7,180.3z"/>
	<path class="st27" d="M190.8,180.2h0.6c0.2,0,0.2-0.1,0.2-0.3v-0.6c0-0.2-0.1-0.3-0.2-0.3h-0.6c-0.2,0-0.2,0.1-0.2,0.3v0.6
		C190.6,180,190.7,180.2,190.8,180.2z"/>
	<rect x="187.1" y="176.9" class="st28" width="2.8" height="5.5"/>
</g>
<g>
	<path class="st29" d="M180.5,198l1.4,0.8c0.2,0.1,0.5,0,0.5-0.3v-2.9c0-0.3-0.3-0.5-0.5-0.4l-1.2,0.6c-0.2,0.1-0.3,0.3-0.3,0.6v1.2
		C180.3,197.8,180.4,197.9,180.5,198z"/>
	<path class="st30" d="M179.9,197.7h-0.8v-1.2h0.8c0.1,0,0.2,0.1,0.2,0.2v0.7C180.2,197.6,180.1,197.7,179.9,197.7z"/>
	<path class="st31" d="M179.1,197.6l-0.1,0c0,0,0,0,0-0.1v-0.9c0,0,0-0.1,0-0.1l0.1,0L179.1,197.6L179.1,197.6z"/>
</g>
<g>
	<path class="st32" d="M182.2,194.8l-1.4,0.8c-0.2,0.1-0.5,0-0.5-0.3v-2.9c0-0.3,0.3-0.5,0.5-0.4l1.2,0.6c0.2,0.1,0.3,0.3,0.3,0.6
		v1.2C182.4,194.6,182.3,194.7,182.2,194.8z"/>
	<path class="st33" d="M179.9,194.4h-0.8v-1.2h0.8c0.1,0,0.2,0.1,0.2,0.2v0.7C180.2,194.3,180.1,194.4,179.9,194.4z"/>
	<path class="st34" d="M179.1,194.4l-0.1,0c0,0,0,0,0-0.1v-0.9c0,0,0-0.1,0-0.1l0.1,0L179.1,194.4L179.1,194.4z"/>
</g>
<g>
	<path class="st29" d="M180.7,191.6l1.4,0.8c0.2,0.1,0.5,0,0.5-0.3v-2.9c0-0.3-0.3-0.5-0.5-0.4l-1.2,0.6c-0.2,0.1-0.3,0.3-0.3,0.6
		v1.2C180.5,191.3,180.6,191.5,180.7,191.6z"/>
	<path class="st30" d="M180.1,191.2h-0.8V190h0.8c0.1,0,0.2,0.1,0.2,0.2v0.7C180.3,191.1,180.3,191.2,180.1,191.2z"/>
	<path class="st31" d="M179.3,191.2l-0.1,0c0,0,0,0,0-0.1v-0.9c0,0,0-0.1,0-0.1l0.1,0L179.3,191.2L179.3,191.2z"/>
</g>
<g>
	<path class="st29" d="M174.8,197.8l1.4,0.8c0.2,0.1,0.5,0,0.5-0.3v-2.9c0-0.3-0.3-0.5-0.5-0.4l-1.2,0.6c-0.2,0.1-0.3,0.3-0.3,0.6
		v1.2C174.6,197.7,174.7,197.8,174.8,197.8z"/>
	<path class="st30" d="M174.2,197.5h-0.8v-1.2h0.8c0.1,0,0.2,0.1,0.2,0.2v0.7C174.5,197.4,174.4,197.5,174.2,197.5z"/>
	<path class="st31" d="M173.4,197.5l-0.1,0c0,0,0,0,0-0.1v-0.9c0,0,0-0.1,0-0.1l0.1,0L173.4,197.5L173.4,197.5z"/>
</g>
<g>
	<path class="st32" d="M176.5,194.6l-1.4,0.8c-0.2,0.1-0.5,0-0.5-0.3v-2.9c0-0.3,0.3-0.5,0.5-0.4l1.2,0.6c0.2,0.1,0.3,0.3,0.3,0.6
		v1.2C176.7,194.4,176.6,194.6,176.5,194.6z"/>
	<path class="st33" d="M174.2,194.3h-0.8V193h0.8c0.1,0,0.2,0.1,0.2,0.2v0.7C174.5,194.2,174.4,194.3,174.2,194.3z"/>
	<path class="st34" d="M173.4,194.3l-0.1,0c0,0,0,0,0-0.1v-0.9c0,0,0-0.1,0-0.1l0.1,0L173.4,194.3L173.4,194.3z"/>
</g>
<g>
	<path class="st29" d="M175,191.4l1.4,0.8c0.2,0.1,0.5,0,0.5-0.3V189c0-0.3-0.3-0.5-0.5-0.4l-1.2,0.6c-0.2,0.1-0.3,0.3-0.3,0.6v1.2
		C174.8,191.2,174.9,191.3,175,191.4z"/>
	<path class="st30" d="M174.4,191.1h-0.8v-1.2h0.8c0.1,0,0.2,0.1,0.2,0.2v0.7C174.6,190.9,174.5,191.1,174.4,191.1z"/>
	<path class="st31" d="M173.6,191.1l-0.1,0c0,0,0,0,0-0.1V190c0,0,0-0.1,0-0.1l0.1,0L173.6,191.1L173.6,191.1z"/>
</g>
<g>
	<path class="st29" d="M169.1,197.8l1.4,0.8c0.2,0.1,0.5,0,0.5-0.3v-2.9c0-0.3-0.3-0.5-0.5-0.4l-1.2,0.6c-0.2,0.1-0.3,0.3-0.3,0.6
		v1.2C168.9,197.6,169,197.8,169.1,197.8z"/>
	<path class="st30" d="M168.5,197.5h-0.8v-1.2h0.8c0.1,0,0.2,0.1,0.2,0.2v0.7C168.7,197.4,168.7,197.5,168.5,197.5z"/>
	<path class="st31" d="M167.7,197.4l-0.1,0c0,0,0,0,0-0.1v-0.9c0,0,0-0.1,0-0.1l0.1,0L167.7,197.4L167.7,197.4z"/>
</g>
<g>
	<path class="st32" d="M170.7,194.6l-1.4,0.8c-0.2,0.1-0.5,0-0.5-0.3v-2.9c0-0.3,0.3-0.5,0.5-0.4l1.2,0.6c0.2,0.1,0.3,0.3,0.3,0.6
		v1.2C171,194.4,170.9,194.5,170.7,194.6z"/>
	<path class="st33" d="M168.5,194.2h-0.8V193h0.8c0.1,0,0.2,0.1,0.2,0.2v0.7C168.7,194.1,168.7,194.2,168.5,194.2z"/>
	<path class="st34" d="M167.7,194.2l-0.1,0c0,0,0,0,0-0.1v-0.9c0,0,0-0.1,0-0.1l0.1,0L167.7,194.2L167.7,194.2z"/>
</g>
<g>
	<path class="st29" d="M169.3,191.3l1.4,0.8c0.2,0.1,0.5,0,0.5-0.3v-2.9c0-0.3-0.3-0.5-0.5-0.4l-1.2,0.6c-0.2,0.1-0.3,0.3-0.3,0.6
		v1.2C169.1,191.1,169.2,191.3,169.3,191.3z"/>
	<path class="st30" d="M168.7,191h-0.8v-1.2h0.8c0.1,0,0.2,0.1,0.2,0.2v0.7C168.9,190.9,168.8,191,168.7,191z"/>
	<path class="st31" d="M167.9,191l-0.1,0c0,0,0,0,0-0.1v-0.9c0,0,0-0.1,0-0.1l0.1,0L167.9,191L167.9,191z"/>
</g>
<g>
	<path class="st29" d="M162.8,197.3l1.4,0.8c0.2,0.1,0.5,0,0.5-0.3v-2.9c0-0.3-0.3-0.5-0.5-0.4l-1.2,0.6c-0.2,0.1-0.3,0.3-0.3,0.6
		v1.2C162.7,197.1,162.7,197.2,162.8,197.3z"/>
	<path class="st30" d="M162.3,196.9h-0.8v-1.2h0.8c0.1,0,0.2,0.1,0.2,0.2v0.7C162.5,196.8,162.4,196.9,162.3,196.9z"/>
	<path class="st31" d="M161.5,196.9l-0.1,0c0,0,0,0,0-0.1v-0.9c0,0,0-0.1,0-0.1l0.1,0L161.5,196.9L161.5,196.9z"/>
</g>
<g>
	<path class="st32" d="M164.5,194.1l-1.4,0.8c-0.2,0.1-0.5,0-0.5-0.3v-2.9c0-0.3,0.3-0.5,0.5-0.4l1.2,0.6c0.2,0.1,0.3,0.3,0.3,0.6
		v1.2C164.7,193.9,164.6,194,164.5,194.1z"/>
	<path class="st33" d="M162.3,193.7h-0.8v-1.2h0.8c0.1,0,0.2,0.1,0.2,0.2v0.7C162.5,193.6,162.4,193.7,162.3,193.7z"/>
	<path class="st34" d="M161.5,193.7l-0.1,0c0,0,0,0,0-0.1v-0.9c0,0,0-0.1,0-0.1l0.1,0L161.5,193.7L161.5,193.7z"/>
</g>
<g>
	<path class="st29" d="M163,190.8l1.4,0.8c0.2,0.1,0.5,0,0.5-0.3v-2.9c0-0.3-0.3-0.5-0.5-0.4l-1.2,0.6c-0.2,0.1-0.3,0.3-0.3,0.6v1.2
		C162.8,190.6,162.9,190.8,163,190.8z"/>
	<path class="st30" d="M162.4,190.5h-0.8v-1.2h0.8c0.1,0,0.2,0.1,0.2,0.2v0.7C162.7,190.4,162.6,190.5,162.4,190.5z"/>
	<path class="st31" d="M161.6,190.5l-0.1,0c0,0,0,0,0-0.1v-0.9c0,0,0-0.1,0-0.1l0.1,0L161.6,190.5L161.6,190.5z"/>
</g>
<g>
	<path class="st29" d="M180.5,161.9l1.4-0.8c0.2-0.1,0.5,0,0.5,0.3v2.9c0,0.3-0.3,0.5-0.5,0.4l-1.2-0.6c-0.2-0.1-0.3-0.3-0.3-0.6
		v-1.2C180.3,162.1,180.4,162,180.5,161.9z"/>
	<path class="st30" d="M179.9,162.2h-0.8v1.2h0.8c0.1,0,0.2-0.1,0.2-0.2v-0.7C180.2,162.4,180,162.2,179.9,162.2z"/>
	<path class="st31" d="M179.1,162.2l-0.1,0c0,0,0,0,0,0.1v0.9c0,0,0,0.1,0,0.1l0.1,0L179.1,162.2L179.1,162.2z"/>
</g>
<g>
	<path class="st32" d="M182.2,165.1l-1.4-0.8c-0.2-0.1-0.5,0-0.5,0.3v2.9c0,0.3,0.3,0.5,0.5,0.4l1.2-0.6c0.2-0.1,0.3-0.3,0.3-0.6
		v-1.2C182.3,165.3,182.3,165.2,182.2,165.1z"/>
	<path class="st33" d="M179.9,165.5h-0.8v1.2h0.8c0.1,0,0.2-0.1,0.2-0.2v-0.7C180.2,165.6,180,165.5,179.9,165.5z"/>
	<path class="st34" d="M179.1,165.5l-0.1,0c0,0,0,0,0,0.1v0.9c0,0,0,0.1,0,0.1l0.1,0L179.1,165.5L179.1,165.5z"/>
</g>
<g>
	<path class="st32" d="M175.8,167l-1.4,0.8c-0.2,0.1-0.5,0-0.5-0.3v-2.9c0-0.3,0.3-0.5,0.5-0.4l1.2,0.6c0.2,0.1,0.3,0.3,0.3,0.6v1.2
		C176,166.8,175.9,166.9,175.8,167z"/>
	<path class="st33" d="M173.5,166.6h-0.8v-1.2h0.8c0.1,0,0.2,0.1,0.2,0.2v0.7C173.8,166.5,173.7,166.6,173.5,166.6z"/>
	<path class="st34" d="M172.7,166.6l-0.1,0c0,0,0,0,0-0.1v-0.9c0,0,0-0.1,0-0.1l0.1,0L172.7,166.6L172.7,166.6z"/>
</g>
<g>
	<path class="st29" d="M174.3,163.7l1.4,0.8c0.2,0.1,0.5,0,0.5-0.3v-2.9c0-0.3-0.3-0.5-0.5-0.4l-1.2,0.6c-0.2,0.1-0.3,0.3-0.3,0.6
		v1.2C174.1,163.6,174.2,163.7,174.3,163.7z"/>
	<path class="st30" d="M173.7,163.4h-0.8v-1.2h0.8c0.1,0,0.2,0.1,0.2,0.2v0.7C174,163.3,173.8,163.4,173.7,163.4z"/>
	<path class="st31" d="M172.9,163.4l-0.1,0c0,0,0,0,0-0.1v-0.9c0,0,0-0.1,0-0.1l0.1,0L172.9,163.4L172.9,163.4z"/>
</g>
<g>
	<path class="st32" d="M170.1,166.8l-1.4,0.8c-0.2,0.1-0.5,0-0.5-0.3v-2.9c0-0.3,0.3-0.5,0.5-0.4l1.2,0.6c0.2,0.1,0.3,0.3,0.3,0.6
		v1.2C170.2,166.6,170.2,166.8,170.1,166.8z"/>
	<path class="st33" d="M167.8,166.5H167v-1.2h0.8c0.1,0,0.2,0.1,0.2,0.2v0.7C168.1,166.3,168,166.5,167.8,166.5z"/>
	<path class="st34" d="M167,166.5l-0.1,0c0,0,0,0,0-0.1v-0.9c0,0,0-0.1,0-0.1l0.1,0L167,166.5L167,166.5z"/>
</g>
<g>
	<path class="st29" d="M168.6,163.6l1.4,0.8c0.2,0.1,0.5,0,0.5-0.3v-2.9c0-0.3-0.3-0.5-0.5-0.4l-1.2,0.6c-0.2,0.1-0.3,0.3-0.3,0.6
		v1.2C168.4,163.4,168.4,163.5,168.6,163.6z"/>
	<path class="st30" d="M168,163.2h-0.8V162h0.8c0.1,0,0.2,0.1,0.2,0.2v0.7C168.3,163.1,168.1,163.2,168,163.2z"/>
	<path class="st31" d="M167.2,163.2l-0.1,0c0,0,0,0,0-0.1v-0.9c0,0,0-0.1,0-0.1l0.1,0L167.2,163.2L167.2,163.2z"/>
</g>
<g>
	<path class="st32" d="M164.3,166.8l-1.4,0.8c-0.2,0.1-0.5,0-0.5-0.3v-2.9c0-0.3,0.3-0.5,0.5-0.4l1.2,0.6c0.2,0.1,0.3,0.3,0.3,0.6
		v1.2C164.5,166.6,164.5,166.8,164.3,166.8z"/>
	<path class="st33" d="M162.1,166.5h-0.8v-1.2h0.8c0.1,0,0.2,0.1,0.2,0.2v0.7C162.4,166.4,162.2,166.5,162.1,166.5z"/>
	<path class="st34" d="M161.3,166.5l-0.1,0c0,0,0,0,0-0.1v-0.9c0,0,0-0.1,0-0.1l0.1,0L161.3,166.5L161.3,166.5z"/>
</g>
<g>
	<path class="st29" d="M162.9,163.7l1.4,0.8c0.2,0.1,0.5,0,0.5-0.3v-2.9c0-0.3-0.3-0.5-0.5-0.4l-1.2,0.6c-0.2,0.1-0.3,0.3-0.3,0.6
		v1.2C162.7,163.4,162.8,163.6,162.9,163.7z"/>
	<path class="st30" d="M162.3,163.3h-0.8V162h0.8c0.1,0,0.2,0.1,0.2,0.2v0.7C162.5,163.2,162.4,163.3,162.3,163.3z"/>
	<path class="st31" d="M161.5,163.3l-0.1,0c0,0,0,0,0-0.1v-0.9c0,0,0-0.1,0-0.1l0.1,0L161.5,163.3L161.5,163.3z"/>
</g>
<g>
	<path class="st35" d="M227,180.3h1v-1.6h-1c-0.2,0-0.3,0.2-0.3,0.4v0.9C226.6,180.2,226.8,180.3,227,180.3z"/>
	<path class="st36" d="M228,180.3l0.1-0.1c0,0,0.1-0.1,0.1-0.1v-1.1c0-0.1,0-0.1-0.1-0.2l-0.1-0.1C228,178.7,228,180.3,228,180.3z"
		/>
	<path class="st37" d="M227,180.2h0.6c0.2,0,0.2-0.1,0.2-0.3v-0.7c0-0.2-0.1-0.3-0.2-0.3H227c-0.2,0-0.2,0.1-0.2,0.3v0.7
		C226.8,180,226.9,180.2,227,180.2z"/>
	<rect x="223.1" y="176.6" class="st38" width="3" height="6"/>
</g>
<g>
	<path class="st39" d="M211.1,198.5l1.4,0.8c0.2,0.1,0.5,0,0.5-0.4v-3.1c0-0.3-0.3-0.5-0.5-0.4l-1.3,0.7c-0.2,0.1-0.4,0.4-0.4,0.7
		v1.3C210.9,198.3,211,198.5,211.1,198.5z"/>
	<path class="st40" d="M210.5,198.1h-0.8v-1.3h0.8c0.1,0,0.2,0.1,0.2,0.3v0.8C210.8,198,210.7,198.1,210.5,198.1z"/>
	<path class="st41" d="M209.6,198.1l-0.1,0c0,0,0,0,0-0.1V197c0,0,0-0.1,0-0.1l0.1,0L209.6,198.1L209.6,198.1z"/>
</g>
<g>
	<path class="st42" d="M212.9,195l-1.4,0.8c-0.2,0.1-0.5,0-0.5-0.4v-3.1c0-0.3,0.3-0.5,0.5-0.4l1.3,0.7c0.2,0.1,0.4,0.4,0.4,0.7v1.3
		C213.1,194.8,213,195,212.9,195z"/>
	<path class="st43" d="M210.5,194.7h-0.8v-1.3h0.8c0.1,0,0.2,0.1,0.2,0.3v0.8C210.8,194.5,210.7,194.7,210.5,194.7z"/>
	<path class="st44" d="M209.6,194.7l-0.1,0c0,0,0,0,0-0.1v-0.9c0,0,0-0.1,0-0.1l0.1,0L209.6,194.7L209.6,194.7z"/>
</g>
<g>
	<path class="st39" d="M205.1,198.5l1.4,0.8c0.2,0.1,0.5,0,0.5-0.4v-3.1c0-0.3-0.3-0.5-0.5-0.4l-1.3,0.7c-0.2,0.1-0.4,0.4-0.4,0.7
		v1.3C204.9,198.2,204.9,198.4,205.1,198.5z"/>
	<path class="st40" d="M204.5,198.1h-0.8v-1.3h0.8c0.1,0,0.2,0.1,0.2,0.3v0.8C204.7,198,204.6,198.1,204.5,198.1z"/>
	<path class="st41" d="M203.6,198.1l-0.1,0c0,0,0,0,0-0.1v-0.9c0,0,0-0.1,0-0.1l0.1,0L203.6,198.1L203.6,198.1z"/>
</g>
<g>
	<path class="st42" d="M206.8,195l-1.4,0.8c-0.2,0.1-0.5,0-0.5-0.4v-3.1c0-0.3,0.3-0.5,0.5-0.4l1.3,0.7c0.2,0.1,0.4,0.4,0.4,0.7v1.3
		C207,194.8,207,194.9,206.8,195z"/>
	<path class="st43" d="M204.5,194.6h-0.8v-1.3h0.8c0.1,0,0.2,0.1,0.2,0.3v0.8C204.7,194.5,204.6,194.6,204.5,194.6z"/>
	<path class="st44" d="M203.6,194.6l-0.1,0c0,0,0,0,0-0.1v-0.9c0,0,0-0.1,0-0.1l0.1,0L203.6,194.6L203.6,194.6z"/>
</g>
<g>
	<path class="st39" d="M198.4,197.9l1.4,0.8c0.2,0.1,0.5,0,0.5-0.4v-3.1c0-0.3-0.3-0.5-0.5-0.4l-1.3,0.7c-0.2,0.1-0.4,0.4-0.4,0.7
		v1.3C198.2,197.7,198.3,197.8,198.4,197.9z"/>
	<path class="st40" d="M197.8,197.5H197v-1.3h0.8c0.1,0,0.2,0.1,0.2,0.3v0.8C198.1,197.4,198,197.5,197.8,197.5z"/>
	<path class="st41" d="M197,197.5l-0.1,0c0,0,0,0,0-0.1v-0.9c0,0,0-0.1,0-0.1l0.1,0L197,197.5L197,197.5z"/>
</g>
<g>
	<path class="st42" d="M200.2,194.4l-1.4,0.8c-0.2,0.1-0.5,0-0.5-0.4v-3.1c0-0.3,0.3-0.5,0.5-0.4l1.3,0.7c0.2,0.1,0.4,0.4,0.4,0.7
		v1.3C200.4,194.2,200.3,194.3,200.2,194.4z"/>
	<path class="st43" d="M197.8,194H197v-1.3h0.8c0.1,0,0.2,0.1,0.2,0.3v0.8C198.1,193.9,198,194,197.8,194z"/>
	<path class="st44" d="M197,194l-0.1,0c0,0,0,0,0-0.1v-0.9c0,0,0-0.1,0-0.1l0.1,0L197,194L197,194z"/>
</g>
<g>
	<path class="st39" d="M217.4,162.7l1.4-0.8c0.2-0.1,0.5,0,0.5,0.4v3.1c0,0.3-0.3,0.5-0.5,0.4l-1.3-0.7c-0.2-0.1-0.4-0.4-0.4-0.7
		V163C217.2,163,217.3,162.8,217.4,162.7z"/>
	<path class="st40" d="M216.8,163.1H216v1.3h0.8c0.1,0,0.2-0.1,0.2-0.3v-0.8C217.1,163.3,217,163.1,216.8,163.1z"/>
	<path class="st41" d="M215.9,163.1l-0.1,0c0,0,0,0,0,0.1v0.9c0,0,0,0.1,0,0.1l0.1,0L215.9,163.1L215.9,163.1z"/>
</g>
<g>
	<path class="st42" d="M219.2,166.2l-1.4-0.8c-0.2-0.1-0.5,0-0.5,0.4v3.1c0,0.3,0.3,0.5,0.5,0.4l1.3-0.7c0.2-0.1,0.4-0.4,0.4-0.7
		v-1.3C219.4,166.4,219.3,166.3,219.2,166.2z"/>
	<path class="st43" d="M216.8,166.6H216v1.3h0.8c0.1,0,0.2-0.1,0.2-0.3v-0.8C217.1,166.7,217,166.6,216.8,166.6z"/>
	<path class="st44" d="M215.9,166.6l-0.1,0c0,0,0,0,0,0.1v0.9c0,0,0,0.1,0,0.1l0.1,0L215.9,166.6L215.9,166.6z"/>
</g>
<g>
	<path class="st39" d="M217.6,169.7l1.4-0.8c0.2-0.1,0.5,0,0.5,0.4v3.1c0,0.3-0.3,0.5-0.5,0.4l-1.3-0.7c-0.2-0.1-0.4-0.4-0.4-0.7
		V170C217.4,169.9,217.5,169.8,217.6,169.7z"/>
	<path class="st40" d="M217,170.1h-0.8v1.3h0.8c0.1,0,0.2-0.1,0.2-0.3v-0.8C217.2,170.2,217.2,170.1,217,170.1z"/>
	<path class="st41" d="M216.1,170.1l-0.1,0c0,0,0,0,0,0.1v0.9c0,0,0,0.1,0,0.1l0.1,0L216.1,170.1L216.1,170.1z"/>
</g>
<g>
	<path class="st39" d="M210.6,171.7l1.4,0.8c0.2,0.1,0.5,0,0.5-0.4v-3.1c0-0.3-0.3-0.5-0.5-0.4l-1.3,0.7c-0.2,0.1-0.4,0.4-0.4,0.7
		v1.3C210.4,171.5,210.5,171.6,210.6,171.7z"/>
	<path class="st40" d="M210,171.3h-0.8V170h0.8c0.1,0,0.2,0.1,0.2,0.3v0.8C210.3,171.2,210.2,171.3,210,171.3z"/>
	<path class="st41" d="M209.2,171.3l-0.1,0c0,0,0,0,0-0.1v-0.9c0,0,0-0.1,0-0.1l0.1,0L209.2,171.3L209.2,171.3z"/>
</g>
<g>
	<path class="st42" d="M212.4,168.2l-1.4,0.8c-0.2,0.1-0.5,0-0.5-0.4v-3.1c0-0.3,0.3-0.5,0.5-0.4l1.3,0.7c0.2,0.1,0.4,0.4,0.4,0.7
		v1.3C212.6,168,212.5,168.2,212.4,168.2z"/>
	<path class="st43" d="M210,167.9h-0.8v-1.3h0.8c0.1,0,0.2,0.1,0.2,0.3v0.8C210.3,167.7,210.2,167.9,210,167.9z"/>
	<path class="st44" d="M209.2,167.8l-0.1,0c0,0,0,0,0-0.1v-0.9c0,0,0-0.1,0-0.1l0.1,0L209.2,167.8L209.2,167.8z"/>
</g>
<g>
	<path class="st39" d="M210.8,164.7l1.4,0.8c0.2,0.1,0.5,0,0.5-0.4v-3.1c0-0.3-0.3-0.5-0.5-0.4l-1.3,0.7c-0.2,0.1-0.4,0.4-0.4,0.7
		v1.3C210.6,164.6,210.7,164.7,210.8,164.7z"/>
	<path class="st40" d="M210.2,164.4h-0.8V163h0.8c0.1,0,0.2,0.1,0.2,0.3v0.8C210.5,164.2,210.4,164.4,210.2,164.4z"/>
	<path class="st41" d="M209.3,164.4l-0.1,0c0,0,0,0,0-0.1v-0.9c0,0,0-0.1,0-0.1l0.1,0L209.3,164.4L209.3,164.4z"/>
</g>
<g>
	<path class="st39" d="M204.6,171.6l1.4,0.8c0.2,0.1,0.5,0,0.5-0.4V169c0-0.3-0.3-0.5-0.5-0.4l-1.3,0.7c-0.2,0.1-0.4,0.4-0.4,0.7
		v1.3C204.4,171.3,204.5,171.5,204.6,171.6z"/>
	<path class="st40" d="M204,171.1h-0.8v-1.3h0.8c0.1,0,0.2,0.1,0.2,0.3v0.8C204.2,171,204.1,171.1,204,171.1z"/>
	<path class="st41" d="M203.1,171.1l-0.1,0c0,0,0,0,0-0.1V170c0,0,0-0.1,0-0.1l0.1,0L203.1,171.1L203.1,171.1z"/>
</g>
<g>
	<path class="st42" d="M206.3,168l-1.4,0.8c-0.2,0.1-0.5,0-0.5-0.4v-3.1c0-0.3,0.3-0.5,0.5-0.4l1.3,0.7c0.2,0.1,0.4,0.4,0.4,0.7v1.3
		C206.5,167.9,206.5,168,206.3,168z"/>
	<path class="st43" d="M204,167.7h-0.8v-1.3h0.8c0.1,0,0.2,0.1,0.2,0.3v0.8C204.2,167.5,204.1,167.7,204,167.7z"/>
	<path class="st44" d="M203.1,167.7l-0.1,0c0,0,0,0,0-0.1v-0.9c0,0,0-0.1,0-0.1l0.1,0L203.1,167.7L203.1,167.7z"/>
</g>
<g>
	<path class="st39" d="M204.8,164.6l1.4,0.8c0.2,0.1,0.5,0,0.5-0.4V162c0-0.3-0.3-0.5-0.5-0.4l-1.3,0.7c-0.2,0.1-0.4,0.4-0.4,0.7
		v1.3C204.5,164.4,204.6,164.5,204.8,164.6z"/>
	<path class="st40" d="M204.1,164.2h-0.8v-1.3h0.8c0.1,0,0.2,0.1,0.2,0.3v0.8C204.4,164.1,204.3,164.2,204.1,164.2z"/>
	<path class="st41" d="M203.3,164.2l-0.1,0c0,0,0,0,0-0.1v-0.9c0,0,0-0.1,0-0.1l0.1,0L203.3,164.2L203.3,164.2z"/>
</g>
<g>
	<path class="st39" d="M198.5,171.6l1.4,0.8c0.2,0.1,0.5,0,0.5-0.4V169c0-0.3-0.3-0.5-0.5-0.4l-1.3,0.7c-0.2,0.1-0.4,0.4-0.4,0.7
		v1.3C198.3,171.4,198.4,171.5,198.5,171.6z"/>
	<path class="st40" d="M197.9,171.2h-0.8v-1.3h0.8c0.1,0,0.2,0.1,0.2,0.3v0.8C198.2,171.1,198,171.2,197.9,171.2z"/>
	<path class="st41" d="M197,171.2l-0.1,0c0,0,0,0,0-0.1v-0.9c0,0,0-0.1,0-0.1l0.1,0L197,171.2L197,171.2z"/>
</g>
<g>
	<path class="st42" d="M200.3,168.1l-1.4,0.8c-0.2,0.1-0.5,0-0.5-0.4v-3.1c0-0.3,0.3-0.5,0.5-0.4l1.3,0.7c0.2,0.1,0.4,0.4,0.4,0.7
		v1.3C200.5,167.9,200.4,168,200.3,168.1z"/>
	<path class="st43" d="M197.9,167.7h-0.8v-1.3h0.8c0.1,0,0.2,0.1,0.2,0.3v0.8C198.2,167.6,198,167.7,197.9,167.7z"/>
	<path class="st44" d="M197,167.7l-0.1,0c0,0,0,0,0-0.1v-0.9c0,0,0-0.1,0-0.1l0.1,0L197,167.7L197,167.7z"/>
</g>
<g>
	<path class="st39" d="M198.7,164.6l1.4,0.8c0.2,0.1,0.5,0,0.5-0.4v-3.1c0-0.3-0.3-0.5-0.5-0.4l-1.3,0.7c-0.2,0.1-0.4,0.4-0.4,0.7
		v1.3C198.5,164.4,198.6,164.6,198.7,164.6z"/>
	<path class="st40" d="M198.1,164.2h-0.8v-1.3h0.8c0.1,0,0.2,0.1,0.2,0.3v0.8C198.4,164.1,198.2,164.2,198.1,164.2z"/>
	<path class="st41" d="M197.2,164.2l-0.1,0c0,0,0,0,0-0.1v-0.9c0,0,0-0.1,0-0.1l0.1,0L197.2,164.2L197.2,164.2z"/>
</g>
<g>
	<path class="st45" d="M267.1,180.6h1.1v-1.8h-1.1c-0.2,0-0.3,0.2-0.3,0.4v1C266.7,180.4,266.9,180.6,267.1,180.6z"/>
	<path class="st46" d="M268.3,180.5l0.1-0.1c0,0,0.1-0.1,0.1-0.1v-1.2c0-0.1,0-0.1-0.1-0.2l-0.1-0.1
		C268.3,178.8,268.3,180.5,268.3,180.5z"/>
	<path class="st47" d="M267.2,180.4h0.7c0.2,0,0.3-0.1,0.3-0.3v-0.7c0-0.2-0.1-0.3-0.3-0.3h-0.7c-0.2,0-0.3,0.1-0.3,0.3v0.7
		C266.9,180.2,267,180.4,267.2,180.4z"/>
	<rect x="262.7" y="176.5" class="st48" width="3.4" height="6.5"/>
</g>
<g>
	<path class="st49" d="M247.2,198l1.6,0.9c0.3,0.1,0.6,0,0.6-0.4v-3.4c0-0.3-0.3-0.5-0.6-0.4l-1.5,0.7c-0.3,0.1-0.4,0.4-0.4,0.7v1.5
		C247,197.8,247,198,247.2,198z"/>
	<path class="st50" d="M246.5,197.6h-1v-1.5h1c0.1,0,0.3,0.1,0.3,0.3v0.8C246.8,197.5,246.7,197.6,246.5,197.6z"/>
	<path class="st51" d="M245.5,197.6l-0.1,0c0,0,0,0,0-0.1v-1c0,0,0-0.1,0-0.1l0.1,0L245.5,197.6L245.5,197.6z"/>
</g>
<g>
	<path class="st52" d="M249.2,194.2l-1.6,0.9c-0.3,0.1-0.6,0-0.6-0.4v-3.4c0-0.3,0.3-0.5,0.6-0.4l1.5,0.7c0.3,0.1,0.4,0.4,0.4,0.7
		v1.5C249.5,194,249.4,194.2,249.2,194.2z"/>
	<path class="st53" d="M246.5,193.8h-1v-1.5h1c0.1,0,0.3,0.1,0.3,0.3v0.8C246.8,193.7,246.7,193.8,246.5,193.8z"/>
	<path class="st54" d="M245.5,193.8l-0.1,0c0,0,0,0,0-0.1v-1c0,0,0-0.1,0-0.1l0.1,0L245.5,193.8L245.5,193.8z"/>
</g>
<g>
	<path class="st49" d="M240.3,198l1.6,0.9c0.3,0.1,0.6,0,0.6-0.4v-3.4c0-0.3-0.3-0.5-0.6-0.4l-1.5,0.7c-0.3,0.1-0.4,0.4-0.4,0.7v1.5
		C240.1,197.7,240.1,197.9,240.3,198z"/>
	<path class="st50" d="M239.6,197.6h-1v-1.5h1c0.1,0,0.3,0.1,0.3,0.3v0.8C239.9,197.4,239.8,197.6,239.6,197.6z"/>
	<path class="st51" d="M238.6,197.5l-0.1,0c0,0,0,0,0-0.1v-1c0,0,0-0.1,0-0.1l0.1,0L238.6,197.5L238.6,197.5z"/>
</g>
<g>
	<path class="st52" d="M242.3,194.2l-1.6,0.9c-0.3,0.1-0.6,0-0.6-0.4v-3.4c0-0.3,0.3-0.5,0.6-0.4l1.5,0.7c0.3,0.1,0.4,0.4,0.4,0.7
		v1.5C242.6,193.9,242.5,194.1,242.3,194.2z"/>
	<path class="st53" d="M239.6,193.8h-1v-1.5h1c0.1,0,0.3,0.1,0.3,0.3v0.8C239.9,193.6,239.8,193.8,239.6,193.8z"/>
	<path class="st54" d="M238.6,193.7l-0.1,0c0,0,0,0,0-0.1v-1c0,0,0-0.1,0-0.1l0.1,0L238.6,193.7L238.6,193.7z"/>
</g>
<g>
	<path class="st49" d="M232.8,197.4l1.6,0.9c0.3,0.1,0.6,0,0.6-0.4v-3.4c0-0.3-0.3-0.5-0.6-0.4l-1.5,0.7c-0.3,0.1-0.4,0.4-0.4,0.7
		v1.5C232.5,197.1,232.6,197.3,232.8,197.4z"/>
	<path class="st50" d="M232.1,196.9h-1v-1.5h1c0.1,0,0.3,0.1,0.3,0.3v0.8C232.3,196.8,232.2,196.9,232.1,196.9z"/>
	<path class="st51" d="M231.1,196.9l-0.1,0c0,0,0,0,0-0.1v-1c0,0,0-0.1,0-0.1l0.1,0L231.1,196.9L231.1,196.9z"/>
</g>
<g>
	<path class="st52" d="M234.8,193.6l-1.6,0.9c-0.3,0.1-0.6,0-0.6-0.4v-3.4c0-0.3,0.3-0.5,0.6-0.4l1.5,0.7c0.3,0.1,0.4,0.4,0.4,0.7
		v1.5C235,193.3,234.9,193.5,234.8,193.6z"/>
	<path class="st53" d="M232.1,193.1h-1v-1.5h1c0.1,0,0.3,0.1,0.3,0.3v0.8C232.3,193,232.2,193.1,232.1,193.1z"/>
	<path class="st54" d="M231.1,193.1l-0.1,0c0,0,0,0,0-0.1v-1c0,0,0-0.1,0-0.1l0.1,0L231.1,193.1L231.1,193.1z"/>
</g>
<g>
	<path class="st49" d="M254.8,162.8l1.6-0.9c0.3-0.1,0.6,0,0.6,0.4v3.4c0,0.3-0.3,0.5-0.6,0.4l-1.5-0.7c-0.3-0.1-0.4-0.4-0.4-0.7
		v-1.5C254.6,163,254.7,162.9,254.8,162.8z"/>
	<path class="st50" d="M254.1,163.2h-1v1.5h1c0.1,0,0.3-0.1,0.3-0.3v-0.8C254.4,163.4,254.3,163.2,254.1,163.2z"/>
	<path class="st51" d="M253.1,163.2l-0.1,0c0,0,0,0,0,0.1v1c0,0,0,0.1,0,0.1l0.1,0L253.1,163.2L253.1,163.2z"/>
</g>
<g>
	<path class="st52" d="M256.8,166.6l-1.6-0.9c-0.3-0.1-0.6,0-0.6,0.4v3.4c0,0.3,0.3,0.5,0.6,0.4l1.5-0.7c0.3-0.1,0.4-0.4,0.4-0.7
		V167C257,166.8,256.9,166.7,256.8,166.6z"/>
	<path class="st53" d="M254.1,167h-1v1.5h1c0.1,0,0.3-0.1,0.3-0.3v-0.8C254.4,167.2,254.3,167,254.1,167z"/>
	<path class="st54" d="M253.1,167l-0.1,0c0,0,0,0,0,0.1v1c0,0,0,0.1,0,0.1l0.1,0L253.1,167L253.1,167z"/>
</g>
<g>
	<path class="st52" d="M249.1,168.8l-1.6,0.9c-0.3,0.1-0.6,0-0.6-0.4V166c0-0.3,0.3-0.5,0.6-0.4l1.5,0.7c0.3,0.1,0.4,0.4,0.4,0.7
		v1.5C249.3,168.5,249.2,168.7,249.1,168.8z"/>
	<path class="st53" d="M246.4,168.4h-1v-1.5h1c0.1,0,0.3,0.1,0.3,0.3v0.8C246.7,168.3,246.5,168.4,246.4,168.4z"/>
	<path class="st54" d="M245.4,168.3l-0.1,0c0,0,0,0,0-0.1v-1c0,0,0-0.1,0-0.1l0.1,0L245.4,168.3L245.4,168.3z"/>
</g>
<g>
	<path class="st49" d="M247.3,165l1.6,0.9c0.3,0.1,0.6,0,0.6-0.4v-3.4c0-0.3-0.3-0.5-0.6-0.4l-1.5,0.7c-0.3,0.1-0.4,0.4-0.4,0.7v1.5
		C247.1,164.8,247.2,164.9,247.3,165z"/>
	<path class="st50" d="M246.6,164.6h-1v-1.5h1c0.1,0,0.3,0.1,0.3,0.3v0.8C246.9,164.4,246.8,164.6,246.6,164.6z"/>
	<path class="st51" d="M245.6,164.6l-0.1,0c0,0,0,0,0-0.1v-1c0,0,0-0.1,0-0.1l0.1,0L245.6,164.6L245.6,164.6z"/>
</g>
<g>
	<path class="st52" d="M242.2,168.6l-1.6,0.9c-0.3,0.1-0.6,0-0.6-0.4v-3.4c0-0.3,0.3-0.5,0.6-0.4l1.5,0.7c0.3,0.1,0.4,0.4,0.4,0.7
		v1.5C242.4,168.4,242.3,168.5,242.2,168.6z"/>
	<path class="st53" d="M239.5,168.2h-1v-1.5h1c0.1,0,0.3,0.1,0.3,0.3v0.8C239.8,168.1,239.6,168.2,239.5,168.2z"/>
	<path class="st54" d="M238.5,168.2l-0.1,0c0,0,0,0,0-0.1v-1c0,0,0-0.1,0-0.1l0.1,0L238.5,168.2L238.5,168.2z"/>
</g>
<g>
	<path class="st49" d="M240.4,164.8l1.6,0.9c0.3,0.1,0.6,0,0.6-0.4V162c0-0.3-0.3-0.5-0.6-0.4l-1.5,0.7c-0.3,0.1-0.4,0.4-0.4,0.7
		v1.5C240.1,164.6,240.2,164.7,240.4,164.8z"/>
	<path class="st50" d="M239.7,164.4h-1v-1.5h1c0.1,0,0.3,0.1,0.3,0.3v0.8C240,164.2,239.9,164.4,239.7,164.4z"/>
	<path class="st51" d="M238.7,164.4l-0.1,0c0,0,0,0,0-0.1v-1c0,0,0-0.1,0-0.1l0.1,0L238.7,164.4L238.7,164.4z"/>
</g>
<g>
	<path class="st52" d="M235.3,168.6l-1.6,0.9c-0.3,0.1-0.6,0-0.6-0.4v-3.4c0-0.3,0.3-0.5,0.6-0.4l1.5,0.7c0.3,0.1,0.4,0.4,0.4,0.7
		v1.5C235.5,168.4,235.4,168.6,235.3,168.6z"/>
	<path class="st53" d="M232.6,168.3h-1v-1.5h1c0.1,0,0.3,0.1,0.3,0.3v0.8C232.9,168.1,232.7,168.3,232.6,168.3z"/>
	<path class="st54" d="M231.6,168.3l-0.1,0c0,0,0,0,0-0.1v-1c0,0,0-0.1,0-0.1l0.1,0L231.6,168.3L231.6,168.3z"/>
</g>
<g>
	<path class="st49" d="M233.5,164.9l1.6,0.9c0.3,0.1,0.6,0,0.6-0.4V162c0-0.3-0.3-0.5-0.6-0.4l-1.5,0.7c-0.3,0.1-0.4,0.4-0.4,0.7
		v1.5C233.3,164.6,233.4,164.8,233.5,164.9z"/>
	<path class="st50" d="M232.8,164.4h-1V163h1c0.1,0,0.3,0.1,0.3,0.3v0.8C233.1,164.3,233,164.4,232.8,164.4z"/>
	<path class="st51" d="M231.8,164.4l-0.1,0c0,0,0,0,0-0.1v-1c0,0,0-0.1,0-0.1l0.1,0L231.8,164.4L231.8,164.4z"/>
</g>
<g>
	<path class="st55" d="M344.1,192.1h1.6v-2.6h-1.6c-0.3,0-0.4,0.3-0.4,0.6v1.5C343.6,191.8,343.9,192.1,344.1,192.1z"/>
	<path class="st56" d="M345.8,192l0.2-0.1c0.1-0.1,0.1-0.1,0.1-0.2v-1.8c0-0.1-0.1-0.2-0.1-0.3l-0.1-0.1
		C345.8,189.5,345.8,192,345.8,192z"/>
	<path class="st57" d="M344.2,191.8h1c0.3,0,0.4-0.2,0.4-0.5v-1.1c0-0.3-0.2-0.5-0.4-0.5h-1c-0.3,0-0.4,0.2-0.4,0.5v1.1
		C343.9,191.6,344,191.8,344.2,191.8z"/>
	<rect x="338" y="186.1" class="st58" width="4.8" height="9.4"/>
</g>
<g>
	<path class="st59" d="M324.4,213.2l2.2,1.2c0.4,0.2,0.8-0.1,0.8-0.5v-4.5c0-0.5-0.4-0.7-0.8-0.6l-2,1c-0.4,0.2-0.6,0.5-0.6,1v2
		C324.1,212.9,324.2,213.1,324.4,213.2z"/>
	<path class="st60" d="M323.5,212.6h-1.3v-2h1.3c0.2,0,0.4,0.2,0.4,0.4v1.1C323.9,212.4,323.7,212.6,323.5,212.6z"/>
	<path class="st61" d="M322.1,212.6l-0.2-0.1c-0.1,0-0.1-0.1-0.1-0.2V211c0-0.1,0.1-0.1,0.1-0.2l0.1-0.1L322.1,212.6L322.1,212.6z"
		/>
</g>
<g>
	<path class="st62" d="M327.1,208l-2.2,1.2c-0.4,0.2-0.8-0.1-0.8-0.5v-4.5c0-0.5,0.4-0.7,0.8-0.6l2,1c0.4,0.2,0.6,0.5,0.6,1v2
		C327.5,207.7,327.3,208,327.1,208z"/>
	<path class="st63" d="M323.5,207.5h-1.3v-2h1.3c0.2,0,0.4,0.2,0.4,0.4v1.1C323.9,207.3,323.7,207.5,323.5,207.5z"/>
	<path class="st64" d="M322.1,207.5l-0.2-0.1c-0.1,0-0.1-0.1-0.1-0.2v-1.4c0-0.1,0.1-0.1,0.1-0.2l0.1-0.1L322.1,207.5L322.1,207.5z"
		/>
</g>
<g>
	<path class="st59" d="M324.7,202.9l2.2,1.2c0.4,0.2,0.8-0.1,0.8-0.5v-4.5c0-0.5-0.4-0.7-0.8-0.6l-2,1c-0.4,0.2-0.6,0.5-0.6,1v2
		C324.4,202.7,324.5,202.9,324.7,202.9z"/>
	<path class="st60" d="M323.8,202.4h-1.3v-2h1.3c0.2,0,0.4,0.2,0.4,0.4v1.1C324.1,202.2,323.9,202.4,323.8,202.4z"/>
	<path class="st61" d="M322.4,202.4l-0.2-0.1c-0.1,0-0.1-0.1-0.1-0.2v-1.4c0-0.1,0.1-0.1,0.1-0.2l0.1-0.1L322.4,202.4L322.4,202.4z"
		/>
</g>
<g>
	<path class="st59" d="M315,213.1l2.2,1.2c0.4,0.2,0.8-0.1,0.8-0.5v-4.6c0-0.5-0.4-0.7-0.8-0.6l-2,1c-0.4,0.2-0.6,0.5-0.6,1v2
		C314.7,212.8,314.8,213,315,213.1z"/>
	<path class="st60" d="M314.1,212.6h-1.3v-2h1.3c0.2,0,0.4,0.2,0.4,0.4v1.1C314.5,212.4,314.3,212.6,314.1,212.6z"/>
	<path class="st61" d="M312.7,212.5l-0.2-0.1c-0.1,0-0.1-0.1-0.1-0.2v-1.4c0-0.1,0.1-0.1,0.1-0.2l0.1-0.1L312.7,212.5L312.7,212.5z"
		/>
</g>
<g>
	<path class="st62" d="M317.7,208l-2.2,1.2c-0.4,0.2-0.8-0.1-0.8-0.5v-4.5c0-0.5,0.4-0.7,0.8-0.6l2,1c0.4,0.2,0.6,0.5,0.6,1v2
		C318.1,207.7,318,207.8,317.7,208z"/>
	<path class="st63" d="M314.1,207.5h-1.3v-2h1.3c0.2,0,0.4,0.2,0.4,0.4v1.1C314.5,207.3,314.3,207.5,314.1,207.5z"/>
	<path class="st64" d="M312.7,207.4l-0.2-0.1c-0.1,0-0.1-0.1-0.1-0.2v-1.4c0-0.1,0.1-0.1,0.1-0.2l0.1-0.1L312.7,207.4L312.7,207.4z"
		/>
</g>
<g>
	<path class="st59" d="M315.3,202.9l2.2,1.2c0.4,0.2,0.8-0.1,0.8-0.5v-4.5c0-0.5-0.4-0.7-0.8-0.6l-2,1c-0.4,0.2-0.6,0.5-0.6,1v2
		C315,202.5,315.1,202.8,315.3,202.9z"/>
	<path class="st60" d="M314.4,202.3h-1.3v-2h1.3c0.2,0,0.4,0.2,0.4,0.4v1.1C314.8,202.1,314.6,202.3,314.4,202.3z"/>
	<path class="st61" d="M313,202.3l-0.2-0.1c-0.1,0-0.1-0.1-0.1-0.2v-1.4c0-0.1,0.1-0.1,0.1-0.2l0.1-0.1L313,202.3L313,202.3z"/>
</g>
<g>
	<path class="st59" d="M304.8,212.3l2.2,1.2c0.4,0.2,0.8-0.1,0.8-0.5v-4.5c0-0.5-0.4-0.7-0.8-0.6l-2,1c-0.4,0.2-0.6,0.5-0.6,1v2
		C304.5,212,304.6,212.2,304.8,212.3z"/>
	<path class="st60" d="M303.9,211.7h-1.3v-2h1.3c0.2,0,0.4,0.2,0.4,0.4v1.1C304.2,211.6,304.1,211.7,303.9,211.7z"/>
	<path class="st61" d="M302.5,211.7l-0.2-0.1c-0.1,0-0.1-0.1-0.1-0.2v-1.4c0-0.1,0.1-0.1,0.1-0.2l0.1-0.1L302.5,211.7L302.5,211.7z"
		/>
</g>
<g>
	<path class="st62" d="M307.5,207.2l-2.2,1.2c-0.4,0.2-0.8-0.1-0.8-0.5v-4.5c0-0.5,0.4-0.7,0.8-0.6l2,1c0.4,0.2,0.6,0.5,0.6,1v2
		C307.8,206.8,307.7,207,307.5,207.2z"/>
	<path class="st63" d="M303.9,206.6h-1.3v-2h1.3c0.2,0,0.4,0.2,0.4,0.4v1.1C304.2,206.4,304.1,206.6,303.9,206.6z"/>
	<path class="st64" d="M302.5,206.6l-0.2-0.1c-0.1,0-0.1-0.1-0.1-0.2v-1.4c0-0.1,0.1-0.1,0.1-0.2l0.1-0.1L302.5,206.6L302.5,206.6z"
		/>
</g>
<g>
	<path class="st59" d="M305.1,202.1l2.2,1.2c0.4,0.2,0.8-0.1,0.8-0.5v-4.5c0-0.5-0.4-0.7-0.8-0.6l-2,1c-0.4,0.2-0.6,0.5-0.6,1v2
		C304.8,201.7,304.9,201.9,305.1,202.1z"/>
	<path class="st60" d="M304.1,201.5h-1.3v-2h1.3c0.2,0,0.4,0.2,0.4,0.4v1.1C304.6,201.3,304.4,201.5,304.1,201.5z"/>
	<path class="st61" d="M302.8,201.5l-0.2-0.1c-0.1,0-0.1-0.1-0.1-0.2v-1.4c0-0.1,0.1-0.1,0.1-0.2l0.1-0.1L302.8,201.5L302.8,201.5z"
		/>
</g>
<g>
	<path class="st65" d="M323.8,185.5l2.4,1.1c0.4,0.2,0.9-0.1,0.9-0.5v-4.1c0-0.4-0.5-0.7-0.9-0.5l-2.2,0.9c-0.4,0.2-0.6,0.5-0.6,0.9
		v1.8C323.5,185.2,323.6,185.5,323.8,185.5z"/>
	<path class="st66" d="M322.9,185.1h-1.4v-1.8h1.4c0.2,0,0.4,0.2,0.4,0.4v1C323.2,184.9,323.1,185.1,322.9,185.1z"/>
	<path class="st67" d="M321.4,185.1l-0.2-0.1c-0.1,0-0.1-0.1-0.1-0.2v-1.2c0-0.1,0.1-0.1,0.1-0.2l0.1-0.1L321.4,185.1L321.4,185.1z"
		/>
</g>
<g>
	<path class="st68" d="M326.7,180.9l-2.4,1.1c-0.4,0.2-0.9-0.1-0.9-0.5v-4.1c0-0.4,0.5-0.7,0.9-0.5l2.2,0.9c0.4,0.2,0.6,0.5,0.6,0.9
		v1.8C327.1,180.6,326.9,180.8,326.7,180.9z"/>
	<path class="st69" d="M322.9,180.4h-1.4v-1.8h1.4c0.2,0,0.4,0.2,0.4,0.4v1C323.2,180.3,323.1,180.4,322.9,180.4z"/>
	<path class="st70" d="M321.4,180.4l-0.2-0.1c-0.1,0-0.1-0.1-0.1-0.2v-1.2c0-0.1,0.1-0.1,0.1-0.2l0.1-0.1L321.4,180.4L321.4,180.4z"
		/>
</g>
<g>
	<path class="st65" d="M324.2,176.3l2.4,1.1c0.4,0.2,0.9-0.1,0.9-0.5v-4.1c0-0.4-0.5-0.7-0.9-0.5l-2.2,0.9c-0.4,0.2-0.6,0.5-0.6,0.9
		v1.8C323.8,176,324,176.2,324.2,176.3z"/>
	<path class="st66" d="M323.1,175.8h-1.4V174h1.4c0.2,0,0.4,0.2,0.4,0.4v1C323.6,175.6,323.4,175.8,323.1,175.8z"/>
	<path class="st67" d="M321.7,175.8l-0.2-0.1c-0.1,0-0.1-0.1-0.1-0.2v-1.2c0-0.1,0.1-0.1,0.1-0.2l0.1-0.1L321.7,175.8L321.7,175.8z"
		/>
</g>
<g>
	<path class="st65" d="M313.8,185.4l2.4,1.1c0.4,0.2,0.9-0.1,0.9-0.5v-4.1c0-0.4-0.5-0.7-0.9-0.5l-2.2,0.9c-0.4,0.2-0.6,0.5-0.6,0.9
		v1.8C313.5,185.1,313.6,185.2,313.8,185.4z"/>
	<path class="st66" d="M312.9,184.8h-1.4V183h1.4c0.2,0,0.4,0.2,0.4,0.4v1C313.3,184.6,313.1,184.8,312.9,184.8z"/>
	<path class="st67" d="M311.3,184.8l-0.2-0.1c-0.1,0-0.1-0.1-0.1-0.2v-1.2c0-0.1,0.1-0.1,0.1-0.2l0.1-0.1L311.3,184.8L311.3,184.8z"
		/>
</g>
<g>
	<path class="st68" d="M316.7,180.7l-2.4,1.1c-0.4,0.2-0.9-0.1-0.9-0.5v-4.1c0-0.4,0.5-0.7,0.9-0.5l2.2,0.9c0.4,0.2,0.6,0.5,0.6,0.9
		v1.8C317.1,180.4,316.9,180.6,316.7,180.7z"/>
	<path class="st69" d="M312.9,180.2h-1.4v-1.8h1.4c0.2,0,0.4,0.2,0.4,0.4v1C313.3,180,313.1,180.2,312.9,180.2z"/>
	<path class="st70" d="M311.3,180.2l-0.2-0.1c-0.1,0-0.1-0.1-0.1-0.2v-1.2c0-0.1,0.1-0.1,0.1-0.2l0.1-0.1L311.3,180.2L311.3,180.2z"
		/>
</g>
<g>
	<path class="st65" d="M314.2,176.1l2.4,1.1c0.4,0.2,0.9-0.1,0.9-0.5v-4.1c0-0.4-0.5-0.7-0.9-0.5l-2.2,0.9c-0.4,0.2-0.6,0.5-0.6,0.9
		v1.8C313.8,175.8,313.9,176,314.2,176.1z"/>
	<path class="st66" d="M313.1,175.6h-1.4v-1.8h1.4c0.2,0,0.4,0.2,0.4,0.4v1C313.6,175.4,313.4,175.6,313.1,175.6z"/>
	<path class="st67" d="M311.7,175.6l-0.2-0.1c-0.1,0-0.1-0.1-0.1-0.2v-1.2c0-0.1,0.1-0.1,0.1-0.2l0.1-0.1L311.7,175.6L311.7,175.6z"
		/>
</g>
<g>
	<path class="st65" d="M303.8,185.4l2.4,1.1c0.4,0.2,0.9-0.1,0.9-0.5V182c0-0.4-0.5-0.7-0.9-0.5l-2.2,0.9c-0.4,0.2-0.6,0.5-0.6,0.9
		v1.8C303.5,185.1,303.6,185.3,303.8,185.4z"/>
	<path class="st66" d="M302.9,184.9h-1.4v-1.8h1.4c0.2,0,0.4,0.2,0.4,0.4v1C303.3,184.7,303.1,184.9,302.9,184.9z"/>
	<path class="st67" d="M301.4,184.9l-0.2-0.1c-0.1,0-0.1-0.1-0.1-0.2v-1.2c0-0.1,0.1-0.1,0.1-0.2l0.1-0.1L301.4,184.9L301.4,184.9z"
		/>
</g>
<g>
	<path class="st68" d="M306.7,180.7l-2.4,1.1c-0.4,0.2-0.9-0.1-0.9-0.5v-4.2c0-0.4,0.5-0.7,0.9-0.5l2.2,0.9c0.4,0.2,0.6,0.5,0.6,0.9
		v1.8C307.1,180.4,306.9,180.7,306.7,180.7z"/>
	<path class="st69" d="M302.9,180.3h-1.4v-1.8h1.4c0.2,0,0.4,0.2,0.4,0.4v1C303.3,180.1,303.1,180.3,302.9,180.3z"/>
	<path class="st70" d="M301.4,180.3l-0.2-0.1c-0.1,0-0.1-0.1-0.1-0.2v-1.2c0-0.1,0.1-0.1,0.1-0.2l0.1-0.1L301.4,180.3L301.4,180.3z"
		/>
</g>
<g>
	<path class="st65" d="M304.2,176.1l2.4,1.1c0.4,0.2,0.9-0.1,0.9-0.5v-4.1c0-0.4-0.5-0.7-0.9-0.5l-2.2,0.9c-0.4,0.2-0.6,0.5-0.6,0.9
		v1.8C303.8,175.9,304,176,304.2,176.1z"/>
	<path class="st66" d="M303.2,175.6h-1.4v-1.8h1.4c0.2,0,0.4,0.2,0.4,0.4v1C303.6,175.4,303.4,175.6,303.2,175.6z"/>
	<path class="st67" d="M301.7,175.6l-0.2-0.1c-0.1,0-0.1-0.1-0.1-0.2v-1.2c0-0.1,0.1-0.1,0.1-0.2l0.1-0.1L301.7,175.6L301.7,175.6z"
		/>
</g>
<g>
	<path class="st71" d="M392,191.4h1.3v-2H392c-0.2,0-0.4,0.2-0.4,0.4v1.1C391.6,191.2,391.8,191.4,392,191.4z"/>
	<path class="st72" d="M393.3,191.3l0.2-0.1c0.1-0.1,0.1-0.1,0.1-0.2v-1.4c0-0.1-0.1-0.2-0.1-0.2l-0.1-0.1
		C393.3,189.4,393.3,191.3,393.3,191.3z"/>
	<path class="st73" d="M392.1,191.2h0.8c0.2,0,0.3-0.2,0.3-0.4V190c0-0.2-0.2-0.4-0.3-0.4h-0.8c-0.2,0-0.3,0.2-0.3,0.4v0.8
		C391.8,191,391.9,191.2,392.1,191.2z"/>
	<rect x="387.1" y="186.8" class="st74" width="3.8" height="7.3"/>
</g>
<g>
	<path class="st75" d="M378,208.6l1.8,1c0.3,0.2,0.7-0.1,0.7-0.4v-3.8c0-0.4-0.4-0.6-0.7-0.5l-1.7,0.8c-0.3,0.2-0.5,0.4-0.5,0.8v1.6
		C377.8,208.3,377.9,208.5,378,208.6z"/>
	<path class="st76" d="M377.2,208.2h-1.1v-1.6h1.1c0.2,0,0.3,0.2,0.3,0.3v0.9C377.6,208,377.4,208.2,377.2,208.2z"/>
	<path class="st77" d="M376.1,208.1l-0.2-0.1c-0.1,0-0.1-0.1-0.1-0.2v-1.1c0-0.1,0.1-0.1,0.1-0.2l0.1-0.1L376.1,208.1L376.1,208.1z"
		/>
</g>
<g>
	<path class="st78" d="M380.3,204.4l-1.8,1c-0.3,0.2-0.7-0.1-0.7-0.4v-3.8c0-0.4,0.4-0.6,0.7-0.5l1.7,0.8c0.3,0.2,0.5,0.4,0.5,0.8
		v1.6C380.5,204.1,380.4,204.3,380.3,204.4z"/>
	<path class="st79" d="M377.2,203.9h-1.1v-1.6h1.1c0.2,0,0.3,0.2,0.3,0.3v0.9C377.6,203.7,377.4,203.9,377.2,203.9z"/>
	<path class="st80" d="M376.1,203.9l-0.2-0.1c-0.1,0-0.1-0.1-0.1-0.2v-1.1c0-0.1,0.1-0.1,0.1-0.2l0.1-0.1L376.1,203.9L376.1,203.9z"
		/>
</g>
<g>
	<path class="st75" d="M378.2,200.1l1.8,1c0.3,0.2,0.7-0.1,0.7-0.4V197c0-0.4-0.4-0.6-0.7-0.5l-1.7,0.8c-0.3,0.2-0.5,0.4-0.5,0.8
		v1.6C378,199.8,378.1,200,378.2,200.1z"/>
	<path class="st76" d="M377.5,199.7h-1.1V198h1.1c0.2,0,0.3,0.2,0.3,0.3v0.9C377.8,199.5,377.7,199.7,377.5,199.7z"/>
	<path class="st77" d="M376.4,199.6l-0.2-0.1c-0.1,0-0.1-0.1-0.1-0.2v-1.1c0-0.1,0.1-0.1,0.1-0.2l0.1-0.1L376.4,199.6L376.4,199.6z"
		/>
</g>
<g>
	<path class="st75" d="M370.3,208.4l1.8,1c0.3,0.2,0.7-0.1,0.7-0.4v-3.8c0-0.4-0.4-0.6-0.7-0.5l-1.7,0.8c-0.3,0.2-0.5,0.4-0.5,0.8
		v1.6C370.1,208.2,370.2,208.3,370.3,208.4z"/>
	<path class="st76" d="M369.6,208h-1.1v-1.6h1.1c0.2,0,0.3,0.2,0.3,0.3v0.9C369.9,207.8,369.8,208,369.6,208z"/>
	<path class="st77" d="M368.5,208l-0.2-0.1c-0.1,0-0.1-0.1-0.1-0.2v-1.1c0-0.1,0.1-0.1,0.1-0.2l0.1-0.1L368.5,208L368.5,208z"/>
</g>
<g>
	<path class="st78" d="M372.6,204.2l-1.8,1c-0.3,0.2-0.7-0.1-0.7-0.4V201c0-0.4,0.4-0.6,0.7-0.5l1.7,0.8c0.3,0.2,0.5,0.4,0.5,0.8
		v1.6C372.8,203.9,372.7,204.1,372.6,204.2z"/>
	<path class="st79" d="M369.6,203.7h-1.1v-1.6h1.1c0.2,0,0.3,0.2,0.3,0.3v0.9C369.9,203.6,369.8,203.7,369.6,203.7z"/>
	<path class="st80" d="M368.5,203.7l-0.2-0.1c-0.1,0-0.1-0.1-0.1-0.2v-1.1c0-0.1,0.1-0.1,0.1-0.2l0.1-0.1L368.5,203.7L368.5,203.7z"
		/>
</g>
<g>
	<path class="st75" d="M370.6,199.9l1.8,1c0.3,0.2,0.7-0.1,0.7-0.4v-3.8c0-0.4-0.4-0.6-0.7-0.5l-1.7,0.8c-0.3,0.2-0.5,0.4-0.5,0.8
		v1.6C370.3,199.7,370.4,199.8,370.6,199.9z"/>
	<path class="st76" d="M369.8,199.5h-1.1v-1.6h1.1c0.2,0,0.3,0.2,0.3,0.3v0.9C370.1,199.3,370,199.5,369.8,199.5z"/>
	<path class="st77" d="M368.7,199.5l-0.2-0.1c-0.1,0-0.1-0.1-0.1-0.2v-1.1c0-0.1,0.1-0.1,0.1-0.2l0.1-0.1L368.7,199.5L368.7,199.5z"
		/>
</g>
<g>
	<path class="st75" d="M362.7,208.3l1.8,1c0.3,0.2,0.7-0.1,0.7-0.4v-3.8c0-0.4-0.4-0.6-0.7-0.5l-1.7,0.8c-0.3,0.2-0.5,0.4-0.5,0.8
		v1.6C362.4,208.1,362.5,208.3,362.7,208.3z"/>
	<path class="st76" d="M361.9,207.9h-1.1v-1.6h1.1c0.2,0,0.3,0.2,0.3,0.3v0.9C362.2,207.8,362.1,207.9,361.9,207.9z"/>
	<path class="st77" d="M360.8,207.9l-0.2-0.1c-0.1,0-0.1-0.1-0.1-0.2v-1.1c0-0.1,0.1-0.1,0.1-0.2l0.1-0.1L360.8,207.9L360.8,207.9z"
		/>
</g>
<g>
	<path class="st78" d="M364.9,204.1l-1.8,1c-0.3,0.2-0.7-0.1-0.7-0.4v-3.8c0-0.4,0.4-0.6,0.7-0.5l1.7,0.8c0.3,0.2,0.5,0.4,0.5,0.8
		v1.6C365.2,203.8,365.1,204,364.9,204.1z"/>
	<path class="st79" d="M361.9,203.7h-1.1V202h1.1c0.2,0,0.3,0.2,0.3,0.3v0.9C362.2,203.5,362.1,203.7,361.9,203.7z"/>
	<path class="st80" d="M360.8,203.6l-0.2-0.1c-0.1,0-0.1-0.1-0.1-0.2v-1.1c0-0.1,0.1-0.1,0.1-0.2l0.1-0.1L360.8,203.6L360.8,203.6z"
		/>
</g>
<g>
	<path class="st75" d="M362.9,199.8l1.8,1c0.3,0.2,0.7-0.1,0.7-0.4v-3.8c0-0.4-0.4-0.6-0.7-0.5l-1.7,0.8c-0.3,0.2-0.5,0.4-0.5,0.8
		v1.6C362.7,199.6,362.8,199.8,362.9,199.8z"/>
	<path class="st76" d="M362.1,199.4h-1.1v-1.6h1.1c0.2,0,0.3,0.2,0.3,0.3v0.9C362.5,199.2,362.3,199.4,362.1,199.4z"/>
	<path class="st77" d="M361,199.4l-0.2-0.1c-0.1,0-0.1-0.1-0.1-0.2V198c0-0.1,0.1-0.1,0.1-0.2l0.1-0.1L361,199.4L361,199.4z"/>
</g>
<g>
	<path class="st75" d="M354.3,207.7l1.8,1c0.3,0.2,0.7-0.1,0.7-0.4v-3.8c0-0.4-0.4-0.6-0.7-0.5l-1.7,0.8c-0.3,0.2-0.5,0.4-0.5,0.8
		v1.6C354,207.4,354.1,207.6,354.3,207.7z"/>
	<path class="st76" d="M353.5,207.2h-1.1v-1.6h1.1c0.2,0,0.3,0.2,0.3,0.3v0.9C353.8,207.1,353.7,207.2,353.5,207.2z"/>
	<path class="st77" d="M352.4,207.2l-0.2-0.1c-0.1,0-0.1-0.1-0.1-0.2v-1.1c0-0.1,0.1-0.1,0.1-0.2l0.1-0.1L352.4,207.2L352.4,207.2z"
		/>
</g>
<g>
	<path class="st78" d="M356.5,203.4l-1.8,1c-0.3,0.2-0.7-0.1-0.7-0.4v-3.8c0-0.4,0.4-0.6,0.7-0.5l1.7,0.8c0.3,0.2,0.5,0.4,0.5,0.8
		v1.6C356.8,203.2,356.7,203.3,356.5,203.4z"/>
	<path class="st79" d="M353.5,202.9h-1.1v-1.6h1.1c0.2,0,0.3,0.2,0.3,0.3v0.9C353.8,202.8,353.7,202.9,353.5,202.9z"/>
	<path class="st80" d="M352.4,202.9l-0.2-0.1c-0.1,0-0.1-0.1-0.1-0.2v-1.1c0-0.1,0.1-0.1,0.1-0.2l0.1-0.1L352.4,202.9L352.4,202.9z"
		/>
</g>
<g>
	<path class="st75" d="M354.5,199.2l1.8,1c0.3,0.2,0.7-0.1,0.7-0.4V196c0-0.4-0.4-0.6-0.7-0.5l-1.7,0.8c-0.3,0.2-0.5,0.4-0.5,0.8
		v1.6C354.3,198.9,354.4,199.1,354.5,199.2z"/>
	<path class="st76" d="M353.7,198.7h-1.1v-1.6h1.1c0.2,0,0.3,0.2,0.3,0.3v0.9C354.1,198.6,353.9,198.7,353.7,198.7z"/>
	<path class="st77" d="M352.6,198.7l-0.2-0.1c-0.1,0-0.1-0.1-0.1-0.2v-1.1c0-0.1,0.1-0.1,0.1-0.2l0.1-0.1L352.6,198.7L352.6,198.7z"
		/>
</g>
<g>
	<path class="st75" d="M378.9,177.9l1.8-1c0.3-0.2,0.7,0.1,0.7,0.4v3.8c0,0.4-0.4,0.6-0.7,0.5l-1.7-0.8c-0.3-0.2-0.5-0.4-0.5-0.8
		v-1.6C378.7,178.1,378.8,178,378.9,177.9z"/>
	<path class="st76" d="M378.1,178.4H377v1.6h1.1c0.2,0,0.3-0.2,0.3-0.3v-0.9C378.5,178.5,378.3,178.4,378.1,178.4z"/>
	<path class="st77" d="M377,178.4l-0.2,0.1c-0.1,0-0.1,0.1-0.1,0.2v1.1c0,0.1,0.1,0.1,0.1,0.2l0.1,0.1L377,178.4L377,178.4z"/>
</g>
<g>
	<path class="st78" d="M381.1,182.2l-1.8-1c-0.3-0.2-0.7,0.1-0.7,0.4v3.8c0,0.4,0.4,0.6,0.7,0.5l1.7-0.8c0.3-0.2,0.5-0.4,0.5-0.8
		v-1.6C381.4,182.4,381.3,182.2,381.1,182.2z"/>
	<path class="st79" d="M378.1,182.6H377v1.6h1.1c0.2,0,0.3-0.2,0.3-0.3V183C378.5,182.8,378.3,182.6,378.1,182.6z"/>
	<path class="st80" d="M377,182.6l-0.2,0.1c-0.1,0-0.1,0.1-0.1,0.2v1.1c0,0.1,0.1,0.1,0.1,0.2l0.1,0.1L377,182.6L377,182.6z"/>
</g>
<g>
	<path class="st75" d="M379.1,186.4l1.8-1c0.3-0.2,0.7,0.1,0.7,0.4v3.8c0,0.4-0.4,0.6-0.7,0.5l-1.7-0.8c-0.3-0.2-0.5-0.4-0.5-0.8
		v-1.6C378.9,186.6,379,186.5,379.1,186.4z"/>
	<path class="st76" d="M378.4,186.9h-1.1v1.6h1.1c0.2,0,0.3-0.2,0.3-0.3v-1C378.7,187,378.6,186.9,378.4,186.9z"/>
	<path class="st77" d="M377.2,186.9l-0.2,0.1c-0.1,0-0.1,0.1-0.1,0.2v1.1c0,0.1,0.1,0.1,0.1,0.2l0.1,0.1L377.2,186.9L377.2,186.9z"
		/>
</g>
<g>
	<path class="st75" d="M370.3,188.8l1.8,1c0.3,0.2,0.7-0.1,0.7-0.4v-3.8c0-0.4-0.4-0.6-0.7-0.5l-1.7,0.8c-0.3,0.2-0.5,0.4-0.5,0.8
		v1.6C370.1,188.6,370.2,188.8,370.3,188.8z"/>
	<path class="st76" d="M369.6,188.4h-1.1v-1.6h1.1c0.2,0,0.3,0.2,0.3,0.3v0.9C369.9,188.2,369.7,188.4,369.6,188.4z"/>
	<path class="st77" d="M368.5,188.4l-0.2-0.1c-0.1,0-0.1-0.1-0.1-0.2V187c0-0.1,0.1-0.1,0.1-0.2l0.1-0.1L368.5,188.4L368.5,188.4z"
		/>
</g>
<g>
	<path class="st78" d="M372.5,184.6l-1.8,1c-0.3,0.2-0.7-0.1-0.7-0.4v-3.8c0-0.4,0.4-0.6,0.7-0.5l1.7,0.8c0.3,0.2,0.5,0.4,0.5,0.8
		v1.6C372.8,184.3,372.7,184.5,372.5,184.6z"/>
	<path class="st79" d="M369.6,184.1h-1.1v-1.6h1.1c0.2,0,0.3,0.2,0.3,0.3v0.9C369.9,184,369.7,184.1,369.6,184.1z"/>
	<path class="st80" d="M368.5,184.1l-0.2-0.1c-0.1,0-0.1-0.1-0.1-0.2v-1.1c0-0.1,0.1-0.1,0.1-0.2l0.1-0.1L368.5,184.1L368.5,184.1z"
		/>
</g>
<g>
	<path class="st75" d="M370.6,180.3l1.8,1c0.3,0.2,0.7-0.1,0.7-0.4v-3.8c0-0.4-0.4-0.6-0.7-0.5l-1.7,0.8c-0.3,0.2-0.5,0.4-0.5,0.8
		v1.6C370.3,180.1,370.4,180.3,370.6,180.3z"/>
	<path class="st76" d="M369.8,179.9h-1.1v-1.6h1.1c0.2,0,0.3,0.2,0.3,0.3v0.9C370.1,179.7,370,179.9,369.8,179.9z"/>
	<path class="st77" d="M368.7,179.9l-0.2-0.1c-0.1,0-0.1-0.1-0.1-0.2v-1.1c0-0.1,0.1-0.1,0.1-0.2l0.1-0.1L368.7,179.9L368.7,179.9z"
		/>
</g>
<g>
	<path class="st75" d="M362.7,188.7l1.8,1c0.3,0.2,0.7-0.1,0.7-0.4v-3.8c0-0.4-0.4-0.6-0.7-0.5l-1.7,0.8c-0.3,0.2-0.5,0.4-0.5,0.8
		v1.6C362.4,188.4,362.5,188.6,362.7,188.7z"/>
	<path class="st76" d="M361.9,188.2h-1.1v-1.6h1.1c0.2,0,0.3,0.2,0.3,0.3v0.9C362.2,188,362.1,188.2,361.9,188.2z"/>
	<path class="st77" d="M360.7,188.2l-0.2-0.1c-0.1,0-0.1-0.1-0.1-0.2v-1.1c0-0.1,0.1-0.1,0.1-0.2l0.1-0.1L360.7,188.2L360.7,188.2z"
		/>
</g>
<g>
	<path class="st78" d="M364.9,184.4l-1.8,1c-0.3,0.2-0.7-0.1-0.7-0.4v-3.8c0-0.4,0.4-0.6,0.7-0.5l1.7,0.8c0.3,0.2,0.5,0.4,0.5,0.8
		v1.6C365.1,184.1,365,184.3,364.9,184.4z"/>
	<path class="st79" d="M361.9,183.9h-1.1v-1.6h1.1c0.2,0,0.3,0.2,0.3,0.3v0.9C362.2,183.8,362.1,183.9,361.9,183.9z"/>
	<path class="st80" d="M360.7,183.9l-0.2-0.1c-0.1,0-0.1-0.1-0.1-0.2v-1.1c0-0.1,0.1-0.1,0.1-0.2l0.1-0.1L360.7,183.9L360.7,183.9z"
		/>
</g>
<g>
	<path class="st75" d="M362.9,180.2l1.8,1c0.3,0.2,0.7-0.1,0.7-0.4V177c0-0.4-0.4-0.6-0.7-0.5l-1.7,0.8c-0.3,0.2-0.5,0.4-0.5,0.8
		v1.6C362.6,179.9,362.7,180.1,362.9,180.2z"/>
	<path class="st76" d="M362.1,179.7H361V178h1.1c0.2,0,0.3,0.2,0.3,0.3v0.9C362.5,179.5,362.3,179.7,362.1,179.7z"/>
	<path class="st77" d="M361,179.7l-0.2-0.1c-0.1,0-0.1-0.1-0.1-0.2v-1.1c0-0.1,0.1-0.1,0.1-0.2l0.1-0.1L361,179.7L361,179.7z"/>
</g>
<g>
	<path class="st75" d="M355,188.7l1.8,1c0.3,0.2,0.7-0.1,0.7-0.4v-3.8c0-0.4-0.4-0.6-0.7-0.5l-1.7,0.8c-0.3,0.2-0.5,0.4-0.5,0.8v1.6
		C354.7,188.4,354.8,188.6,355,188.7z"/>
	<path class="st76" d="M354.2,188.2h-1.1v-1.6h1.1c0.2,0,0.3,0.2,0.3,0.3v0.9C354.5,188.1,354.4,188.2,354.2,188.2z"/>
	<path class="st77" d="M353.1,188.2l-0.2-0.1c-0.1,0-0.1-0.1-0.1-0.2v-1.1c0-0.1,0.1-0.1,0.1-0.2l0.1-0.1L353.1,188.2L353.1,188.2z"
		/>
</g>
<g>
	<path class="st78" d="M357.2,184.4l-1.8,1c-0.3,0.2-0.7-0.1-0.7-0.4v-3.8c0-0.4,0.4-0.6,0.7-0.5l1.7,0.8c0.3,0.2,0.5,0.4,0.5,0.8
		v1.6C357.5,184.1,357.4,184.4,357.2,184.4z"/>
	<path class="st79" d="M354.2,184h-1.1v-1.6h1.1c0.2,0,0.3,0.2,0.3,0.3v0.9C354.5,183.8,354.4,184,354.2,184z"/>
	<path class="st80" d="M353.1,184l-0.2-0.1c-0.1,0-0.1-0.1-0.1-0.2v-1.1c0-0.1,0.1-0.1,0.1-0.2l0.1-0.1L353.1,184L353.1,184z"/>
</g>
<g>
	<path class="st75" d="M355.2,180.2l1.8,1c0.3,0.2,0.7-0.1,0.7-0.4v-3.8c0-0.4-0.4-0.6-0.7-0.5l-1.7,0.8c-0.3,0.2-0.5,0.4-0.5,0.8
		v1.6C355,179.9,355.1,180.1,355.2,180.2z"/>
	<path class="st76" d="M354.5,179.7h-1.1v-1.6h1.1c0.2,0,0.3,0.2,0.3,0.3v0.9C354.8,179.6,354.6,179.7,354.5,179.7z"/>
	<path class="st77" d="M353.3,179.7l-0.2-0.1c-0.1,0-0.1-0.1-0.1-0.2v-1.1c0-0.1,0.1-0.1,0.1-0.2l0.1-0.1L353.3,179.7L353.3,179.7z"
		/>
</g>
<g>
	<path class="st78" d="M380.9,173l-1.8-1c-0.3-0.2-0.7,0.1-0.7,0.4v3.8c0,0.4,0.4,0.6,0.7,0.5l1.7-0.8c0.3-0.2,0.5-0.4,0.5-0.8v-1.6
		C381.2,173.2,381.1,173,380.9,173z"/>
	<path class="st79" d="M377.9,173.4h-1.1v1.6h1.1c0.2,0,0.3-0.2,0.3-0.3v-0.9C378.3,173.6,378.1,173.4,377.9,173.4z"/>
	<path class="st80" d="M376.8,173.4l-0.2,0.1c-0.1,0-0.1,0.1-0.1,0.2v1.1c0,0.1,0.1,0.1,0.1,0.2l0.1,0.1L376.8,173.4L376.8,173.4z"
		/>
</g>
<g>
	<path class="st78" d="M372.4,175.4l-1.8,1c-0.3,0.2-0.7-0.1-0.7-0.4v-3.8c0-0.4,0.4-0.6,0.7-0.5l1.7,0.8c0.3,0.2,0.5,0.4,0.5,0.8
		v1.6C372.6,175.1,372.5,175.3,372.4,175.4z"/>
	<path class="st79" d="M369.4,174.9h-1.1v-1.6h1.1c0.2,0,0.3,0.2,0.3,0.3v0.9C369.7,174.8,369.5,174.9,369.4,174.9z"/>
	<path class="st80" d="M368.3,174.9l-0.2-0.1c-0.1,0-0.1-0.1-0.1-0.2v-1.1c0-0.1,0.1-0.1,0.1-0.2l0.1-0.1L368.3,174.9L368.3,174.9z"
		/>
</g>
<g>
	<path class="st78" d="M364.7,175.2l-1.8,1c-0.3,0.2-0.7-0.1-0.7-0.4V172c0-0.4,0.4-0.6,0.7-0.5l1.7,0.8c0.3,0.2,0.5,0.4,0.5,0.8
		v1.6C364.9,174.9,364.8,175.1,364.7,175.2z"/>
	<path class="st79" d="M361.7,174.7h-1.1v-1.6h1.1c0.2,0,0.3,0.2,0.3,0.3v0.9C362,174.6,361.9,174.7,361.7,174.7z"/>
	<path class="st80" d="M360.6,174.7l-0.2-0.1c-0.1,0-0.1-0.1-0.1-0.2v-1.1c0-0.1,0.1-0.1,0.1-0.2l0.1-0.1L360.6,174.7L360.6,174.7z"
		/>
</g>
<g>
	<path class="st78" d="M357,175.2l-1.8,1c-0.3,0.2-0.7-0.1-0.7-0.4V172c0-0.4,0.4-0.6,0.7-0.5l1.7,0.8c0.3,0.2,0.5,0.4,0.5,0.8v1.6
		C357.3,174.9,357.2,175.2,357,175.2z"/>
	<path class="st79" d="M354.1,174.8H353v-1.6h1.1c0.2,0,0.3,0.2,0.3,0.3v0.9C354.4,174.6,354.2,174.8,354.1,174.8z"/>
	<path class="st80" d="M352.9,174.8l-0.2-0.1c-0.1,0-0.1-0.1-0.1-0.2v-1.1c0-0.1,0.1-0.1,0.1-0.2l0.1-0.1L352.9,174.8L352.9,174.8z"
		/>
</g>
<g>
	<path class="st78" d="M380.2,210.5l-1.8-1c-0.3-0.2-0.7,0.1-0.7,0.4v3.8c0,0.4,0.4,0.6,0.7,0.5l1.7-0.8c0.3-0.2,0.5-0.4,0.5-0.8
		v-1.6C380.5,210.7,380.4,210.6,380.2,210.5z"/>
	<path class="st79" d="M377.2,210.9h-1.1v1.6h1.1c0.2,0,0.3-0.2,0.3-0.3v-0.9C377.6,211.1,377.4,210.9,377.2,210.9z"/>
	<path class="st80" d="M376.1,210.9l-0.2,0.1c-0.1,0-0.1,0.1-0.1,0.2v1.1c0,0.1,0.1,0.1,0.1,0.2l0.1,0.1L376.1,210.9L376.1,210.9z"
		/>
</g>
<g>
	<path class="st78" d="M371.7,212.9l-1.8,1c-0.3,0.2-0.7-0.1-0.7-0.4v-3.8c0-0.4,0.4-0.6,0.7-0.5l1.7,0.8c0.3,0.2,0.5,0.4,0.5,0.8
		v1.6C371.9,212.6,371.8,212.8,371.7,212.9z"/>
	<path class="st79" d="M368.7,212.5h-1.1v-1.6h1.1c0.2,0,0.3,0.2,0.3,0.3v0.9C369,212.3,368.8,212.5,368.7,212.5z"/>
	<path class="st80" d="M367.6,212.4l-0.2-0.1c-0.1,0-0.1-0.1-0.1-0.2V211c0-0.1,0.1-0.1,0.1-0.2l0.1-0.1L367.6,212.4L367.6,212.4z"
		/>
</g>
<g>
	<path class="st78" d="M364,212.7l-1.8,1c-0.3,0.2-0.7-0.1-0.7-0.4v-3.8c0-0.4,0.4-0.6,0.7-0.5l1.7,0.8c0.3,0.2,0.5,0.4,0.5,0.8v1.6
		C364.2,212.5,364.1,212.6,364,212.7z"/>
	<path class="st79" d="M361,212.2h-1.1v-1.6h1.1c0.2,0,0.3,0.2,0.3,0.3v0.9C361.3,212.1,361.2,212.2,361,212.2z"/>
	<path class="st80" d="M359.8,212.2l-0.2-0.1c-0.1,0-0.1-0.1-0.1-0.2v-1.1c0-0.1,0.1-0.1,0.1-0.2l0.1-0.1L359.8,212.2L359.8,212.2z"
		/>
</g>
<g>
	<path class="st78" d="M356.3,212.7l-1.8,1c-0.3,0.2-0.7-0.1-0.7-0.4v-3.8c0-0.4,0.4-0.6,0.7-0.5l1.7,0.8c0.3,0.2,0.5,0.4,0.5,0.8
		v1.6C356.6,212.5,356.5,212.7,356.3,212.7z"/>
	<path class="st79" d="M353.3,212.3h-1.1v-1.6h1.1c0.2,0,0.3,0.2,0.3,0.3v0.9C353.6,212.1,353.5,212.3,353.3,212.3z"/>
	<path class="st80" d="M352.2,212.3l-0.2-0.1c-0.1,0-0.1-0.1-0.1-0.2v-1.1c0-0.1,0.1-0.1,0.1-0.2l0.1-0.1L352.2,212.3L352.2,212.3z"
		/>
</g>
<g>
	<path class="st55" d="M435.2,192.6h1.6V190h-1.6c-0.3,0-0.4,0.3-0.4,0.6v1.5C434.7,192.3,435,192.6,435.2,192.6z"/>
	<path class="st56" d="M436.9,192.5l0.2-0.1c0.1-0.1,0.1-0.1,0.1-0.2v-1.8c0-0.1-0.1-0.2-0.1-0.3L437,190
		C436.9,190.1,436.9,192.5,436.9,192.5z"/>
	<path class="st57" d="M435.4,192.3h1c0.3,0,0.4-0.2,0.4-0.5v-1.1c0-0.3-0.2-0.5-0.4-0.5h-1c-0.3,0-0.4,0.2-0.4,0.5v1.1
		C435,192.1,435.1,192.3,435.4,192.3z"/>
	<rect x="429.1" y="186.7" class="st58" width="4.8" height="9.4"/>
</g>
<g>
	<path class="st59" d="M409.6,212.7l2.2,1.2c0.4,0.2,0.8-0.1,0.8-0.5v-4.6c0-0.5-0.4-0.7-0.8-0.6l-2,1c-0.4,0.2-0.6,0.5-0.6,1v2
		C409.2,212.4,409.4,212.6,409.6,212.7z"/>
	<path class="st60" d="M408.6,212.2h-1.3v-2h1.3c0.2,0,0.4,0.2,0.4,0.4v1.1C409,212,408.9,212.2,408.6,212.2z"/>
	<path class="st61" d="M407.3,212.1l-0.2-0.1c-0.1,0-0.1-0.1-0.1-0.2v-1.4c0-0.1,0.1-0.1,0.1-0.2l0.1-0.1L407.3,212.1L407.3,212.1z"
		/>
</g>
<g>
	<path class="st62" d="M412.3,207.6l-2.2,1.2c-0.4,0.2-0.8-0.1-0.8-0.5v-4.5c0-0.5,0.4-0.7,0.8-0.6l2,1c0.4,0.2,0.6,0.5,0.6,1v2
		C412.6,207.3,412.5,207.5,412.3,207.6z"/>
	<path class="st63" d="M408.6,207.1h-1.3v-2h1.3c0.2,0,0.4,0.2,0.4,0.4v1.1C409,206.9,408.9,207.1,408.6,207.1z"/>
	<path class="st64" d="M407.3,207l-0.2-0.1c-0.1,0-0.1-0.1-0.1-0.2v-1.4c0-0.1,0.1-0.1,0.1-0.2l0.1-0.1L407.3,207L407.3,207z"/>
</g>
<g>
	<path class="st59" d="M409.9,202.5l2.2,1.2c0.4,0.2,0.8-0.1,0.8-0.5v-4.5c0-0.5-0.4-0.7-0.8-0.6l-2,1c-0.4,0.2-0.6,0.5-0.6,1v2
		C409.6,202.1,409.7,202.4,409.9,202.5z"/>
	<path class="st60" d="M408.9,202h-1.3v-2h1.3c0.2,0,0.4,0.2,0.4,0.4v1.1C409.3,201.8,409.1,202,408.9,202z"/>
	<path class="st61" d="M407.6,201.9l-0.2-0.1c-0.1,0-0.1-0.1-0.1-0.2v-1.4c0-0.1,0.1-0.1,0.1-0.2l0.1-0.1L407.6,201.9L407.6,201.9z"
		/>
</g>
<g>
	<path class="st59" d="M399.3,211.9l2.2,1.2c0.4,0.2,0.8-0.1,0.8-0.5v-4.5c0-0.5-0.4-0.7-0.8-0.6l-2,1c-0.4,0.2-0.6,0.5-0.6,1v2
		C399,211.6,399.2,211.8,399.3,211.9z"/>
	<path class="st60" d="M398.4,211.3h-1.3v-2h1.3c0.2,0,0.4,0.2,0.4,0.4v1.1C398.8,211.2,398.6,211.3,398.4,211.3z"/>
	<path class="st61" d="M397.1,211.3l-0.2-0.1c-0.1,0-0.1-0.1-0.1-0.2v-1.4c0-0.1,0.1-0.1,0.1-0.2l0.1-0.1L397.1,211.3L397.1,211.3z"
		/>
</g>
<g>
	<path class="st62" d="M402.1,206.8l-2.2,1.2c-0.4,0.2-0.8-0.1-0.8-0.5V203c0-0.5,0.4-0.7,0.8-0.6l2,1c0.4,0.2,0.6,0.5,0.6,1v2
		C402.4,206.5,402.2,206.7,402.1,206.8z"/>
	<path class="st63" d="M398.4,206.2h-1.3v-2h1.3c0.2,0,0.4,0.2,0.4,0.4v1.1C398.8,206,398.6,206.2,398.4,206.2z"/>
	<path class="st64" d="M397.1,206.2l-0.2-0.1c-0.1,0-0.1-0.1-0.1-0.2v-1.4c0-0.1,0.1-0.1,0.1-0.2l0.1-0.1L397.1,206.2L397.1,206.2z"
		/>
</g>
<g>
	<path class="st59" d="M399.6,201.7l2.2,1.2c0.4,0.2,0.8-0.1,0.8-0.5v-4.5c0-0.5-0.4-0.7-0.8-0.6l-2,1c-0.4,0.2-0.6,0.5-0.6,1v2
		C399.3,201.3,399.5,201.5,399.6,201.7z"/>
	<path class="st60" d="M398.7,201.1h-1.3v-2h1.3c0.2,0,0.4,0.2,0.4,0.4v1.1C399.1,201,398.9,201.1,398.7,201.1z"/>
	<path class="st61" d="M397.3,201.1l-0.2-0.1c-0.1,0-0.1-0.1-0.1-0.2v-1.4c0-0.1,0.1-0.1,0.1-0.2l0.1-0.1L397.3,201.1L397.3,201.1z"
		/>
</g>
<g>
	<path class="st68" d="M423.5,180.4l-2.4,1.1c-0.4,0.2-0.9-0.1-0.9-0.5V177c0-0.4,0.5-0.7,0.9-0.5l2.2,0.9c0.4,0.2,0.6,0.5,0.6,0.9
		v1.8C423.8,180.1,423.7,180.3,423.5,180.4z"/>
	<path class="st69" d="M419.6,179.9h-1.4v-1.8h1.4c0.2,0,0.4,0.2,0.4,0.4v1C420,179.7,419.8,179.9,419.6,179.9z"/>
	<path class="st70" d="M418.1,179.9l-0.2-0.1c-0.1,0-0.1-0.1-0.1-0.2v-1.2c0-0.1,0.1-0.1,0.1-0.2l0.1-0.1L418.1,179.9L418.1,179.9z"
		/>
</g>
<g>
	<path class="st65" d="M420.9,175.8l2.4,1.1c0.4,0.2,0.9-0.1,0.9-0.5v-4.1c0-0.4-0.5-0.7-0.9-0.5l-2.2,0.9c-0.4,0.2-0.6,0.5-0.6,0.9
		v1.8C420.6,175.5,420.7,175.7,420.9,175.8z"/>
	<path class="st66" d="M419.8,175.3h-1.4v-1.8h1.4c0.2,0,0.4,0.2,0.4,0.4v1C420.3,175.1,420.1,175.3,419.8,175.3z"/>
	<path class="st67" d="M418.4,175.3l-0.2-0.1c-0.1,0-0.1-0.1-0.1-0.2v-1.2c0-0.1,0.1-0.1,0.1-0.2l0.1-0.1L418.4,175.3L418.4,175.3z"
		/>
</g>
<g>
	<path class="st68" d="M413.5,180.2l-2.4,1.1c-0.4,0.2-0.9-0.1-0.9-0.5v-4.1c0-0.4,0.5-0.7,0.9-0.5l2.2,0.9c0.4,0.2,0.6,0.5,0.6,0.9
		v1.8C413.8,179.9,413.7,180.1,413.5,180.2z"/>
	<path class="st69" d="M409.6,179.7h-1.4v-1.8h1.4c0.2,0,0.4,0.2,0.4,0.4v1C410,179.5,409.8,179.7,409.6,179.7z"/>
	<path class="st70" d="M408.1,179.7l-0.2-0.1c-0.1,0-0.1-0.1-0.1-0.2v-1.2c0-0.1,0.1-0.1,0.1-0.2l0.1-0.1L408.1,179.7L408.1,179.7z"
		/>
</g>
<g>
	<path class="st65" d="M410.9,175.6l2.4,1.1c0.4,0.2,0.9-0.1,0.9-0.5v-4.1c0-0.4-0.5-0.7-0.9-0.5l-2.2,0.9c-0.4,0.2-0.6,0.5-0.6,0.9
		v1.8C410.5,175.3,410.6,175.5,410.9,175.6z"/>
	<path class="st66" d="M409.8,175.1h-1.4v-1.8h1.4c0.2,0,0.4,0.2,0.4,0.4v1C410.3,174.9,410.1,175.1,409.8,175.1z"/>
	<path class="st67" d="M408.4,175.1l-0.2-0.1c-0.1,0-0.1-0.1-0.1-0.2v-1.2c0-0.1,0.1-0.1,0.1-0.2l0.1-0.1L408.4,175.1L408.4,175.1z"
		/>
</g>
<g>
	<path class="st65" d="M400.6,184.9l2.4,1.1c0.4,0.2,0.9-0.1,0.9-0.5v-4.1c0-0.4-0.5-0.7-0.9-0.5l-2.2,0.9c-0.4,0.2-0.6,0.5-0.6,0.9
		v1.8C400.2,184.6,400.4,184.8,400.6,184.9z"/>
	<path class="st66" d="M399.6,184.4h-1.4v-1.8h1.4c0.2,0,0.4,0.2,0.4,0.4v1C400,184.2,399.8,184.4,399.6,184.4z"/>
	<path class="st67" d="M398.1,184.4l-0.2-0.1c-0.1,0-0.1-0.1-0.1-0.2v-1.2c0-0.1,0.1-0.1,0.1-0.2l0.1-0.1L398.1,184.4L398.1,184.4z"
		/>
</g>
<g>
	<path class="st68" d="M403.5,180.2l-2.4,1.1c-0.4,0.2-0.9-0.1-0.9-0.5v-4.2c0-0.4,0.5-0.7,0.9-0.5l2.2,0.9c0.4,0.2,0.6,0.5,0.6,0.9
		v1.8C403.8,179.9,403.7,180.2,403.5,180.2z"/>
	<path class="st69" d="M399.6,179.7h-1.4V178h1.4c0.2,0,0.4,0.2,0.4,0.4v1C400,179.6,399.8,179.7,399.6,179.7z"/>
	<path class="st70" d="M398.1,179.7l-0.2-0.1c-0.1,0-0.1-0.1-0.1-0.2v-1.2c0-0.1,0.1-0.1,0.1-0.2l0.1-0.1L398.1,179.7L398.1,179.7z"
		/>
</g>
<g>
	<path class="st65" d="M400.9,175.6l2.4,1.1c0.4,0.2,0.9-0.1,0.9-0.5v-4.1c0-0.4-0.5-0.7-0.9-0.5l-2.2,0.9c-0.4,0.2-0.6,0.5-0.6,0.9
		v1.8C400.6,175.4,400.7,175.5,400.9,175.6z"/>
	<path class="st66" d="M399.9,175.1h-1.4v-1.8h1.4c0.2,0,0.4,0.2,0.4,0.4v1C400.3,174.9,400.1,175.1,399.9,175.1z"/>
	<path class="st67" d="M398.4,175.1l-0.2-0.1c-0.1,0-0.1-0.1-0.1-0.2v-1.2c0-0.1,0.1-0.1,0.1-0.2l0.1-0.1L398.4,175.1L398.4,175.1z"
		/>
</g>
<g>
	<path class="st59" d="M418.3,212.6l2.2,1.2c0.4,0.2,0.8-0.1,0.8-0.5v-4.5c0-0.5-0.4-0.7-0.8-0.6l-2,1c-0.4,0.2-0.6,0.5-0.6,1v2
		C418,212.2,418.1,212.4,418.3,212.6z"/>
	<path class="st60" d="M417.4,212h-1.3v-2h1.3c0.2,0,0.4,0.2,0.4,0.4v1.1C417.7,211.8,417.5,212,417.4,212z"/>
	<path class="st61" d="M416,212l-0.2-0.1c-0.1,0-0.1-0.1-0.1-0.2v-1.4c0-0.1,0.1-0.1,0.1-0.2l0.1-0.1L416,212L416,212z"/>
</g>
<g>
	<path class="st62" d="M421,207.4l-2.2,1.2c-0.4,0.2-0.8-0.1-0.8-0.5v-4.5c0-0.5,0.4-0.7,0.8-0.6l2,1c0.4,0.2,0.6,0.5,0.6,1v2
		C421.3,207.1,421.2,207.3,421,207.4z"/>
	<path class="st63" d="M417.4,206.8h-1.3v-2h1.3c0.2,0,0.4,0.2,0.4,0.4v1.1C417.7,206.6,417.5,206.8,417.4,206.8z"/>
	<path class="st64" d="M416,206.8l-0.2-0.1c-0.1,0-0.1-0.1-0.1-0.2v-1.4c0-0.1,0.1-0.1,0.1-0.2l0.1-0.1L416,206.8L416,206.8z"/>
</g>
<g>
	<path class="st59" d="M418.6,202.3l2.2,1.2c0.4,0.2,0.8-0.1,0.8-0.5v-4.5c0-0.5-0.4-0.7-0.8-0.6l-2,1c-0.4,0.2-0.6,0.5-0.6,1v2
		C418.3,202,418.4,202.2,418.6,202.3z"/>
	<path class="st60" d="M417.6,201.7h-1.3v-2h1.3c0.2,0,0.4,0.2,0.4,0.4v1.1C418,201.6,417.9,201.7,417.6,201.7z"/>
	<path class="st61" d="M416.2,201.7l-0.2-0.1c-0.1,0-0.1-0.1-0.1-0.2v-1.4c0-0.1,0.1-0.1,0.1-0.2l0.1-0.1L416.2,201.7L416.2,201.7z"
		/>
</g>
</svg>
