<?xml version="1.0" encoding="utf-8"?>
<!-- Generator: Adobe Illustrator 26.1.0, SVG Export Plug-In . SVG Version: 6.00 Build 0)  -->
<svg version="1.1" id="Layer_1" xmlns="http://www.w3.org/2000/svg" xmlns:xlink="http://www.w3.org/1999/xlink" x="0px" y="0px"
	 viewBox="0 0 700 500" style="enable-background:new 0 0 700 500;" xml:space="preserve">
<style type="text/css">
	.st0{fill:#FFFFFF;}
	.st1{fill:#A7A9AC;}
	.st2{fill:#D1D3D4;}
	.st3{fill:none;stroke:#000000;stroke-width:1.9252;stroke-miterlimit:10;}
	.st4{fill:none;stroke:#000000;stroke-width:3.8504;stroke-miterlimit:10;}
	.st5{fill:none;stroke:#000000;stroke-width:0.9626;stroke-miterlimit:10;}
	.st6{fill:none;stroke:#000000;stroke-width:3.8528;stroke-miterlimit:10;}
	.st7{fill:none;stroke:#000000;stroke-width:0.5776;stroke-miterlimit:10;}
	.st8{fill:none;stroke:#000000;stroke-width:1.3477;stroke-miterlimit:10;}
	.st9{fill:none;stroke:#000000;stroke-width:4.428;stroke-miterlimit:10;}
	.st10{fill:#E6E7E8;}
	.st11{fill:none;stroke:#000000;stroke-width:2.214;stroke-miterlimit:10;}
	.st12{fill:none;stroke:#000000;stroke-width:0.7701;stroke-miterlimit:10;}
	.st13{fill:none;stroke:#000000;stroke-width:1.1551;stroke-miterlimit:10;}
	.st14{fill:none;stroke:#000000;stroke-width:9.6261;stroke-miterlimit:10;}
	.st15{fill:none;stroke:#000000;stroke-width:0.298;stroke-miterlimit:10;}
	.st16{fill:#C4DC79;stroke:#231F20;stroke-width:0.9813;stroke-miterlimit:10;}
</style>
<rect x="146.3" y="329.3" class="st0" width="543.2" height="106.4"/>
<rect x="637.3" y="409.2" class="st1" width="52.2" height="26.6"/>
<rect x="637.3" y="382.6" class="st2" width="52.2" height="26.6"/>
<rect x="146.3" y="10" class="st0" width="62.7" height="175"/>
<rect x="209" y="89.8" class="st0" width="62.7" height="88.7"/>
<rect x="209" y="10" class="st0" width="62.7" height="79.8"/>
<rect x="148.5" y="180.8" class="st0" width="186.5" height="150.8"/>
<rect x="209" y="222.9" class="st2" width="62.7" height="53.2"/>
<rect x="585" y="187.4" class="st0" width="104.5" height="141.9"/>
<rect x="20.9" y="276.1" class="st0" width="125.4" height="106.4"/>
<rect x="146.3" y="435.8" class="st0" width="188" height="26.6"/>
<line class="st3" x1="146.3" y1="462.4" x2="292.5" y2="462.4"/>
<line class="st3" x1="334.3" y1="435.8" x2="334.3" y2="462.4"/>
<line class="st4" x1="146.3" y1="435.8" x2="146.3" y2="462.4"/>
<line class="st3" x1="146.3" y1="435.8" x2="292.5" y2="435.8"/>
<line class="st4" x1="146.3" y1="435.8" x2="146.3" y2="382.6"/>
<line class="st4" x1="146.3" y1="382.6" x2="20.9" y2="382.6"/>
<line class="st4" x1="20.9" y1="382.6" x2="20.9" y2="276.1"/>
<line class="st4" x1="20.9" y1="276.1" x2="146.3" y2="276.1"/>
<line class="st4" x1="146.3" y1="10" x2="250.8" y2="10"/>
<line class="st4" x1="334.3" y1="435.8" x2="689.5" y2="435.8"/>
<line class="st4" x1="689.5" y1="435.8" x2="689.5" y2="187.4"/>
<line class="st4" x1="689.5" y1="187.4" x2="585" y2="187.4"/>
<line class="st4" x1="585" y1="187.4" x2="585" y2="329.3"/>
<line class="st4" x1="585" y1="329.3" x2="334.3" y2="329.3"/>
<line class="st4" x1="334.3" y1="329.3" x2="334.3" y2="222.9"/>
<line class="st4" x1="334.3" y1="222.9" x2="271.7" y2="222.9"/>
<line class="st3" x1="334.3" y1="311.6" x2="271.7" y2="311.6"/>
<line class="st3" x1="271.7" y1="311.6" x2="271.7" y2="302.7"/>
<line class="st3" x1="271.7" y1="293.9" x2="271.7" y2="276.1"/>
<line class="st3" x1="209" y1="72.1" x2="209" y2="10"/>
<line class="st3" x1="209" y1="178.5" x2="209" y2="116.4"/>
<line class="st3" x1="209" y1="178.5" x2="271.7" y2="178.5"/>
<line class="st4" x1="334.3" y1="178.5" x2="303" y2="178.5"/>
<line class="st4" x1="334.3" y1="178.5" x2="334.3" y2="196.3"/>
<line class="st4" x1="334.3" y1="222.9" x2="334.3" y2="205.1"/>
<line class="st4" x1="303" y1="178.5" x2="271.7" y2="178.5"/>
<line class="st4" x1="271.7" y1="178.5" x2="271.7" y2="10"/>
<line class="st4" x1="250.8" y1="10" x2="271.7" y2="10"/>
<line class="st3" x1="209" y1="81" x2="209" y2="107.6"/>
<line class="st3" x1="209" y1="89.8" x2="271.7" y2="89.8"/>
<line class="st3" x1="271.7" y1="222.9" x2="271.7" y2="276.1"/>
<line class="st5" x1="209" y1="276.1" x2="271.7" y2="276.1"/>
<line class="st5" x1="209" y1="267.2" x2="271.7" y2="267.2"/>
<line class="st5" x1="209" y1="258.4" x2="271.7" y2="258.4"/>
<line class="st5" x1="209" y1="249.5" x2="271.7" y2="249.5"/>
<line class="st5" x1="209" y1="240.6" x2="271.7" y2="240.6"/>
<line class="st5" x1="209" y1="231.8" x2="271.7" y2="231.8"/>
<line class="st6" x1="209" y1="222.9" x2="271.7" y2="222.9"/>
<line class="st5" x1="240.3" y1="276.1" x2="240.3" y2="222.9"/>
<line class="st7" x1="334.3" y1="196.3" x2="334.3" y2="205.1"/>
<line class="st7" x1="209" y1="107.6" x2="209" y2="116.4"/>
<line class="st7" x1="209" y1="72.1" x2="209" y2="81"/>
<line class="st8" x1="209" y1="81" x2="219.4" y2="81"/>
<line class="st8" x1="219.4" y1="81" x2="219.4" y2="63.2"/>
<line class="st8" x1="219.4" y1="63.2" x2="261.2" y2="63.2"/>
<line class="st7" x1="219.4" y1="81" x2="219.4" y2="89.8"/>
<line class="st9" x1="146.3" y1="462.4" x2="104.5" y2="462.4"/>
<line class="st9" x1="104.5" y1="462.4" x2="104.5" y2="489"/>
<line class="st9" x1="334.3" y1="435.8" x2="334.3" y2="489"/>
<line class="st3" x1="334.3" y1="435.8" x2="313.4" y2="435.8"/>
<line class="st3" x1="334.3" y1="462.4" x2="313.4" y2="462.4"/>
<line class="st7" x1="292.5" y1="462.4" x2="313.4" y2="462.4"/>
<line class="st7" x1="292.5" y1="435.8" x2="313.4" y2="435.8"/>
<line class="st3" x1="689.5" y1="409.2" x2="637.3" y2="409.2"/>
<line class="st3" x1="689.5" y1="382.6" x2="637.3" y2="382.6"/>
<line class="st5" x1="637.3" y1="382.6" x2="637.3" y2="409.2"/>
<line class="st5" x1="647.7" y1="382.6" x2="647.7" y2="409.2"/>
<line class="st5" x1="658.2" y1="382.6" x2="658.2" y2="409.2"/>
<line class="st5" x1="668.6" y1="382.6" x2="668.6" y2="409.2"/>
<line class="st5" x1="679.1" y1="382.6" x2="679.1" y2="409.2"/>
<line class="st5" x1="679.1" y1="409.2" x2="679.1" y2="435.8"/>
<line class="st5" x1="668.6" y1="409.2" x2="668.6" y2="435.8"/>
<line class="st5" x1="658.2" y1="409.2" x2="658.2" y2="435.8"/>
<line class="st5" x1="647.7" y1="409.2" x2="647.7" y2="435.8"/>
<line class="st5" x1="637.3" y1="409.2" x2="637.3" y2="435.8"/>
<line class="st3" x1="334.3" y1="329.3" x2="334.3" y2="391.4"/>
<line class="st3" x1="334.3" y1="391.4" x2="407.5" y2="391.4"/>
<line class="st3" x1="428.3" y1="329.3" x2="428.3" y2="391.4"/>
<line class="st3" x1="428.3" y1="391.4" x2="491" y2="391.4"/>
<line class="st3" x1="585" y1="329.3" x2="585" y2="391.4"/>
<line class="st3" x1="553.7" y1="391.4" x2="511.9" y2="391.4"/>
<line class="st3" x1="511.9" y1="391.4" x2="511.9" y2="329.3"/>
<line class="st3" x1="511.9" y1="391.4" x2="501.5" y2="391.4"/>
<line class="st3" x1="428.3" y1="391.4" x2="417.9" y2="391.4"/>
<rect x="146.3" y="258.4" class="st10" width="62.7" height="17.7"/>
<line class="st3" x1="585" y1="391.4" x2="564.1" y2="391.4"/>
<line class="st7" x1="553.7" y1="391.4" x2="564.1" y2="391.4"/>
<line class="st7" x1="491" y1="391.4" x2="501.5" y2="391.4"/>
<line class="st7" x1="407.5" y1="391.4" x2="417.9" y2="391.4"/>
<line class="st5" x1="177.6" y1="276.1" x2="177.6" y2="258.4"/>
<line class="st5" x1="146.3" y1="267.2" x2="209" y2="267.2"/>
<line class="st4" x1="146.3" y1="276.1" x2="146.3" y2="10"/>
<line class="st11" x1="209" y1="276.1" x2="209" y2="222.9"/>
<line class="st12" x1="146.3" y1="258.4" x2="209" y2="258.4"/>
<line class="st13" x1="146.3" y1="276.1" x2="209" y2="276.1"/>
<line class="st14" x1="146.3" y1="276.1" x2="146.3" y2="293.9"/>
<line class="st14" x1="146.3" y1="320.5" x2="146.3" y2="355.9"/>
<line class="st8" x1="209" y1="107.6" x2="219.4" y2="107.6"/>
<line class="st8" x1="219.4" y1="107.6" x2="219.4" y2="125.3"/>
<line class="st8" x1="219.4" y1="125.3" x2="261.2" y2="125.3"/>
<line class="st7" x1="219.4" y1="89.8" x2="219.4" y2="98.7"/>
<line class="st7" x1="271.7" y1="125.3" x2="261.2" y2="125.3"/>
<line class="st8" x1="219.4" y1="107.6" x2="219.4" y2="98.7"/>
<line class="st7" x1="271.7" y1="63.2" x2="261.2" y2="63.2"/>
<line class="st15" x1="271.7" y1="303.6" x2="271.7" y2="293.8"/>
<g>
	<rect x="282.7" y="239.4" class="st16" width="40" height="57"/>
	<g>
		<path d="M302.2,252.8c-5.4,0-9.7,4.6-9.7,10.2c0,1.8,0.4,3.5,1.3,5c0.2-0.1,0.5-0.2,0.8-0.2h2.1c0.8,0,1.4,0.5,1.4,1.2h4.2
			c-2.7,0-4.9-2.7-4.9-6s2.2-6,4.9-6s4.9,2.7,4.9,6s-2.2,6-4.9,6h4.2c0-0.7,0.6-1.2,1.4-1.2h2.1c0.3,0,0.6,0.1,0.8,0.2
			c0.8-1.5,1.3-3.2,1.3-5C311.9,257.4,307.5,252.8,302.2,252.8z M294.6,268.5c-0.4,0-0.7,0.3-0.7,0.6h3.5c0-0.3-0.3-0.6-0.7-0.6
			H294.6z M307.7,268.5c-0.4,0-0.7,0.3-0.7,0.6h3.5c0-0.3-0.3-0.6-0.7-0.6H307.7z M292.5,269.7c-1.1,0-2.1,0.8-2.1,1.8
			s0.9,1.8,2.1,1.8h19.4c1.1,0,2.1-0.8,2.1-1.8s-0.9-1.8-2.1-1.8H292.5z M291.8,273.8c0.3,3.4,3.6,6.1,7.6,6.1h5.5
			c4,0,7.3-2.7,7.6-6.1c-0.2,0-0.4,0.1-0.7,0.1h-19.4C292.3,273.9,292,273.8,291.8,273.8z M295.9,279.8c-0.4,0.5-0.6,1.4-0.6,2.5
			c0,0.3,0.3,0.6,0.7,0.6h12.5l0,0c0.4,0,0.7-0.3,0.7-0.6v-0.1c0-1.1-0.3-1.8-0.6-2.4c-1.1,0.4-2.2,0.7-3.5,0.7h-5.5
			C298.2,280.5,297,280.2,295.9,279.8z"/>
	</g>
</g>
</svg>
