<?xml version="1.0" encoding="utf-8"?>
<!-- Generator: Adobe Illustrator 26.1.0, SVG Export Plug-In . SVG Version: 6.00 Build 0)  -->
<svg version="1.1" id="Layer_1" xmlns="http://www.w3.org/2000/svg" xmlns:xlink="http://www.w3.org/1999/xlink" x="0px" y="0px"
	 viewBox="0 0 700 500" style="enable-background:new 0 0 700 500;" xml:space="preserve">
<style type="text/css">
	.st0{fill:#FFFFFF;stroke:#000000;stroke-width:0.4967;stroke-miterlimit:10;}
	.st1{fill:#FFFFFF;}
	.st2{fill:#D2D3D4;}
	.st3{fill:none;stroke:#010101;stroke-width:1.2295;stroke-miterlimit:10;}
	.st4{fill:none;stroke:#010101;stroke-width:1.2956;stroke-miterlimit:10;}
	.st5{fill:none;stroke:#010101;stroke-width:2.5912;stroke-miterlimit:10;}
	.st6{fill:none;stroke:#000000;stroke-width:2.4834;stroke-miterlimit:10;}
	.st7{fill:none;stroke:#010101;stroke-width:2.3905;stroke-miterlimit:10;}
	.st8{fill:#939598;}
	.st9{fill:none;stroke:#010101;stroke-width:2.4834;stroke-miterlimit:10;}
	.st10{fill:none;stroke:#010101;stroke-width:0.745;stroke-miterlimit:10;}
	.st11{fill:none;stroke:#010101;stroke-width:0.6663;stroke-miterlimit:10;}
	.st12{fill:none;stroke:#010101;stroke-width:0.7021;stroke-miterlimit:10;}
	.st13{fill:none;stroke:#010101;stroke-width:1.4044;stroke-miterlimit:10;}
	.st14{fill:none;stroke:#000000;stroke-width:1.3458;stroke-miterlimit:10;}
	.st15{fill:none;stroke:#000000;stroke-width:0.4967;stroke-miterlimit:10;}
	.st16{fill:none;stroke:#000000;stroke-width:0.745;stroke-miterlimit:10;}
	.st17{fill:#E6E7E8;stroke:#000000;stroke-width:1.2417;stroke-miterlimit:10;}
	.st18{fill:#010101;}
</style>
<g>
	<rect x="215" y="50" class="st0" width="99.5" height="130.2"/>
	<rect x="158.1" y="245.3" class="st1" width="383.7" height="65.1"/>
	<g>
		<rect x="357.1" y="310.4" class="st2" width="184.8" height="119.3"/>
		<line class="st3" x1="357.1" y1="410.4" x2="541.9" y2="410.4"/>
		<line class="st3" x1="357.1" y1="391.3" x2="541.9" y2="391.3"/>
		<line class="st4" x1="357.1" y1="372" x2="541.9" y2="372"/>
		<line class="st3" x1="357.1" y1="352.7" x2="541.9" y2="352.7"/>
		<line class="st3" x1="357.1" y1="333.6" x2="541.9" y2="333.6"/>
		<line class="st5" x1="446.1" y1="429.7" x2="446.1" y2="310.4"/>
		<line class="st6" x1="357.1" y1="310.4" x2="357.1" y2="429.7"/>
		<line class="st6" x1="541.9" y1="310.4" x2="541.9" y2="429.7"/>
		<line class="st7" x1="357.1" y1="429.7" x2="541.9" y2="429.7"/>
	</g>
	<g>
		<rect x="158.1" y="310.4" class="st8" width="184.8" height="119.3"/>
		<line class="st3" x1="158.1" y1="410.4" x2="342.9" y2="410.4"/>
		<line class="st3" x1="158.1" y1="391.3" x2="342.9" y2="391.3"/>
		<line class="st4" x1="158.1" y1="372" x2="342.9" y2="372"/>
		<line class="st3" x1="158.1" y1="352.7" x2="342.9" y2="352.7"/>
		<line class="st3" x1="158.1" y1="333.6" x2="342.9" y2="333.6"/>
		<line class="st5" x1="247.1" y1="429.7" x2="247.1" y2="310.4"/>
		<line class="st6" x1="158.1" y1="310.4" x2="158.1" y2="429.7"/>
		<line class="st6" x1="342.9" y1="310.4" x2="342.9" y2="429.7"/>
		<line class="st7" x1="158.1" y1="429.7" x2="342.9" y2="429.7"/>
	</g>
	<line class="st9" x1="541.9" y1="245.3" x2="541.9" y2="267"/>
	<line class="st9" x1="541.9" y1="310.4" x2="541.9" y2="288.7"/>
	<line class="st10" x1="541.9" y1="267" x2="541.9" y2="288.7"/>
	<line class="st9" x1="541.9" y1="245.3" x2="314.5" y2="245.3"/>
	<line class="st9" x1="158.1" y1="245.3" x2="158.1" y2="310.4"/>
	<g>
		<rect x="215" y="180.2" class="st2" width="99.5" height="65.1"/>
		<line class="st11" x1="215" y1="190.7" x2="314.5" y2="190.7"/>
		<line class="st11" x1="215" y1="201.1" x2="314.5" y2="201.1"/>
		<line class="st12" x1="215" y1="211.7" x2="314.5" y2="211.7"/>
		<line class="st11" x1="215" y1="222.2" x2="314.5" y2="222.2"/>
		<line class="st11" x1="215" y1="232.6" x2="314.5" y2="232.6"/>
		<line class="st13" x1="262.9" y1="180.2" x2="262.9" y2="245.3"/>
		<line class="st14" x1="215" y1="245.3" x2="215" y2="180.2"/>
		<line class="st14" x1="314.5" y1="245.3" x2="314.5" y2="180.2"/>
		<line class="st4" x1="215" y1="180.2" x2="314.5" y2="180.2"/>
	</g>
	<line class="st9" x1="215" y1="245.3" x2="158.1" y2="245.3"/>
	<line class="st15" x1="342.9" y1="310.4" x2="158.1" y2="310.4"/>
	<line class="st15" x1="357.1" y1="310.4" x2="541.9" y2="310.4"/>
	<line class="st15" x1="342.9" y1="310.4" x2="357.1" y2="310.4"/>
	<line class="st6" x1="215" y1="180.2" x2="215" y2="50"/>
	<line class="st6" x1="314.5" y1="50" x2="314.5" y2="115.1"/>
	<line class="st6" x1="314.5" y1="180.2" x2="314.5" y2="136.8"/>
	<line class="st16" x1="314.5" y1="115.1" x2="314.5" y2="136.8"/>
	<g>
		<ellipse class="st17" cx="477.3" cy="277.8" rx="21.3" ry="16.3"/>
		<g>
			<path class="st18" d="M462.7,273.9c-0.6,0.4-0.6,1.1-0.1,1.5s1.4,0.5,1.9,0.1L462.7,273.9z M490,275.5c0.6,0.4,1.4,0.3,1.9-0.1
				c0.5-0.4,0.5-1.1-0.1-1.5L490,275.5z M477.3,285.6c-0.8,0-1.4,0.5-1.4,1.1c0,0.6,0.6,1.1,1.4,1.1V285.6z M477.3,287.7
				c0.8,0,1.4-0.5,1.4-1.1c0-0.6-0.6-1.1-1.4-1.1V287.7z M480.9,283.5c0.6,0.4,1.4,0.4,1.9-0.1c0.5-0.4,0.5-1.1-0.1-1.5L480.9,283.5
				z M485.6,279.5c0.6,0.4,1.4,0.4,1.9-0.1s0.5-1.1-0.1-1.5L485.6,279.5z M471.7,281.9c-0.6,0.4-0.6,1.1-0.1,1.5s1.4,0.5,1.9,0.1
				L471.7,281.9z M467.1,277.9c-0.6,0.4-0.6,1.1-0.1,1.5s1.4,0.5,1.9,0.1L467.1,277.9z M464.5,275.5c3.4-2.4,7.9-3.8,12.8-3.8v-2.1
				c-5.6,0-10.7,1.6-14.6,4.3L464.5,275.5z M477.3,271.7c4.9,0,9.4,1.4,12.8,3.8l1.8-1.6c-3.9-2.7-9-4.3-14.6-4.3V271.7z
				 M477.3,287.7L477.3,287.7v-2.1l0,0V287.7z M477.3,282.3c1.4,0,2.7,0.4,3.7,1.1l1.8-1.6c-1.4-1-3.4-1.7-5.5-1.7L477.3,282.3
				L477.3,282.3z M477.3,277c3.2,0,6.1,1,8.3,2.5l1.8-1.6c-2.7-1.9-6.2-3.1-10.1-3.1L477.3,277L477.3,277z M473.6,283.5
				c1-0.7,2.3-1.1,3.7-1.1v-2.1c-2.1,0-4.1,0.6-5.5,1.7L473.6,283.5z M469,279.5c2.2-1.6,5.1-2.5,8.3-2.5v-2.1
				c-3.9,0-7.4,1.1-10.1,3.1L469,279.5z"/>
		</g>
	</g>
</g>
</svg>
