<?xml version="1.0" standalone="no"?>
<!DOCTYPE svg PUBLIC "-//W3C//DTD SVG 20010904//EN"
 "http://www.w3.org/TR/2001/REC-SVG-20010904/DTD/svg10.dtd">
<svg version="1.0" xmlns="http://www.w3.org/2000/svg"
 width="2000.000000pt" height="2006.000000pt" viewBox="0 0 2000.000000 2006.000000"
 preserveAspectRatio="xMidYMid meet">
<metadata>
Created by potrace 1.15, written by Peter Selinger 2001-2017
</metadata>
<g transform="translate(0.000000,2006.000000) scale(0.100000,-0.100000)"
fill="#000000" stroke="none">
<path d="M9460 20040 c-52 -10 -201 -30 -330 -44 -449 -51 -510 -62 -955 -172
-365 -91 -454 -116 -710 -201 -478 -158 -964 -379 -1385 -631 -170 -102 -519
-335 -663 -444 -646 -488 -1168 -1093 -1549 -1793 -100 -184 -280 -563 -346
-730 -220 -555 -379 -1276 -412 -1870 -6 -99 -19 -268 -30 -375 -33 -326 -25
-527 36 -830 59 -295 180 -564 327 -726 l47 -52 -24 -15 c-109 -72 -268 -243
-378 -406 -171 -256 -242 -471 -255 -766 -7 -193 6 -335 81 -837 88 -590 120
-848 128 -1052 l3 -70 -100 -80 c-132 -106 -204 -181 -243 -254 -55 -102 -51
-117 97 -355 114 -183 258 -438 456 -806 87 -161 178 -320 203 -352 59 -80
218 -199 264 -199 24 0 207 197 275 296 33 49 84 132 113 184 92 164 302 455
379 524 21 19 21 19 47 -5 61 -57 134 -191 184 -335 l18 -52 -72 34 c-82 38
-160 58 -192 50 -36 -9 -146 -137 -191 -222 -94 -178 -122 -366 -98 -651 49
-568 57 -616 220 -1203 35 -129 84 -318 107 -420 38 -168 44 -186 71 -209 l30
-25 -26 -11 -27 -11 -4 -189 c-2 -105 -11 -251 -20 -325 -9 -74 -16 -190 -16
-257 l0 -123 230 0 c212 0 230 1 230 18 0 9 -5 46 -10 82 -11 83 -27 314 -40
604 -7 151 -15 235 -23 244 -7 9 -26 21 -43 28 -35 15 -98 3 -190 -34 l-51
-21 14 52 c8 29 23 60 32 69 29 30 258 49 556 47 l260 -2 131 32 c157 37 236
39 390 10 142 -27 251 -26 404 1 185 33 282 30 455 -14 190 -50 244 -53 460
-26 215 27 265 24 482 -26 101 -23 194 -38 259 -42 98 -4 102 -4 190 33 207
86 251 98 364 99 58 1 182 -3 277 -8 196 -10 183 -13 340 77 206 118 238 122
754 92 l135 -8 161 76 c88 42 193 85 234 97 89 24 212 26 349 5 52 -8 127 -15
166 -15 71 0 73 1 163 60 147 97 160 101 299 113 115 9 287 0 333 -18 8 -3 26
-25 41 -49 l27 -44 -37 -6 c-20 -3 -77 -10 -127 -16 -49 -6 -97 -14 -105 -16
-25 -9 6 -21 146 -59 l128 -35 56 54 c30 29 103 88 162 130 l108 77 30 97 c64
208 96 420 135 892 14 168 30 338 35 378 6 40 10 75 10 77 0 12 -217 139 -333
195 -210 101 -416 165 -667 209 -230 40 -316 46 -680 46 -331 -1 -362 -2 -458
-23 -270 -59 -367 -119 -702 -433 -171 -159 -222 -204 -305 -265 l-40 -29 50
65 c74 96 311 330 465 459 171 142 313 238 454 306 272 131 491 162 780 110
77 -14 157 -25 177 -25 53 0 197 44 327 100 l112 48 93 -80 c121 -105 199
-161 280 -199 116 -54 348 -89 586 -89 112 1 329 15 337 22 1 2 10 84 19 183
60 659 140 1013 305 1361 74 155 125 231 220 325 180 176 356 217 1030 239
319 10 538 21 820 40 85 6 308 9 495 8 l339 -3 32 -82 32 -81 -77 -63 c-42
-34 -101 -74 -131 -88 l-55 -26 -395 -1 c-320 -1 -416 -4 -505 -18 -461 -73
-644 -284 -725 -835 -31 -215 -39 -448 -33 -992 3 -278 3 -518 -1 -532 l-7
-28 -46 33 c-78 53 -198 174 -346 348 -228 268 -327 356 -481 431 -98 48 -163
52 -241 15 -59 -27 -89 -59 -147 -159 -150 -257 -306 -779 -468 -1572 -34
-165 -74 -362 -91 -438 -16 -75 -58 -307 -94 -515 -85 -486 -126 -695 -181
-915 -142 -566 -353 -1036 -565 -1259 l-60 -63 32 60 c18 33 68 121 112 195
145 244 188 353 224 565 14 82 17 174 17 513 1 271 -2 411 -9 408 -5 -2 -102
-34 -215 -71 -449 -147 -801 -246 -1155 -324 -269 -60 -284 -65 -301 -108 -23
-54 -15 -916 9 -1017 9 -38 19 -71 21 -74 8 -7 318 27 399 43 79 17 222 82
252 116 19 20 20 41 23 523 1 275 5 516 8 534 l5 33 40 -23 c23 -13 47 -34 54
-48 10 -20 14 -133 17 -497 1 -259 6 -474 9 -477 11 -12 142 36 313 114 175
80 293 120 355 120 30 0 32 -2 20 -17 -33 -38 -151 -118 -244 -164 -55 -26
-181 -75 -280 -108 -99 -32 -245 -89 -325 -126 -80 -36 -170 -73 -200 -81 -30
-8 -128 -19 -217 -24 -189 -10 -208 -15 -373 -85 -69 -30 -152 -61 -185 -70
-76 -20 -210 -20 -349 0 -60 8 -156 15 -212 15 -89 0 -119 -5 -226 -36 -349
-104 -359 -106 -458 -107 -59 -1 -145 7 -230 22 -163 29 -272 25 -400 -13
-195 -59 -341 -57 -616 5 -177 40 -247 40 -424 1 -203 -45 -217 -46 -375 -17
-222 40 -341 48 -473 31 -129 -16 -190 -11 -359 29 -60 14 -199 34 -313 45
-217 21 -505 68 -630 101 -41 11 -104 36 -139 55 -35 19 -65 33 -67 32 -2 -2
8 -40 22 -83 87 -278 177 -651 225 -925 20 -113 22 -166 25 -550 2 -374 5
-437 22 -520 35 -170 106 -320 221 -462 160 -198 374 -308 678 -349 129 -17
447 -6 693 25 409 50 543 56 755 31 72 -9 211 -24 310 -35 99 -11 239 -31 311
-45 129 -25 138 -25 664 -25 l533 0 151 99 c190 124 359 229 758 469 175 105
485 294 690 420 205 126 596 366 868 532 1123 688 1728 1088 2330 1540 373
281 634 504 720 615 65 84 89 199 110 530 33 517 147 1433 240 1928 175 930
407 1637 903 2748 203 455 167 412 611 744 193 144 430 317 526 384 96 66 217
154 268 194 341 264 610 721 701 1192 70 361 97 784 67 1050 -68 612 -113 871
-227 1330 -76 305 -245 886 -335 1155 -396 1178 -1193 2313 -2224 3166 -119
98 -413 326 -550 425 -340 246 -747 488 -1237 733 -676 338 -981 460 -1433
576 -172 44 -451 102 -458 95 -5 -5 50 -53 127 -114 31 -24 171 -120 311 -214
140 -94 299 -204 353 -245 l98 -75 -103 -56 c-127 -70 -217 -124 -218 -132 0
-3 24 -11 53 -18 80 -21 441 -123 446 -127 7 -7 -58 -171 -130 -328 -38 -82
-68 -151 -66 -152 6 -7 155 -37 342 -69 202 -35 425 -82 425 -91 0 -2 -15 -41
-34 -86 -19 -46 -48 -122 -64 -170 l-31 -86 62 -25 c51 -21 327 -145 334 -151
2 -2 -112 -473 -123 -508 -4 -12 11 -25 58 -51 255 -140 527 -286 662 -356
138 -72 227 -122 315 -178 l23 -15 -33 -35 c-54 -55 -170 -139 -338 -243 -215
-132 -261 -163 -261 -175 0 -16 88 -87 216 -176 66 -45 142 -101 171 -126 50
-42 123 -131 123 -149 0 -5 -21 -24 -46 -43 -68 -51 -285 -262 -282 -273 2 -6
82 -39 178 -74 96 -35 230 -91 298 -125 l122 -61 -47 -37 c-73 -57 -116 -80
-401 -205 -145 -64 -300 -135 -344 -157 -70 -35 -78 -42 -66 -56 30 -37 215
-166 413 -287 116 -71 248 -156 294 -189 84 -60 174 -134 179 -147 5 -12 -229
-117 -433 -195 -110 -42 -230 -90 -268 -107 l-67 -31 152 -156 c145 -148 240
-274 220 -292 -4 -3 -99 -43 -212 -89 -113 -46 -207 -84 -209 -86 -14 -12 145
-190 339 -382 268 -266 284 -276 455 -293 l109 -11 117 -112 c129 -125 210
-184 297 -216 69 -26 123 -27 343 -10 232 19 297 4 454 -102 250 -170 447
-405 725 -868 124 -206 142 -248 148 -334 10 -165 -92 -295 -388 -495 -63 -43
-119 -80 -125 -83 -5 -3 -30 4 -54 16 l-44 23 122 92 c171 130 260 209 331
298 108 133 108 114 -5 294 -54 85 -101 157 -104 162 -4 4 -104 -38 -222 -94
-289 -136 -442 -200 -639 -265 -333 -111 -549 -164 -826 -201 -184 -24 -668
-24 -844 0 -845 118 -1563 587 -2041 1332 -414 646 -652 1527 -653 2420 0 164
4 254 13 283 12 42 88 139 99 127 3 -3 9 -204 12 -448 7 -429 8 -448 39 -652
42 -273 73 -439 114 -605 l33 -135 74 3 c134 5 300 23 540 57 129 19 291 41
360 49 344 43 802 129 1032 196 166 48 413 145 447 176 5 5 -69 91 -191 219
-57 61 -123 135 -147 164 -39 50 -41 56 -26 68 10 6 173 74 364 149 190 76
348 139 351 141 3 3 -6 13 -20 24 -118 93 -249 185 -515 361 -170 114 -323
217 -338 230 l-29 24 104 55 c56 31 180 91 273 133 268 123 475 224 475 233 0
4 -120 58 -267 118 -146 61 -268 115 -270 121 -7 20 113 149 237 256 69 59
125 111 125 117 0 5 -74 62 -165 126 -168 120 -236 173 -325 255 l-50 47 75
55 c41 31 182 127 313 213 131 87 234 161 230 165 -4 5 -71 41 -148 83 -466
248 -594 318 -712 389 -73 44 -135 84 -138 88 -3 5 23 122 59 260 58 226 63
251 48 259 -10 5 -100 43 -201 85 -102 42 -186 78 -188 80 -2 2 18 76 45 165
28 89 46 163 42 166 -5 3 -167 37 -361 75 -194 38 -355 72 -357 75 -18 18 60
233 139 384 33 64 46 97 38 102 -6 3 -109 32 -228 63 -270 71 -391 107 -391
116 0 12 144 114 253 179 59 35 107 66 107 70 0 11 -221 169 -482 345 -197
133 -222 154 -273 221 -88 114 -114 122 -490 150 -110 8 -238 21 -285 30 -70
12 -187 14 -650 14 -496 -1 -577 -4 -660 -19z m370 -60 c24 -59 -2 -101 -123
-192 -45 -34 -172 -152 -283 -263 -200 -199 -248 -261 -227 -293 5 -9 84 -35
190 -62 204 -53 339 -98 426 -142 58 -29 59 -30 41 -49 -38 -42 -83 -58 -244
-89 -384 -73 -836 -161 -853 -166 -10 -3 -17 -10 -15 -15 2 -6 50 -49 108 -97
115 -96 127 -117 86 -155 -35 -32 -110 -37 -604 -37 l-395 0 18 -20 c10 -11
84 -65 165 -120 81 -55 154 -108 163 -118 22 -24 13 -48 -22 -66 -46 -24 -699
-159 -948 -197 -99 -15 -108 -19 -99 -52 8 -33 83 -87 291 -207 218 -127 300
-183 330 -227 14 -21 25 -41 25 -44 0 -11 -268 -48 -505 -69 -126 -12 -261
-26 -300 -31 -83 -12 -244 -48 -264 -59 -11 -6 39 -62 189 -214 192 -195 202
-207 184 -221 -10 -8 -180 -95 -376 -192 -215 -107 -358 -184 -358 -192 0 -8
41 -93 91 -189 69 -132 88 -176 78 -182 -16 -10 -212 -65 -289 -81 -30 -6 -58
-14 -63 -18 -12 -11 45 -83 109 -139 238 -204 313 -268 495 -419 114 -94 219
-184 234 -199 60 -63 76 -146 29 -151 -455 -51 -801 -97 -811 -107 -3 -2 46
-85 108 -183 156 -247 234 -384 268 -473 l29 -75 -91 -23 c-125 -31 -307 -84
-307 -89 0 -11 76 -120 161 -233 148 -194 229 -323 229 -363 0 -9 -52 -34
-135 -67 -116 -45 -134 -55 -123 -67 7 -8 73 -60 148 -116 74 -56 156 -121
182 -145 42 -39 108 -128 108 -145 0 -4 -69 -7 -154 -7 -88 0 -157 -4 -161
-10 -3 -5 36 -37 87 -71 51 -34 112 -77 134 -96 42 -34 101 -109 92 -118 -3
-3 -43 -16 -89 -30 -164 -49 -231 -76 -219 -91 19 -22 182 -130 247 -163 113
-56 169 -64 428 -57 127 3 244 8 262 12 45 9 169 127 319 304 68 81 135 155
150 164 46 31 102 45 257 66 84 12 219 32 300 45 81 14 194 27 250 31 139 9
170 -5 287 -127 l86 -90 219 -1 c169 -1 243 3 320 17 104 18 569 34 620 21 23
-6 25 -11 25 -60 l0 -53 -437 -6 c-339 -4 -462 -9 -543 -22 -58 -9 -124 -17
-146 -17 -75 0 -139 48 -236 175 -60 78 -61 79 -97 73 -20 -3 -178 -27 -351
-51 -350 -51 -421 -65 -483 -96 -25 -13 -139 -118 -285 -263 l-243 -240 -908
-1 c-500 0 -912 2 -915 5 -4 5 7 69 21 114 5 18 -1 19 -168 13 -96 -4 -226
-14 -289 -22 -63 -8 -184 -18 -269 -21 l-154 -7 6 39 c4 21 7 47 7 56 0 9 22
29 53 47 58 33 147 107 147 122 0 22 -402 4 -813 -36 l-57 -6 0 66 0 65 193 0
c134 0 237 6 342 20 83 11 193 20 245 20 100 0 323 17 351 25 9 3 19 0 22 -7
3 -7 12 -29 21 -49 l15 -37 -85 -52 c-47 -29 -108 -74 -137 -101 l-52 -49 45
5 c147 17 748 65 817 65 10 0 13 -22 13 -80 l0 -80 223 0 c240 0 467 9 467 19
0 3 -26 24 -57 46 -136 96 -212 157 -238 190 -15 20 -25 38 -22 41 4 4 188 51
270 68 21 5 27 12 27 32 0 33 -45 74 -193 176 -65 44 -136 102 -158 127 l-41
46 28 6 c16 4 100 7 188 8 147 1 157 2 145 18 -8 9 -77 67 -154 128 -141 113
-195 165 -195 190 0 21 112 70 215 96 50 12 92 23 94 25 7 6 -50 93 -151 229
-57 77 -122 167 -145 200 -41 60 -117 204 -111 210 6 5 171 54 287 84 62 17
116 32 119 35 6 7 -80 152 -223 376 -62 96 -121 193 -132 215 -23 46 -48 133
-41 141 11 10 229 54 343 69 120 15 353 35 407 35 l28 0 -20 40 c-30 58 -74
105 -180 189 -52 41 -163 132 -246 201 -82 69 -208 171 -278 228 -117 95 -186
172 -186 207 0 16 330 115 381 115 44 0 34 26 -89 229 -70 118 -73 125 -56
138 11 8 145 78 299 155 263 132 415 214 415 225 0 16 -112 151 -301 363 -60
67 -70 83 -65 105 11 42 49 52 286 75 369 34 690 76 690 89 0 4 -80 56 -177
116 -285 174 -431 272 -443 295 -19 35 4 78 49 89 38 10 505 102 849 167 111
21 202 41 202 44 0 10 -100 83 -188 137 -123 75 -194 133 -231 189 l-32 49
108 7 c59 4 243 7 408 7 484 -1 565 1 565 9 0 4 -32 32 -71 62 -68 53 -109
102 -109 132 0 23 178 71 415 113 110 20 243 45 295 56 116 24 301 80 295 89
-7 11 -133 54 -295 100 -148 43 -262 79 -269 86 -8 7 86 122 179 218 52 54
200 191 329 305 128 113 254 225 280 248 25 23 49 42 52 43 4 0 12 -13 19 -30z
m-1542 -7771 c-13 -23 -58 -71 -101 -107 -85 -72 -114 -113 -202 -290 -115
-232 -148 -386 -134 -627 21 -345 189 -648 588 -1068 l74 -77 -24 -26 c-13
-14 -36 -35 -51 -45 l-26 -19 -74 49 c-174 117 -434 443 -571 716 -86 173
-134 376 -123 521 17 226 94 433 233 626 78 109 304 327 372 361 30 15 57 27
59 27 2 0 -7 -19 -20 -41z m590 -24 c294 -33 1159 -188 1427 -256 368 -94 629
-235 743 -402 102 -149 156 -343 174 -631 9 -152 4 -1074 -7 -1084 -6 -6 -378
27 -605 54 -650 76 -1215 197 -1775 381 -258 84 -305 109 -349 182 -53 88
-110 208 -149 311 -93 251 -116 494 -78 815 28 240 49 382 62 429 12 44 76
117 134 154 98 62 193 73 423 47z m-4088 -399 c0 -2 -78 -69 -172 -149 -95
-79 -203 -176 -239 -214 -161 -170 -290 -403 -384 -688 -55 -166 -71 -243 -95
-468 -11 -100 -25 -206 -30 -236 -15 -83 -12 -210 9 -387 30 -248 33 -292 26
-353 l-6 -57 -92 -23 c-51 -13 -98 -26 -104 -29 -12 -4 -64 97 -84 162 -5 16
-20 115 -35 220 -34 252 -31 421 15 636 95 456 248 796 485 1077 141 169 372
345 606 465 100 50 100 50 100 44z m1415 -38 c-26 -169 -98 -408 -245 -818
-86 -240 -167 -484 -189 -567 -7 -23 -27 -134 -46 -246 -21 -127 -48 -245 -70
-313 -43 -131 -145 -337 -223 -454 -78 -114 -115 -137 -258 -156 -324 -43
-663 -64 -798 -50 l-69 8 6 316 c6 337 23 535 72 807 14 77 39 219 56 315 40
229 54 281 96 362 84 160 413 406 738 551 139 62 347 138 495 181 169 49 390
104 418 105 22 1 23 -2 17 -41z m950 -1842 c64 -29 115 -73 153 -134 34 -53
67 -130 59 -138 -2 -3 -61 24 -131 60 -110 58 -132 66 -181 66 -151 0 -337
-141 -462 -351 -107 -182 -355 -693 -400 -829 -73 -217 -141 -520 -213 -950
-17 -102 -38 -212 -46 -245 -23 -94 -75 -245 -83 -245 -11 0 -36 30 -54 65
-26 52 -29 107 -12 210 9 55 22 169 30 255 52 544 154 1005 320 1431 64 163
91 218 162 329 175 269 397 444 633 495 80 18 159 11 225 -19z m83 -487 c617
-346 1096 -878 1347 -1499 62 -153 68 -222 30 -335 -86 -256 -312 -441 -573
-469 -62 -7 -66 -6 -130 33 -37 22 -137 97 -223 168 -247 202 -346 250 -499
241 -149 -9 -257 -87 -447 -323 -44 -55 -108 -126 -141 -157 -78 -74 -102 -76
-228 -14 -97 47 -143 90 -177 165 -37 82 -30 125 77 466 373 1192 506 1500
749 1733 36 34 70 62 76 62 7 0 69 -32 139 -71z m2116 -8227 c6 -18 -2 -26
-63 -56 -443 -223 -1096 -423 -1751 -536 -249 -43 -411 -5 -908 211 -394 172
-356 164 -772 164 -317 0 -353 -2 -440 -22 -210 -48 -351 -75 -357 -69 -4 3 1
22 10 40 12 27 27 38 74 56 215 80 400 111 708 117 360 8 409 -4 844 -202 252
-114 412 -170 547 -190 135 -20 179 -19 351 10 547 94 1115 268 1591 488 l137
63 11 -26 c6 -14 15 -36 18 -48z"/>
<path d="M13546 13069 c-190 -47 -462 -96 -809 -144 -672 -95 -884 -125 -952
-138 l-70 -14 3 -32 c1 -17 21 -87 43 -154 153 -458 557 -1028 946 -1335 285
-225 622 -398 963 -495 240 -68 250 -69 769 -64 448 4 471 6 610 31 357 65
696 176 1109 363 194 87 322 151 322 159 0 15 -81 158 -137 242 -86 129 -168
226 -268 320 -92 86 -233 186 -287 204 -19 6 -165 13 -344 17 l-310 6 -67 34
c-36 18 -122 76 -191 128 -69 52 -130 92 -135 88 -6 -3 -31 -39 -56 -80 -50
-80 -48 -79 -145 -95 -165 -28 -286 -53 -299 -64 -14 -11 -31 -47 -45 -93 l-7
-23 178 0 c196 0 266 -11 361 -58 108 -52 150 -112 202 -287 l26 -90 -54 5
-55 5 -22 65 c-29 86 -67 160 -97 186 -49 45 -189 74 -455 95 l-153 12 0 118
c0 115 1 118 26 138 42 33 125 59 276 86 204 37 188 30 188 79 0 74 -5 81 -77
100 -37 9 -83 26 -102 36 -20 10 -135 118 -256 240 -121 122 -247 246 -280
275 -63 56 -213 165 -224 164 -3 0 -60 -14 -125 -30z"/>
<path d="M2545 11350 c-102 -26 -248 -84 -344 -137 -121 -66 -390 -248 -391
-264 0 -12 219 -217 306 -287 165 -131 318 -208 472 -238 40 -8 76 -14 79 -14
13 0 -7 381 -25 491 -18 105 -19 129 -8 245 13 143 10 224 -8 223 -6 0 -43 -8
-81 -19z"/>
<path d="M18895 11291 c-107 -51 -165 -127 -269 -351 -66 -141 -93 -181 -232
-345 -186 -220 -253 -321 -299 -458 -38 -114 -44 -223 -15 -307 31 -93 128
-275 267 -501 67 -108 131 -215 143 -239 32 -63 102 -133 162 -162 106 -52
518 -168 682 -193 168 -25 317 -15 382 26 46 28 59 64 88 244 58 357 60 454
11 689 -26 125 -38 215 -45 340 -12 213 -22 265 -72 396 -179 457 -522 889
-708 890 -19 0 -62 -13 -95 -29z"/>
<path d="M1190 11184 c-63 -13 -133 -41 -223 -93 -185 -105 -258 -181 -297
-309 -46 -149 -53 -226 -53 -612 0 -415 3 -440 85 -666 l44 -122 -46 -4 c-112
-11 -221 -102 -288 -241 -43 -87 -163 -457 -212 -650 -75 -296 -93 -724 -50
-1142 40 -383 61 -520 90 -580 39 -81 170 -214 252 -254 93 -47 131 -49 224
-11 110 44 236 111 394 212 74 47 196 124 270 171 74 47 180 114 235 149 126
79 222 173 264 256 l32 62 -3 183 c-3 174 -1 189 29 329 72 325 79 517 33 899
-26 215 -78 575 -96 662 -5 26 -4 27 38 27 107 0 227 -40 275 -92 12 -13 30
-41 39 -63 25 -59 30 -263 10 -460 -8 -88 -18 -236 -21 -330 -9 -240 -32 -526
-56 -690 -30 -210 -77 -422 -105 -476 -32 -64 -162 -194 -357 -358 -88 -74
-192 -167 -232 -208 -76 -77 -86 -98 -98 -209 l-5 -41 237 -6 c281 -8 393 -23
555 -77 174 -59 268 -114 518 -301 352 -266 618 -385 1077 -485 85 -18 158
-31 162 -28 15 9 31 118 27 188 -3 65 -8 80 -62 176 -97 172 -205 344 -470
745 -423 643 -540 837 -697 1159 -104 214 -159 352 -191 480 -26 101 -25 105
104 356 171 333 188 390 188 622 0 136 -13 256 -60 543 -17 105 -34 250 -37
323 l-6 133 -31 -6 c-17 -4 -87 -20 -156 -35 -161 -37 -241 -50 -315 -50 -33
0 -181 25 -330 55 -255 51 -348 66 -522 83 l-72 7 18 51 c14 43 41 77 150 190
130 136 225 260 237 311 9 33 -20 125 -50 159 -17 20 -42 31 -106 45 -83 19
-289 33 -340 23z"/>
<path d="M17719 9621 c-57 -39 -187 -136 -288 -218 -458 -369 -550 -437 -748
-548 -142 -79 -297 -145 -504 -212 l-176 -58 -22 -65 c-12 -36 -82 -258 -156
-495 -165 -530 -256 -796 -341 -1002 -36 -87 -72 -181 -80 -210 -28 -101 -44
-249 -44 -405 l0 -157 76 -56 c216 -160 237 -167 513 -173 319 -6 570 13 1181
90 323 41 327 41 770 47 485 7 465 5 613 71 l49 22 -4 356 c-4 347 -6 365 -42
622 -47 339 -47 365 -2 475 20 47 52 122 70 168 43 101 63 175 72 265 l6 70
-78 26 c-44 14 -172 48 -286 76 -358 87 -458 128 -554 225 l-61 62 -109 12
c-123 13 -194 26 -274 48 -51 15 -53 16 -30 25 36 14 302 3 540 -22 158 -17
241 -21 365 -17 207 7 245 21 245 91 0 35 -345 592 -547 883 l-50 73 -104 -69z"/>
<path d="M18743 8524 c-13 -3 -23 -10 -23 -15 0 -28 107 -215 216 -376 68
-101 124 -188 124 -192 0 -5 -16 -38 -36 -73 -108 -190 -187 -415 -231 -658
-24 -136 -24 -428 0 -575 34 -202 101 -359 179 -418 79 -61 225 -107 338 -107
143 0 302 63 386 152 58 61 66 89 84 296 16 176 39 253 126 426 73 144 77 154
76 217 0 52 -10 94 -43 190 -55 158 -55 188 0 344 38 110 42 128 43 225 1 153
-15 189 -192 433 -52 72 -57 76 -95 77 -22 0 -143 12 -270 26 -217 24 -623 41
-682 28z"/>
<path d="M944 6375 c-53 -14 -400 -151 -517 -204 -180 -81 -279 -166 -375
-322 l-52 -84 0 -111 c0 -93 5 -131 34 -245 19 -74 53 -224 76 -334 75 -363
111 -490 195 -675 115 -255 119 -269 165 -530 40 -227 71 -357 110 -456 44
-112 41 -110 141 -84 119 31 238 77 490 191 122 55 268 116 324 135 l102 35 7
76 c3 42 6 111 6 155 l0 78 -63 0 c-82 0 -195 -14 -400 -51 -92 -17 -175 -29
-185 -27 -26 6 93 68 253 133 206 84 229 112 290 356 20 79 58 218 85 309 92
308 104 368 104 531 l1 145 -42 85 c-24 46 -75 127 -113 179 -67 90 -132 185
-315 465 -91 138 -209 265 -246 264 -13 0 -47 -6 -75 -14z"/>
<path d="M1512 6303 c-18 -4 -21 -9 -16 -31 30 -137 89 -240 259 -452 206
-256 250 -354 249 -550 0 -127 -19 -210 -95 -423 -64 -177 -89 -289 -95 -412
-4 -89 -1 -119 13 -160 23 -63 35 -67 258 -68 240 -1 325 19 781 181 78 28
175 58 217 66 80 17 257 22 257 8 0 -11 -50 -57 -77 -71 -12 -6 -97 -32 -190
-57 -226 -61 -372 -110 -730 -244 l-303 -113 0 -89 c0 -60 5 -99 15 -118 35
-67 306 -250 470 -316 l88 -36 336 -14 c421 -17 551 -35 732 -105 81 -31 89
-42 89 -114 0 -25 34 -13 -445 -149 -127 -36 -288 -87 -358 -113 l-127 -47 0
-96 c0 -153 -37 -448 -86 -686 l-6 -31 60 8 c85 12 150 39 293 120 354 204
656 418 947 676 155 137 369 355 382 388 5 12 10 60 11 108 l3 86 -70 49 c-38
27 -75 56 -82 64 -7 9 -18 52 -24 96 -12 84 -10 118 28 427 18 151 16 185 -31
482 -50 311 -83 431 -163 588 -54 104 -167 228 -242 263 -27 12 -104 30 -190
42 -167 25 -314 65 -531 145 -85 31 -216 79 -291 106 -204 72 -223 84 -387
242 -156 151 -234 205 -381 265 -163 66 -446 108 -568 85z"/>
<path d="M19055 6059 c-60 -5 -202 -15 -315 -24 -113 -8 -279 -24 -370 -36
-156 -19 -166 -21 -187 -47 -33 -39 -52 -103 -68 -233 -8 -63 -29 -176 -46
-252 l-31 -137 17 -98 c46 -253 73 -319 194 -465 27 -32 74 -108 106 -170 78
-151 102 -185 219 -307 56 -58 157 -175 225 -260 215 -268 247 -300 549 -553
57 -47 159 -95 172 -80 12 13 141 516 194 753 61 275 77 396 86 650 15 404 -7
587 -90 757 -35 71 -54 94 -132 165 -50 46 -154 143 -230 216 -99 93 -145 132
-161 131 -12 -1 -71 -6 -132 -10z"/>
<path d="M17520 5754 c-172 -27 -417 -36 -810 -29 -612 11 -906 -18 -1170
-114 -162 -60 -296 -164 -348 -273 -47 -96 -95 -353 -152 -812 -45 -356 -46
-397 -25 -599 30 -278 49 -376 93 -470 75 -160 232 -409 455 -722 269 -376
583 -740 839 -972 124 -112 174 -147 664 -453 303 -190 336 -208 389 -215 32
-4 121 -23 199 -42 142 -35 281 -55 317 -46 20 6 20 27 3 140 -10 65 -183 236
-354 350 -89 60 -207 120 -348 178 -56 24 -128 58 -158 77 -67 40 -273 248
-302 304 -26 51 -165 595 -188 736 -16 101 -16 110 0 170 24 83 83 210 136
287 87 129 297 230 749 362 112 32 206 60 207 62 2 1 -17 79 -41 172 -55 211
-59 283 -18 353 15 26 59 87 98 137 173 222 216 305 160 305 -62 0 -166 102
-191 188 -17 58 -16 81 12 247 9 53 17 193 21 342 l6 251 -38 34 c-72 64 -94
70 -205 52z"/>
<path d="M10614 5408 c-51 -4 -120 -17 -155 -28 -72 -24 -160 -80 -189 -120
l-19 -27 127 -6 c180 -8 275 3 342 39 54 29 171 136 154 140 -28 7 -181 8
-260 2z"/>
<path d="M11455 5403 c-16 -2 -92 -23 -167 -46 -124 -38 -138 -44 -143 -67
-35 -166 -65 -627 -51 -762 l8 -68 41 6 c73 10 182 42 370 108 196 69 305 96
388 96 l52 0 -6 257 c-4 141 -7 296 -7 344 l0 88 -57 6 c-32 3 -129 15 -215
25 -86 11 -163 19 -170 19 -7 -1 -26 -4 -43 -6z"/>
<path d="M10910 5264 c-241 -166 -359 -191 -623 -134 -55 12 -101 19 -104 17
-2 -3 0 -58 6 -124 6 -65 16 -212 21 -328 9 -183 31 -385 46 -436 4 -14 11
-15 42 -8 295 70 467 114 557 143 l110 36 1 127 c1 71 11 223 23 338 13 122
21 257 19 322 l-3 112 -95 -65z"/>
<path d="M9538 5263 c-68 -18 -220 -93 -226 -110 -5 -17 279 -18 395 -3 126
17 243 42 243 52 0 5 -30 23 -67 41 -62 29 -78 32 -178 34 -75 1 -128 -3 -167
-14z"/>
<path d="M9985 5114 c-183 -63 -438 -104 -650 -104 l-103 0 -7 -61 c-4 -34 -4
-118 0 -188 6 -128 52 -642 57 -646 11 -9 309 22 527 55 145 22 274 40 286 40
22 0 23 4 30 128 9 152 0 349 -22 487 -15 98 -14 267 2 308 10 23 -2 21 -120
-19z"/>
<path d="M6541 5089 c-56 -10 -260 -74 -273 -87 -13 -13 -51 -336 -50 -432 0
-52 5 -117 12 -145 7 -27 15 -127 19 -221 6 -143 11 -178 28 -210 18 -35 25
-40 69 -46 27 -3 201 -7 388 -7 l338 -1 -6 24 c-25 98 -38 303 -43 652 l-5
382 -102 31 c-179 54 -294 73 -375 60z"/>
<path d="M8477 5080 c-123 -44 -213 -125 -242 -218 -31 -100 -31 -312 -1 -545
14 -108 26 -229 26 -268 l0 -71 33 6 c109 19 322 41 815 83 l73 6 -6 41 c-22
154 -57 524 -67 697 l-12 205 -77 23 c-129 36 -217 51 -354 56 -115 5 -137 3
-188 -15z"/>
<path d="M5670 5066 l-75 -11 0 -470 c0 -430 2 -474 18 -523 10 -29 26 -56 35
-61 28 -15 266 -45 500 -64 25 -2 31 0 27 13 -2 8 -12 58 -21 110 -14 76 -18
182 -21 527 l-5 432 -61 20 c-120 40 -254 49 -397 27z"/>
<path d="M5014 5004 c22 -58 36 -226 36 -444 1 -290 21 -512 51 -561 7 -11 47
-14 203 -14 107 0 197 3 201 7 4 3 -1 62 -9 130 -19 149 -36 465 -36 684 0
145 -2 163 -17 169 -52 19 -174 37 -297 42 -134 6 -139 5 -132 -13z"/>
<path d="M7320 5006 c-96 -17 -161 -37 -166 -50 -11 -30 -54 -387 -54 -446 0
-72 35 -298 73 -465 l23 -100 174 1 c97 0 251 8 345 19 94 10 234 18 312 19
137 1 142 2 137 21 -2 11 -9 43 -15 70 -7 29 -13 214 -16 447 l-5 397 -127 30
c-70 17 -170 38 -222 46 -131 22 -365 28 -459 11z"/>
<path d="M18091 4270 c-64 -138 -73 -169 -74 -250 -2 -70 1 -80 41 -153 59
-109 110 -178 272 -367 79 -91 165 -196 192 -235 55 -77 123 -204 114 -213
-11 -10 -171 18 -251 45 -43 14 -170 72 -281 129 -308 158 -456 199 -633 176
-141 -19 -303 -84 -389 -157 -69 -58 -119 -243 -129 -475 -8 -211 22 -350 117
-541 53 -104 151 -249 205 -300 70 -67 203 -158 400 -276 457 -272 463 -277
625 -560 99 -172 155 -245 227 -294 l45 -32 157 107 c86 58 199 139 251 178
92 71 96 75 117 139 37 111 44 187 42 472 -3 321 3 357 107 705 81 270 103
368 111 502 12 227 -27 334 -176 475 -199 188 -229 222 -313 351 -64 97 -101
143 -154 188 -119 102 -164 148 -234 242 -94 124 -210 209 -316 230 -30 6 -31
4 -73 -86z"/>
<path d="M10105 4114 c-22 -9 -490 -84 -658 -105 l-179 -23 7 -60 c3 -34 15
-125 26 -203 24 -180 24 -200 -3 -416 -19 -154 -20 -187 -10 -248 20 -115 27
-124 129 -148 247 -57 454 -54 648 10 50 17 95 33 102 37 7 5 3 59 -15 187
-33 240 -35 448 -5 680 12 94 24 198 27 233 l4 62 -31 -1 c-18 0 -36 -2 -42
-5z"/>
<path d="M4520 3943 c0 -5 9 -87 20 -183 24 -211 52 -383 83 -510 22 -92 24
-95 72 -133 83 -63 300 -207 313 -207 18 0 15 203 -4 325 -10 60 -19 205 -22
363 -6 218 -10 264 -22 272 -24 15 -185 50 -299 66 -123 16 -141 17 -141 7z"/>
<path d="M8930 3943 c-25 -2 -130 -12 -233 -23 -104 -11 -236 -20 -293 -20
l-104 0 2 -537 3 -538 59 -23 c220 -88 510 -71 766 44 l60 27 0 499 c0 560 1
548 -68 567 -35 10 -95 12 -192 4z"/>
<path d="M5053 3894 c19 -62 29 -172 42 -434 13 -273 24 -369 55 -492 11 -41
17 -49 52 -63 22 -9 76 -20 119 -26 80 -11 262 -9 274 2 3 4 -5 80 -19 170
-33 212 -54 413 -65 623 -5 93 -13 172 -18 176 -7 6 -206 35 -387 56 -54 6
-58 5 -53 -12z"/>
<path d="M5594 3833 c16 -75 36 -268 46 -453 11 -223 30 -354 63 -458 25 -77
33 -83 183 -127 120 -36 276 -45 358 -21 l59 17 -6 87 c-3 48 -20 150 -38 227
-33 139 -33 141 -34 400 0 257 7 341 26 329 14 -9 54 -74 69 -114 9 -23 16
-118 20 -285 8 -266 18 -339 71 -525 17 -57 31 -105 32 -106 8 -8 133 -44 184
-54 92 -18 343 -8 467 19 55 12 101 23 104 25 7 7 -17 309 -33 421 -9 61 -37
221 -63 355 l-47 245 -285 2 c-214 1 -314 6 -400 19 -88 14 -194 19 -449 21
l-333 4 6 -28z"/>
<path d="M7310 3853 c-127 -4 -131 -6 -125 -51 2 -20 12 -98 20 -172 29 -245
118 -745 141 -790 22 -44 102 -79 256 -111 213 -44 283 -39 481 33 l87 32 0
533 0 533 -387 -2 c-214 -1 -426 -3 -473 -5z"/>
<path d="M1570 3491 c-380 -118 -571 -222 -716 -391 -40 -47 -41 -51 -48 -142
-4 -51 -25 -233 -46 -405 -22 -171 -45 -373 -51 -449 -15 -182 -7 -444 15
-504 24 -64 109 -184 133 -188 31 -5 313 55 406 85 45 15 177 75 292 133 280
142 356 172 565 215 195 41 300 77 386 134 219 143 258 354 129 696 -60 158
-101 218 -335 481 -272 307 -361 375 -500 381 -66 2 -93 -3 -230 -46z"/>
</g>
</svg>
